<?xml version="1.0" encoding="UTF-8" standalone="no"?>
<!DOCTYPE svg PUBLIC "-//W3C//DTD SVG 1.1//EN" "http://www.w3.org/Graphics/SVG/1.1/DTD/svg11.dtd">
<svg width="100%" height="100%" viewBox="0 0 1080 289" version="1.1" xmlns="http://www.w3.org/2000/svg" xmlns:xlink="http://www.w3.org/1999/xlink" xml:space="preserve" xmlns:serif="http://www.serif.com/" style="fill-rule:evenodd;clip-rule:evenodd;stroke-linejoin:round;stroke-miterlimit:2;">
    <g id="Artboard1" transform="matrix(1,0,0,0.267593,0,0)">
        <rect x="0" y="0" width="1080" height="1080" style="fill:none;"/>
        <g transform="matrix(1,0,0,3.73702,136.223,-1475.37)">
            <g transform="matrix(3.66967,0,0,3.66967,-122.407,-719.806)">
                <path d="M95.783,369.077L79.468,369.077L79.468,342.268L69.511,342.268C68.949,342.932 68.311,344.668 67.596,347.477C65.911,354.319 63.868,359.86 61.468,364.098C60.498,365.885 59.349,367.315 58.021,368.387C56.387,369.715 54.677,370.379 52.889,370.379C51.664,370.379 50.336,369.945 48.906,369.077C47.119,368.004 46.226,366.728 46.226,365.247C46.226,364.532 46.494,363.932 47.03,363.447C47.566,362.962 48.14,362.719 48.753,362.719C50.234,362.719 51.026,363.536 51.128,365.17C51.23,366.804 51.868,367.621 53.043,367.621C55.8,367.621 57.689,366.217 58.711,363.409C59.374,361.57 59.706,358.889 59.706,355.366C59.706,353.272 59.591,350.872 59.362,348.166C59.132,345.46 58.889,342.6 58.634,339.587C58.634,336.115 59.323,332.923 60.702,330.013C61.826,327.613 63.587,325.136 65.987,322.583C67.417,321.051 69.689,318.932 72.804,316.226L72.268,315.383L57.868,315.383C56.949,315.383 56.106,315.485 55.34,315.689C53.86,316.149 52.404,316.609 50.974,317.068L50.974,316.226C51.587,315.204 52.047,314.464 52.353,314.004C53.323,312.472 53.911,311.706 54.115,311.706C54.268,311.706 54.651,311.86 55.264,312.166C55.877,312.472 56.464,312.626 57.026,312.626L95.783,312.626L95.783,369.077ZM78.932,338.055L78.932,316.455C77.451,316.864 75.97,318.421 74.489,321.128C73.928,322.098 73.289,323.502 72.574,325.34C72.064,326.668 71.604,328.2 71.196,329.936C70.328,333.613 69.868,335.502 69.817,335.604L69.817,338.055L78.932,338.055Z" style="fill:rgb(234,244,244);fill-rule:nonzero;"/>
            </g>
            <g transform="matrix(3.66967,0,0,3.66967,-122.407,-719.806)">
                <path d="M126.651,364.711C126.651,365.221 125.438,366.115 123.013,367.391C120.587,368.668 119.17,369.306 118.762,369.306C118.149,369.306 117.434,368.821 116.617,367.851C115.8,366.881 114.983,365.885 114.166,364.864C113.706,364.864 112.098,365.604 109.34,367.085C106.583,368.566 105.026,369.306 104.668,369.306C104.004,369.306 103.187,368.655 102.217,367.353C101.247,366.051 100.762,364.711 100.762,363.332L100.762,337.826C100.762,337.417 100.557,336.728 100.149,335.757C99.74,334.787 99.332,333.766 98.923,332.694C99.128,332.54 99.281,332.387 99.383,332.234C99.996,331.57 100.532,331.034 100.991,330.626C101.655,329.962 102.319,329.272 102.983,328.557C104.26,327.281 105.051,326.643 105.357,326.643C105.817,326.643 106.711,327.409 108.038,328.94C109.672,330.83 110.489,332.668 110.489,334.455L110.489,359.962C110.489,360.626 110.809,361.251 111.447,361.838C112.085,362.426 112.634,362.719 113.094,362.719C113.298,362.719 113.502,362.655 113.706,362.528C113.911,362.4 114.064,362.311 114.166,362.26L114.166,327.715L124.66,327.715L124.66,360.804C124.66,361.774 124.991,362.643 125.655,363.409C126.319,364.174 126.651,364.609 126.651,364.711Z" style="fill:rgb(234,244,244);fill-rule:nonzero;"/>
            </g>
            <g transform="matrix(3.66967,0,0,3.66967,-122.407,-719.806)">
                <path d="M145.034,364.174C145.034,364.583 143.898,365.515 141.626,366.97C139.353,368.426 137.936,369.153 137.374,369.153C136.506,369.153 135.574,368.451 134.579,367.047C133.583,365.643 133.085,364.43 133.085,363.409L133.085,330.702L128.643,330.702L128.643,327.179C131.86,327.179 134.872,325.902 137.681,323.349C139.979,321.204 141.383,319.111 141.894,317.068L142.966,317.068L142.966,325.111C142.966,325.979 143.579,326.668 144.804,327.179L144.804,330.626L143.196,330.626L143.196,359.732C143.196,360.498 143.502,361.417 144.115,362.489C144.728,363.562 145.034,364.123 145.034,364.174Z" style="fill:rgb(234,244,244);fill-rule:nonzero;"/>
            </g>
            <g transform="matrix(3.66967,0,0,3.66967,-122.407,-719.806)">
                <path d="M174.217,348.396C174.217,352.787 173.221,357.357 171.23,362.106C168.83,367.928 165.485,372.191 161.196,374.898L160.889,374.362C162.064,372.626 163.098,370.174 163.991,367.009C164.885,363.843 165.332,360.038 165.332,355.596C165.332,352.328 164.923,348.932 164.106,345.409C162.983,340.506 161.298,337.187 159.051,335.451L158.055,335.451L158.055,369.077L147.255,369.077L147.255,317.298L156.14,313.851L157.979,313.851L157.979,332.311L159.281,332.311C160.762,331.289 161.885,330.523 162.651,330.013C165,328.481 166.353,327.715 166.711,327.715C167.17,328.277 167.553,328.762 167.86,329.17C169.8,331.826 171.332,334.813 172.455,338.132C173.119,340.123 173.502,341.349 173.604,341.809C174.013,343.596 174.217,345.791 174.217,348.396Z" style="fill:rgb(234,244,244);fill-rule:nonzero;"/>
            </g>
            <g transform="matrix(3.66967,0,0,3.66967,-122.407,-719.806)">
                <path d="M203.17,348.013C203.17,350.515 202.711,352.889 201.791,355.136C201.179,356.617 200.438,357.919 199.57,359.043C197.936,361.289 196.66,362.974 195.74,364.098C192.983,367.468 191.17,369.153 190.302,369.153C189.587,369.153 188.719,368.732 187.698,367.889C186.677,367.047 185.706,366.217 184.787,365.4C182.234,363.357 180.268,361.047 178.889,358.468C177.511,355.889 176.821,353.017 176.821,349.851C176.821,347.604 177.179,345.472 177.894,343.455C178.609,341.438 179.553,339.664 180.728,338.132C186.396,330.677 189.638,326.949 190.455,326.949C190.864,326.949 192.243,328.174 194.591,330.626C197.196,333.281 199.034,335.528 200.106,337.366C200.974,338.847 201.702,340.545 202.289,342.46C202.877,344.374 203.17,346.226 203.17,348.013ZM196.123,357.204C196.123,353.017 195.077,349.034 192.983,345.255C189.868,339.689 187.238,336.906 185.094,336.906C184.481,336.906 184.06,337.379 183.83,338.323C183.6,339.268 183.485,340.251 183.485,341.272C183.485,345.817 184.379,349.443 186.166,352.149C187.494,354.191 190.43,357 194.974,360.574C195.434,360.115 195.74,359.655 195.894,359.196C196.047,358.736 196.123,358.072 196.123,357.204Z" style="fill:rgb(234,244,244);fill-rule:nonzero;"/>
            </g>
            <g transform="matrix(3.66967,0,0,3.66967,-122.407,-719.806)">
                <path d="M227.145,333.689C227.145,334.149 226.66,334.94 225.689,336.064C223.749,338.26 222.549,339.357 222.089,339.357C221.783,339.357 221.323,339 220.711,338.285C219.894,337.315 219.077,336.574 218.26,336.064L218.26,369.383L207.689,369.383L207.689,336.064C207.689,335.604 207.421,334.966 206.885,334.149C206.349,333.332 205.826,332.745 205.315,332.387C205.57,331.826 206.63,330.83 208.494,329.4C210.357,327.97 211.672,327.255 212.438,327.255C213.051,327.255 213.817,327.74 214.736,328.711C215.655,329.681 216.6,330.651 217.57,331.621C217.979,331.621 218.911,330.894 220.366,329.438C221.821,327.983 222.6,327.255 222.702,327.255C223.723,327.97 224.464,328.557 224.923,329.017C226.404,330.549 227.145,332.106 227.145,333.689Z" style="fill:rgb(234,244,244);fill-rule:nonzero;"/>
            </g>
            <g transform="matrix(3.66967,0,0,3.66967,-261.542,-757.511)">
                <path d="M278.464,391.771L268.2,391.771L268.2,319.443C268.711,319.085 270.332,318.306 273.064,317.106C275.796,315.906 277.596,315.204 278.464,315L278.464,391.771Z" style="fill:rgb(124,150,255);fill-rule:nonzero;"/>
            </g>
        </g>
    </g>
</svg>
