<?xml version="1.0" encoding="UTF-8" standalone="no"?>
<!DOCTYPE svg PUBLIC "-//W3C//DTD SVG 1.1//EN" "http://www.w3.org/Graphics/SVG/1.1/DTD/svg11.dtd">
<svg width="100%" height="100%" viewBox="0 0 1080 289" version="1.1" xmlns="http://www.w3.org/2000/svg" xmlns:xlink="http://www.w3.org/1999/xlink" xml:space="preserve" xmlns:serif="http://www.serif.com/" style="fill-rule:evenodd;clip-rule:evenodd;stroke-linejoin:round;stroke-miterlimit:2;">
    <g id="Artboard1" transform="matrix(1,0,0,0.401389,0,0)">
        <rect x="0" y="0" width="1080" height="720" style="fill:none;"/>
        <g transform="matrix(1,0,0,1,2.31195,1.24567)">
            <g transform="matrix(0.857487,0,0,1.80235,516.557,-792.074)">
                <rect x="574.576" y="483.014" width="30.528" height="311.002" style="fill:rgb(124,150,255);"/>
            </g>
            <g transform="matrix(4.40755,0,0,10.9807,-294.803,-5534.33)">
                <path d="M93.15,526.7C93.5,525.9 94.05,525.55 94.85,525.55C95.65,525.55 96.2,525.9 96.5,526.7L106.75,553.85L113.3,553.85L101.9,523.85C100.7,520.7 98.4,519.5 94.9,519.5C91.35,519.5 89.05,520.7 87.8,523.85L75.95,553.85L82.45,553.85L93.15,526.7Z" style="fill:rgb(234,244,244);fill-rule:nonzero;"/>
                <path d="M116.1,520.1L116.1,543.1C116.1,550.2 119.8,553.85 127,553.85L134.1,553.85C141.3,553.85 145.05,550.2 145.05,543.1L145.05,520.1L139.25,520.1L139.25,542.65C139.25,546 137.5,547.95 133.7,547.95L127.7,547.95C123.8,547.95 122.1,546 122.1,542.65L122.1,520.1L116.1,520.1Z" style="fill:rgb(234,244,244);fill-rule:nonzero;"/>
                <path d="M150.3,520.1L150.3,526L160.15,526L160.15,553.85L166.1,553.85L166.1,526L175.95,526L175.95,520.1L150.3,520.1Z" style="fill:rgb(234,244,244);fill-rule:nonzero;"/>
                <path d="M181.5,520.1L181.5,553.85L187.4,553.85L187.4,539.75L204.65,539.75L204.65,553.85L210.6,553.85L210.6,520.1L204.65,520.1L204.65,533.85L187.4,533.85L187.4,520.1L181.5,520.1Z" style="fill:rgb(234,244,244);fill-rule:nonzero;"/>
                <path d="M232.75,520.1C222.95,520.1 217.5,525.7 217.5,537.05C217.5,548.35 222.9,553.85 232.75,553.85L237.35,553.85C247.2,553.85 252.6,548.35 252.6,537.05C252.6,525.7 247.15,520.1 237.35,520.1L232.75,520.1ZM237.35,526C243.85,526 246.65,529.3 246.65,537C246.65,544.75 243.85,547.95 237.35,547.95L232.75,547.95C226.2,547.95 223.4,544.75 223.4,537.05C223.4,529.3 226.25,526 232.75,526L237.35,526Z" style="fill:rgb(234,244,244);fill-rule:nonzero;"/>
                <path d="M259.45,520.1L259.45,526L277.95,526C281.2,526 282.65,528.05 282.65,530.45C282.65,532.85 281.3,535.15 277.95,535.15L264.8,535.15C261.1,535.15 259.5,536.7 259.5,540.5L259.5,553.85L265.4,553.85L265.4,541.65C265.4,541.05 265.7,540.8 266.25,540.8L275.05,540.8L282.75,553.85L289.3,553.85L281.45,540.35C286.6,538.9 288.6,534.4 288.6,530.2C288.6,524.8 285.35,520.1 277.75,520.1L259.45,520.1Z" style="fill:rgb(234,244,244);fill-rule:nonzero;"/>
            </g>
        </g>
    </g>
</svg>
