<?xml version="1.0" encoding="UTF-8" standalone="no"?>
<!DOCTYPE svg PUBLIC "-//W3C//DTD SVG 1.1//EN" "http://www.w3.org/Graphics/SVG/1.1/DTD/svg11.dtd">
<svg width="100%" height="100%" viewBox="0 0 1561 838" version="1.1" xmlns="http://www.w3.org/2000/svg" xmlns:xlink="http://www.w3.org/1999/xlink" xml:space="preserve" xmlns:serif="http://www.serif.com/" style="fill-rule:evenodd;clip-rule:evenodd;stroke-linejoin:round;stroke-miterlimit:2;">
    <g transform="matrix(1,0,0,1,-8470,-10342)">
        <g id="Artboard1" transform="matrix(0.812865,0,0,0.43625,8470,10342)">
            <rect x="0" y="0" width="1920" height="1920" style="fill:none;"/>
            <g transform="matrix(1.23022,0,0,2.29226,-221.009,-1453.92)">
                <g transform="matrix(1.26749,0,0,1.26749,-5511.98,-12414.1)">
                    <rect x="4576.5" y="10795.8" width="16.992" height="97.2" style="fill:rgb(246,249,253);fill-rule:nonzero;"/>
                    <path d="M4633.82,10816.1C4633.82,10812.7 4635.83,10810.5 4639.72,10810.5C4642.74,10810.5 4644.47,10811.8 4645.77,10814.7L4674.14,10876.7C4678.17,10887.8 4684.36,10894.7 4697.9,10894.7C4712.87,10894.7 4720.22,10886.2 4720.22,10873.4L4720.22,10795.8L4703.08,10795.8L4703.08,10872.7C4703.08,10876 4700.92,10878.2 4697.32,10878.2C4694.15,10878.2 4692.28,10876.4 4691.13,10874.1L4662.76,10812.1C4658.73,10801 4652.68,10794.1 4639.14,10794.1C4624.02,10794.1 4616.82,10802.6 4616.82,10815.2L4616.82,10893L4633.82,10893L4633.82,10816.1Z" style="fill:rgb(246,249,253);fill-rule:nonzero;"/>
                    <path d="M4760.39,10816.1C4760.39,10812.7 4762.41,10810.5 4766.3,10810.5C4769.32,10810.5 4771.05,10811.8 4772.34,10814.7L4800.71,10876.7C4804.74,10887.8 4810.94,10894.7 4824.47,10894.7C4839.45,10894.7 4846.79,10886.2 4846.79,10873.4L4846.79,10795.8L4829.66,10795.8L4829.66,10872.7C4829.66,10876 4827.5,10878.2 4823.9,10878.2C4820.73,10878.2 4818.86,10876.4 4817.7,10874.1L4789.34,10812.1C4785.3,10801 4779.26,10794.1 4765.72,10794.1C4750.6,10794.1 4743.4,10802.6 4743.4,10815.2L4743.4,10893L4760.39,10893L4760.39,10816.1Z" style="fill:rgb(246,249,253);fill-rule:nonzero;"/>
                    <path d="M4910.44,10795.8C4882.22,10795.8 4866.52,10811.9 4866.52,10844.6C4866.52,10877.2 4882.07,10893 4910.44,10893L4923.69,10893C4952.06,10893 4967.61,10877.2 4967.61,10844.6C4967.61,10811.9 4951.91,10795.8 4923.69,10795.8L4910.44,10795.8ZM4923.69,10812.8C4942.41,10812.8 4950.47,10822.3 4950.47,10844.5C4950.47,10866.8 4942.41,10876 4923.69,10876L4910.44,10876C4891.58,10876 4883.51,10866.8 4883.51,10844.6C4883.51,10822.3 4891.72,10812.8 4910.44,10812.8L4923.69,10812.8Z" style="fill:rgb(246,249,253);fill-rule:nonzero;"/>
                    <path d="M4972.94,10795.8L5005.48,10882.2C5009.08,10891.7 5016.42,10894.7 5025.93,10894.7C5036.01,10894.7 5042.63,10891.3 5046.23,10882.2L5080.5,10795.8L5061.64,10795.8L5030.68,10874C5029.67,10876.3 5028.23,10877.3 5025.93,10877.3C5023.62,10877.3 5022.04,10876.3 5021.18,10874L4991.66,10795.8L4972.94,10795.8Z" style="fill:rgb(246,249,253);fill-rule:nonzero;"/>
                    <path d="M5124.14,10814.8C5125.14,10812.5 5126.73,10811.5 5129.03,10811.5C5131.34,10811.5 5132.92,10812.5 5133.78,10814.8L5163.3,10893L5182.17,10893L5149.34,10806.6C5145.88,10797.5 5139.26,10794.1 5129.18,10794.1C5118.95,10794.1 5112.33,10797.5 5108.73,10806.6L5074.6,10893L5093.32,10893L5124.14,10814.8Z" style="fill:rgb(246,249,253);fill-rule:nonzero;"/>
                    <path d="M5179,10795.8L5179,10812.8L5207.37,10812.8L5207.37,10893L5224.5,10893L5224.5,10812.8L5252.87,10812.8L5252.87,10795.8L5179,10795.8Z" style="fill:rgb(246,249,253);fill-rule:nonzero;"/>
                    <rect x="5268.86" y="10795.8" width="16.992" height="97.2" style="fill:rgb(246,249,253);fill-rule:nonzero;"/>
                    <path d="M5349.64,10795.8C5321.42,10795.8 5305.72,10811.9 5305.72,10844.6C5305.72,10877.2 5321.27,10893 5349.64,10893L5362.89,10893C5391.26,10893 5406.81,10877.2 5406.81,10844.6C5406.81,10811.9 5391.11,10795.8 5362.89,10795.8L5349.64,10795.8ZM5362.89,10812.8C5381.61,10812.8 5389.67,10822.3 5389.67,10844.5C5389.67,10866.8 5381.61,10876 5362.89,10876L5349.64,10876C5330.78,10876 5322.71,10866.8 5322.71,10844.6C5322.71,10822.3 5330.92,10812.8 5349.64,10812.8L5362.89,10812.8Z" style="fill:rgb(246,249,253);fill-rule:nonzero;"/>
                    <path d="M5443.67,10816.1C5443.67,10812.7 5445.69,10810.5 5449.58,10810.5C5452.6,10810.5 5454.33,10811.8 5455.62,10814.7L5483.99,10876.7C5488.02,10887.8 5494.22,10894.7 5507.75,10894.7C5522.73,10894.7 5530.07,10886.2 5530.07,10873.4L5530.07,10795.8L5512.94,10795.8L5512.94,10872.7C5512.94,10876 5510.78,10878.2 5507.18,10878.2C5504.01,10878.2 5502.14,10876.4 5500.98,10874.1L5472.62,10812.1C5468.58,10801 5462.54,10794.1 5449,10794.1C5433.88,10794.1 5426.68,10802.6 5426.68,10815.2L5426.68,10893L5443.67,10893L5443.67,10816.1Z" style="fill:rgb(246,249,253);fill-rule:nonzero;"/>
                    <path d="M5579.18,10795.8C5557.58,10795.8 5548.94,10807.6 5548.94,10823.7C5548.94,10837.3 5554.98,10851.8 5580.9,10851.8L5603.51,10851.8C5615.46,10851.8 5618.78,10857.6 5618.78,10863.9C5618.78,10871 5614.6,10876 5605.38,10876L5550.66,10876L5550.66,10893L5604.81,10893C5626.98,10893 5635.77,10880.9 5635.77,10864.5C5635.77,10850.5 5629.58,10835.8 5603.08,10835.8L5580.33,10835.8C5568.95,10835.8 5565.93,10830.2 5565.93,10824.3C5565.93,10817.6 5569.82,10812.8 5578.6,10812.8L5628.42,10812.8L5628.42,10795.8L5579.18,10795.8Z" style="fill:rgb(246,249,253);fill-rule:nonzero;"/>
                </g>
                <g transform="matrix(1,0,0,1,95,0)">
                    <g transform="matrix(1.94974,0,0,1.94974,-425.573,-93.2507)">
                        <path d="M333.744,412.616C322.8,412.616 317.616,417.8 317.616,428.456L317.616,591.176C317.616,601.832 322.8,607.016 333.744,607.016L420.144,607.016C465.936,607.016 485.232,584.552 485.232,553.448C485.232,530.984 474.864,516.584 456.432,509.096C474.576,501.896 484.368,488.36 484.368,465.896C484.368,434.216 465.072,412.616 419.28,412.616L333.744,412.616ZM351.024,522.92L421.008,522.92C440.88,522.92 450.96,531.56 450.96,547.976C450.96,563.816 441.456,573.32 421.008,573.32L354.768,573.32C352.464,573.32 351.024,572.456 351.024,570.152L351.024,522.92ZM351.024,449.48C351.024,447.176 352.464,446.024 354.768,446.024L420.432,446.024C441.168,446.024 450.096,456.104 450.096,471.368C450.096,487.208 440.304,494.696 420.144,494.696L351.024,494.696L351.024,449.48Z" style="fill:rgb(246,249,253);fill-rule:nonzero;"/>
                    </g>
                    <g transform="matrix(1.94974,0,0,1.94974,-425.573,-93.2507)">
                        <path d="M581.712,454.952C541.104,454.952 515.76,479.72 515.76,530.984C515.76,582.248 541.104,607.016 581.712,607.016L613.68,607.016C654,607.016 679.632,582.248 679.632,530.984C679.632,479.72 654,454.952 613.68,454.952L581.712,454.952ZM610.8,484.328C637.008,484.328 648.816,498.152 648.816,530.984C648.816,563.816 637.008,577.352 610.8,577.352L584.592,577.352C558.096,577.352 546.576,563.816 546.576,530.984C546.576,498.152 558.096,484.328 584.592,484.328L610.8,484.328Z" style="fill:rgb(246,249,253);fill-rule:nonzero;"/>
                    </g>
                    <g transform="matrix(0.637742,0,0,0.637742,358.604,603.4)">
                        <path d="M581.712,454.952C541.104,454.952 515.76,479.72 515.76,530.984C515.76,582.248 541.104,607.016 581.712,607.016L613.68,607.016C654,607.016 679.632,582.248 679.632,530.984C679.632,479.72 654,454.952 613.68,454.952L581.712,454.952Z" style="fill:rgb(240,80,37);fill-rule:nonzero;"/>
                    </g>
                    <g transform="matrix(1.94974,0,0,1.94974,-425.573,-93.2507)">
                        <path d="M757.104,454.952C727.152,454.952 715.92,468.776 715.92,499.304L715.92,607.016L746.448,607.016L746.448,503.912C746.448,490.664 752.496,484.328 766.032,484.328L819.6,484.328L819.6,454.952L757.104,454.952Z" style="fill:rgb(246,249,253);fill-rule:nonzero;"/>
                    </g>
                    <g transform="matrix(1.94974,0,0,1.94974,-425.573,-93.2507)">
                        <path d="M908.304,454.952C867.696,454.952 842.352,478.568 842.352,527.528C842.352,576.776 867.696,600.68 908.304,600.68L975.408,600.68L975.408,607.592C975.408,629.48 967.92,638.408 945.168,638.408L317.616,638.408L317.616,667.784L948.624,667.784C991.248,667.784 1006.22,650.792 1006.22,607.592L1006.22,520.04C1006.22,476.264 986.64,454.952 950.352,454.952L908.304,454.952ZM873.168,528.68C873.168,497.576 884.976,484.328 911.184,484.328L941.424,484.328C965.904,484.328 975.408,494.984 975.408,519.752L975.408,573.032L911.184,573.032C884.976,573.032 873.168,559.784 873.168,528.68Z" style="fill:rgb(246,249,253);fill-rule:nonzero;"/>
                    </g>
                    <g transform="matrix(0.66547,0,0,0.66547,761.693,590.785)">
                        <path d="M908.304,454.952C867.696,454.952 842.352,478.568 842.352,527.528C842.352,576.776 867.696,600.68 908.304,600.68L1006.22,600.68L1006.22,520.04C1006.22,476.264 986.64,454.952 950.352,454.952L908.304,454.952Z" style="fill:rgb(240,80,37);fill-rule:nonzero;"/>
                    </g>
                </g>
            </g>
        </g>
    </g>
</svg>
