<?xml version="1.0" encoding="UTF-8" standalone="no"?>
<!DOCTYPE svg PUBLIC "-//W3C//DTD SVG 1.1//EN" "http://www.w3.org/Graphics/SVG/1.1/DTD/svg11.dtd">
<svg width="100%" height="100%" viewBox="0 0 1080 1080" version="1.1" xmlns="http://www.w3.org/2000/svg" xmlns:xlink="http://www.w3.org/1999/xlink" xml:space="preserve" xmlns:serif="http://www.serif.com/" style="fill-rule:evenodd;clip-rule:evenodd;stroke-linejoin:round;stroke-miterlimit:2;">
    <rect id="Artboard1" x="0" y="0" width="1080" height="1080" style="fill:none;"/>
    <g id="Artboard11" serif:id="Artboard1">
        <g transform="matrix(2.7,0,0,5.34653,-243,-1994.26)">
            <rect x="90" y="373" width="400" height="202" style="fill:rgb(36,55,67);"/>
        </g>
        <g transform="matrix(1,0,0,1,0,-11.0279)">
            <g transform="matrix(3.66967,0,0,3.66967,13.8149,-750.186)">
                <path d="M95.783,369.077L79.468,369.077L79.468,342.268L69.511,342.268C68.949,342.932 68.311,344.668 67.596,347.477C65.911,354.319 63.868,359.86 61.468,364.098C60.498,365.885 59.349,367.315 58.021,368.387C56.387,369.715 54.677,370.379 52.889,370.379C51.664,370.379 50.336,369.945 48.906,369.077C47.119,368.004 46.226,366.728 46.226,365.247C46.226,364.532 46.494,363.932 47.03,363.447C47.566,362.962 48.14,362.719 48.753,362.719C50.234,362.719 51.026,363.536 51.128,365.17C51.23,366.804 51.868,367.621 53.043,367.621C55.8,367.621 57.689,366.217 58.711,363.409C59.374,361.57 59.706,358.889 59.706,355.366C59.706,353.272 59.591,350.872 59.362,348.166C59.132,345.46 58.889,342.6 58.634,339.587C58.634,336.115 59.323,332.923 60.702,330.013C61.826,327.613 63.587,325.136 65.987,322.583C67.417,321.051 69.689,318.932 72.804,316.226L72.268,315.383L57.868,315.383C56.949,315.383 56.106,315.485 55.34,315.689C53.86,316.149 52.404,316.609 50.974,317.068L50.974,316.226C51.587,315.204 52.047,314.464 52.353,314.004C53.323,312.472 53.911,311.706 54.115,311.706C54.268,311.706 54.651,311.86 55.264,312.166C55.877,312.472 56.464,312.626 57.026,312.626L95.783,312.626L95.783,369.077ZM78.932,338.055L78.932,316.455C77.451,316.864 75.97,318.421 74.489,321.128C73.928,322.098 73.289,323.502 72.574,325.34C72.064,326.668 71.604,328.2 71.196,329.936C70.328,333.613 69.868,335.502 69.817,335.604L69.817,338.055L78.932,338.055Z" style="fill:rgb(234,244,244);fill-rule:nonzero;"/>
            </g>
            <g transform="matrix(3.66967,0,0,3.66967,13.8149,-750.186)">
                <path d="M126.651,364.711C126.651,365.221 125.438,366.115 123.013,367.391C120.587,368.668 119.17,369.306 118.762,369.306C118.149,369.306 117.434,368.821 116.617,367.851C115.8,366.881 114.983,365.885 114.166,364.864C113.706,364.864 112.098,365.604 109.34,367.085C106.583,368.566 105.026,369.306 104.668,369.306C104.004,369.306 103.187,368.655 102.217,367.353C101.247,366.051 100.762,364.711 100.762,363.332L100.762,337.826C100.762,337.417 100.557,336.728 100.149,335.757C99.74,334.787 99.332,333.766 98.923,332.694C99.128,332.54 99.281,332.387 99.383,332.234C99.996,331.57 100.532,331.034 100.991,330.626C101.655,329.962 102.319,329.272 102.983,328.557C104.26,327.281 105.051,326.643 105.357,326.643C105.817,326.643 106.711,327.409 108.038,328.94C109.672,330.83 110.489,332.668 110.489,334.455L110.489,359.962C110.489,360.626 110.809,361.251 111.447,361.838C112.085,362.426 112.634,362.719 113.094,362.719C113.298,362.719 113.502,362.655 113.706,362.528C113.911,362.4 114.064,362.311 114.166,362.26L114.166,327.715L124.66,327.715L124.66,360.804C124.66,361.774 124.991,362.643 125.655,363.409C126.319,364.174 126.651,364.609 126.651,364.711Z" style="fill:rgb(234,244,244);fill-rule:nonzero;"/>
            </g>
            <g transform="matrix(3.66967,0,0,3.66967,13.8149,-750.186)">
                <path d="M145.034,364.174C145.034,364.583 143.898,365.515 141.626,366.97C139.353,368.426 137.936,369.153 137.374,369.153C136.506,369.153 135.574,368.451 134.579,367.047C133.583,365.643 133.085,364.43 133.085,363.409L133.085,330.702L128.643,330.702L128.643,327.179C131.86,327.179 134.872,325.902 137.681,323.349C139.979,321.204 141.383,319.111 141.894,317.068L142.966,317.068L142.966,325.111C142.966,325.979 143.579,326.668 144.804,327.179L144.804,330.626L143.196,330.626L143.196,359.732C143.196,360.498 143.502,361.417 144.115,362.489C144.728,363.562 145.034,364.123 145.034,364.174Z" style="fill:rgb(234,244,244);fill-rule:nonzero;"/>
            </g>
            <g transform="matrix(3.66967,0,0,3.66967,13.8149,-750.186)">
                <path d="M174.217,348.396C174.217,352.787 173.221,357.357 171.23,362.106C168.83,367.928 165.485,372.191 161.196,374.898L160.889,374.362C162.064,372.626 163.098,370.174 163.991,367.009C164.885,363.843 165.332,360.038 165.332,355.596C165.332,352.328 164.923,348.932 164.106,345.409C162.983,340.506 161.298,337.187 159.051,335.451L158.055,335.451L158.055,369.077L147.255,369.077L147.255,317.298L156.14,313.851L157.979,313.851L157.979,332.311L159.281,332.311C160.762,331.289 161.885,330.523 162.651,330.013C165,328.481 166.353,327.715 166.711,327.715C167.17,328.277 167.553,328.762 167.86,329.17C169.8,331.826 171.332,334.813 172.455,338.132C173.119,340.123 173.502,341.349 173.604,341.809C174.013,343.596 174.217,345.791 174.217,348.396Z" style="fill:rgb(234,244,244);fill-rule:nonzero;"/>
            </g>
            <g transform="matrix(3.66967,0,0,3.66967,13.8149,-750.186)">
                <path d="M203.17,348.013C203.17,350.515 202.711,352.889 201.791,355.136C201.179,356.617 200.438,357.919 199.57,359.043C197.936,361.289 196.66,362.974 195.74,364.098C192.983,367.468 191.17,369.153 190.302,369.153C189.587,369.153 188.719,368.732 187.698,367.889C186.677,367.047 185.706,366.217 184.787,365.4C182.234,363.357 180.268,361.047 178.889,358.468C177.511,355.889 176.821,353.017 176.821,349.851C176.821,347.604 177.179,345.472 177.894,343.455C178.609,341.438 179.553,339.664 180.728,338.132C186.396,330.677 189.638,326.949 190.455,326.949C190.864,326.949 192.243,328.174 194.591,330.626C197.196,333.281 199.034,335.528 200.106,337.366C200.974,338.847 201.702,340.545 202.289,342.46C202.877,344.374 203.17,346.226 203.17,348.013ZM196.123,357.204C196.123,353.017 195.077,349.034 192.983,345.255C189.868,339.689 187.238,336.906 185.094,336.906C184.481,336.906 184.06,337.379 183.83,338.323C183.6,339.268 183.485,340.251 183.485,341.272C183.485,345.817 184.379,349.443 186.166,352.149C187.494,354.191 190.43,357 194.974,360.574C195.434,360.115 195.74,359.655 195.894,359.196C196.047,358.736 196.123,358.072 196.123,357.204Z" style="fill:rgb(234,244,244);fill-rule:nonzero;"/>
            </g>
            <g transform="matrix(3.66967,0,0,3.66967,13.8149,-750.186)">
                <path d="M227.145,333.689C227.145,334.149 226.66,334.94 225.689,336.064C223.749,338.26 222.549,339.357 222.089,339.357C221.783,339.357 221.323,339 220.711,338.285C219.894,337.315 219.077,336.574 218.26,336.064L218.26,369.383L207.689,369.383L207.689,336.064C207.689,335.604 207.421,334.966 206.885,334.149C206.349,333.332 205.826,332.745 205.315,332.387C205.57,331.826 206.63,330.83 208.494,329.4C210.357,327.97 211.672,327.255 212.438,327.255C213.051,327.255 213.817,327.74 214.736,328.711C215.655,329.681 216.6,330.651 217.57,331.621C217.979,331.621 218.911,330.894 220.366,329.438C221.821,327.983 222.6,327.255 222.702,327.255C223.723,327.97 224.464,328.557 224.923,329.017C226.404,330.549 227.145,332.106 227.145,333.689Z" style="fill:rgb(234,244,244);fill-rule:nonzero;"/>
            </g>
            <g transform="matrix(3.66967,0,0,3.66967,-125.32,-787.891)">
                <path d="M278.464,414.721L268.2,414.721L268.2,319.443C268.711,319.085 270.332,318.306 273.064,317.106C275.796,315.906 277.596,315.204 278.464,315L278.464,414.721Z" style="fill:rgb(124,150,255);fill-rule:nonzero;"/>
            </g>
            <g transform="matrix(1.29544,0,0,1.29544,33.8865,-199.183)">
                <path d="M138.484,685.625L135.047,670.938L124.203,670.938L120.766,685.625L115.453,685.625L126.484,639.938L132.516,639.938L143.766,685.625L138.484,685.625ZM134.109,666.344L130.609,650.844C130.464,650.073 130.323,649.318 130.188,648.578C130.052,647.839 129.927,647.12 129.813,646.422C129.698,645.724 129.589,645.042 129.484,644.375C129.422,645.042 129.339,645.729 129.234,646.438C129.13,647.146 129.005,647.859 128.859,648.578C128.714,649.297 128.557,650.031 128.391,650.781L124.984,666.344L134.109,666.344Z" style="fill:rgb(234,244,244);fill-rule:nonzero;"/>
                <path d="M170.609,655.375L165.203,655.375L165.203,685.625L160.422,685.625L160.422,655.375L156.203,655.375L156.203,652.781L160.422,651.156L160.422,648.844C160.422,646.24 160.646,644.031 161.094,642.219C161.542,640.406 162.323,639.026 163.438,638.078C164.552,637.13 166.089,636.656 168.047,636.656C168.964,636.656 169.813,636.74 170.594,636.906C171.375,637.073 172.182,637.323 173.016,637.656L171.766,641.531C171.182,641.323 170.635,641.161 170.125,641.047C169.615,640.932 169.109,640.875 168.609,640.875C167.318,640.875 166.438,641.443 165.969,642.578C165.5,643.714 165.245,645.76 165.203,648.719L165.203,651.313L170.609,651.313L170.609,655.375Z" style="fill:rgb(234,244,244);fill-rule:nonzero;"/>
                <path d="M197.016,668.438C197.016,671.146 196.786,673.594 196.328,675.781C195.87,677.969 195.172,679.844 194.234,681.406C193.297,682.969 192.109,684.167 190.672,685C189.234,685.833 187.536,686.25 185.578,686.25C183.703,686.25 182.057,685.833 180.641,685C179.224,684.167 178.047,682.974 177.109,681.422C176.172,679.87 175.464,677.995 174.984,675.797C174.505,673.599 174.266,671.146 174.266,668.438C174.266,664.646 174.672,661.432 175.484,658.797C176.297,656.161 177.547,654.151 179.234,652.766C180.922,651.38 183.068,650.688 185.672,650.688C188.109,650.688 190.172,651.359 191.859,652.703C193.547,654.047 194.828,656.036 195.703,658.672C196.578,661.307 197.016,664.563 197.016,668.438ZM179.172,668.438C179.172,671.417 179.401,673.917 179.859,675.938C180.318,677.958 181.031,679.479 182,680.5C182.969,681.521 184.203,682.031 185.703,682.031C187.182,682.031 188.396,681.531 189.344,680.531C190.292,679.531 190.995,678.026 191.453,676.016C191.911,674.005 192.141,671.479 192.141,668.438C192.141,665.458 191.911,662.964 191.453,660.953C190.995,658.943 190.292,657.432 189.344,656.422C188.396,655.411 187.172,654.906 185.672,654.906C183.38,654.906 181.724,656.036 180.703,658.297C179.682,660.557 179.172,663.938 179.172,668.438Z" style="fill:rgb(234,244,244);fill-rule:nonzero;"/>
                <path d="M213.828,686.25C211.307,686.25 209.208,685.594 207.531,684.281C205.854,682.969 204.599,681.01 203.766,678.406C202.932,675.802 202.516,672.573 202.516,668.719C202.516,664.948 202.938,661.719 203.781,659.031C204.625,656.344 205.901,654.281 207.609,652.844C209.318,651.406 211.453,650.688 214.016,650.688C215.307,650.688 216.469,650.823 217.5,651.094C218.531,651.365 219.495,651.75 220.391,652.25L218.859,656.219C218.089,655.802 217.323,655.49 216.563,655.281C215.802,655.073 215.057,654.969 214.328,654.969C212.828,654.969 211.568,655.484 210.547,656.516C209.526,657.547 208.75,659.073 208.219,661.094C207.688,663.115 207.422,665.635 207.422,668.656C207.422,671.594 207.677,674.052 208.188,676.031C208.698,678.01 209.469,679.505 210.5,680.516C211.531,681.526 212.818,682.031 214.359,682.031C215.276,682.031 216.208,681.901 217.156,681.641C218.104,681.38 219.057,681 220.016,680.5L220.016,684.563C219.141,685.104 218.125,685.521 216.969,685.813C215.813,686.104 214.766,686.25 213.828,686.25Z" style="fill:rgb(234,244,244);fill-rule:nonzero;"/>
                <path d="M246.359,651.313L246.359,685.625L242.516,685.625L241.984,680.75L241.641,680.75C241.182,681.875 240.583,682.849 239.844,683.672C239.104,684.495 238.255,685.13 237.297,685.578C236.339,686.026 235.266,686.25 234.078,686.25C232.078,686.25 230.469,685.75 229.25,684.75C228.031,683.75 227.146,682.323 226.594,680.469C226.042,678.615 225.766,676.406 225.766,673.844L225.766,651.313L230.578,651.313L230.578,672.938C230.578,676.021 230.938,678.292 231.656,679.75C232.375,681.208 233.474,681.938 234.953,681.938C236.557,681.938 237.839,681.495 238.797,680.609C239.755,679.724 240.453,678.38 240.891,676.578C241.328,674.776 241.547,672.49 241.547,669.719L241.547,651.313L246.359,651.313Z" style="fill:rgb(234,244,244);fill-rule:nonzero;"/>
                <path d="M269.984,676.563C269.984,678.625 269.609,680.38 268.859,681.828C268.109,683.276 267.021,684.375 265.594,685.125C264.167,685.875 262.432,686.25 260.391,686.25C258.807,686.25 257.359,686.063 256.047,685.688C254.734,685.313 253.62,684.865 252.703,684.344L252.703,679.344C253.62,680.094 254.755,680.714 256.109,681.203C257.464,681.693 258.839,681.938 260.234,681.938C261.839,681.938 263.073,681.479 263.938,680.563C264.802,679.646 265.234,678.365 265.234,676.719C265.234,675.74 265.057,674.891 264.703,674.172C264.349,673.453 263.781,672.766 263,672.109C262.219,671.453 261.193,670.76 259.922,670.031C258.505,669.156 257.25,668.25 256.156,667.313C255.063,666.375 254.214,665.297 253.609,664.078C253.005,662.859 252.703,661.375 252.703,659.625C252.703,656.958 253.573,654.802 255.313,653.156C257.052,651.51 259.349,650.688 262.203,650.688C263.641,650.688 265,650.87 266.281,651.234C267.563,651.599 268.776,652.146 269.922,652.875L268.109,656.75C267.234,656.146 266.302,655.667 265.313,655.313C264.323,654.958 263.307,654.781 262.266,654.781C260.745,654.781 259.542,655.208 258.656,656.063C257.771,656.917 257.328,658.063 257.328,659.5C257.328,660.458 257.505,661.281 257.859,661.969C258.214,662.656 258.797,663.323 259.609,663.969C260.422,664.615 261.495,665.344 262.828,666.156C264.245,667.052 265.49,667.964 266.563,668.891C267.635,669.818 268.474,670.885 269.078,672.094C269.682,673.302 269.984,674.792 269.984,676.563Z" style="fill:rgb(234,244,244);fill-rule:nonzero;"/>
                <path d="M285.672,650.75C288.005,650.75 289.927,651.427 291.438,652.781C292.948,654.135 294.073,655.958 294.813,658.25C295.552,660.542 295.922,663.094 295.922,665.906L295.922,669.313L279.578,669.313C279.62,673.583 280.281,676.792 281.563,678.938C282.844,681.083 284.776,682.156 287.359,682.156C288.589,682.156 289.797,681.969 290.984,681.594C292.172,681.219 293.401,680.615 294.672,679.781L294.672,684.094C293.484,684.823 292.245,685.365 290.953,685.719C289.661,686.073 288.286,686.25 286.828,686.25C283.974,686.25 281.661,685.484 279.891,683.953C278.12,682.422 276.833,680.328 276.031,677.672C275.229,675.016 274.828,672.01 274.828,668.656C274.828,664.823 275.234,661.573 276.047,658.906C276.859,656.24 278.073,654.214 279.688,652.828C281.302,651.443 283.297,650.75 285.672,650.75ZM285.672,654.688C283.859,654.688 282.443,655.568 281.422,657.328C280.401,659.089 279.807,661.802 279.641,665.469L291.422,665.469C291.422,663.531 291.219,661.745 290.813,660.109C290.406,658.474 289.781,657.161 288.938,656.172C288.094,655.182 287.005,654.688 285.672,654.688Z" style="fill:rgb(234,244,244);fill-rule:nonzero;"/>
                <path d="M311.234,686.25C307.964,686.25 305.479,684.745 303.781,681.734C302.083,678.724 301.234,674.333 301.234,668.563C301.234,662.833 302.089,658.422 303.797,655.328C305.505,652.234 307.932,650.688 311.078,650.688C312.182,650.688 313.224,650.901 314.203,651.328C315.182,651.755 316.063,652.359 316.844,653.141C317.625,653.922 318.286,654.865 318.828,655.969L319.047,655.969C319.005,655.01 318.969,654.151 318.938,653.391C318.906,652.63 318.891,651.917 318.891,651.25L318.891,637L323.672,637L323.672,685.625L319.828,685.625L319.172,681L318.891,681C318.307,682.083 317.646,683.021 316.906,683.813C316.167,684.604 315.333,685.208 314.406,685.625C313.479,686.042 312.422,686.25 311.234,686.25ZM312.297,682.156C314.464,682.156 316.104,681.146 317.219,679.125C318.333,677.104 318.891,674.115 318.891,670.156L318.891,667.813C318.891,663.458 318.354,660.229 317.281,658.125C316.208,656.021 314.526,654.969 312.234,654.969C310.151,654.969 308.615,656.13 307.625,658.453C306.635,660.776 306.141,664.146 306.141,668.563C306.141,673.021 306.635,676.401 307.625,678.703C308.615,681.005 310.172,682.156 312.297,682.156Z" style="fill:rgb(234,244,244);fill-rule:nonzero;"/>
                <path d="M364.078,685.625L359.953,664.344C359.849,663.76 359.745,663.156 359.641,662.531C359.536,661.906 359.438,661.281 359.344,660.656C359.25,660.031 359.161,659.411 359.078,658.797C358.995,658.182 358.911,657.583 358.828,657L358.672,657C358.589,657.604 358.5,658.224 358.406,658.859C358.313,659.495 358.219,660.125 358.125,660.75C358.031,661.375 357.932,661.99 357.828,662.594C357.724,663.198 357.62,663.781 357.516,664.344L353.141,685.625L347.641,685.625L340.234,651.313L345.047,651.313L348.703,669.188C348.911,670.313 349.12,671.464 349.328,672.641C349.536,673.818 349.734,674.995 349.922,676.172C350.109,677.349 350.286,678.521 350.453,679.688L350.641,679.688C350.745,678.958 350.854,678.193 350.969,677.391C351.083,676.589 351.208,675.755 351.344,674.891C351.479,674.026 351.63,673.13 351.797,672.203C351.964,671.276 352.151,670.333 352.359,669.375L356.078,651.313L361.422,651.313L365.109,669.469C365.297,670.26 365.479,671.177 365.656,672.219C365.833,673.26 366.016,674.406 366.203,675.656C366.391,676.906 366.589,678.25 366.797,679.688L366.984,679.688C367.047,679.063 367.13,678.385 367.234,677.656C367.339,676.927 367.464,676.13 367.609,675.266C367.755,674.401 367.922,673.479 368.109,672.5L372.484,651.313L377.172,651.313L369.609,685.625L364.078,685.625Z" style="fill:rgb(234,244,244);fill-rule:nonzero;"/>
                <path d="M393.391,650.719C393.87,650.719 394.349,650.755 394.828,650.828C395.307,650.901 395.807,651.021 396.328,651.188L395.578,656.125C395.203,655.958 394.807,655.844 394.391,655.781C393.974,655.719 393.526,655.688 393.047,655.688C392.109,655.688 391.25,655.995 390.469,656.609C389.688,657.224 389.016,658.083 388.453,659.188C387.891,660.292 387.458,661.573 387.156,663.031C386.854,664.49 386.714,666.063 386.734,667.75L386.734,685.625L381.922,685.625L381.922,651.313L385.672,651.313L386.328,657.406L386.641,657.406C387.12,656.094 387.682,654.938 388.328,653.938C388.974,652.938 389.719,652.151 390.563,651.578C391.406,651.005 392.349,650.719 393.391,650.719Z" style="fill:rgb(234,244,244);fill-rule:nonzero;"/>
                <path d="M405.953,651.313L405.953,685.625L401.172,685.625L401.172,651.313L405.953,651.313ZM403.641,638.438C404.62,638.438 405.333,638.75 405.781,639.375C406.229,640 406.453,640.865 406.453,641.969C406.453,643.052 406.214,643.906 405.734,644.531C405.255,645.156 404.557,645.469 403.641,645.469C402.745,645.469 402.036,645.156 401.516,644.531C400.995,643.906 400.734,643.052 400.734,641.969C400.734,640.823 400.984,639.948 401.484,639.344C401.984,638.74 402.703,638.438 403.641,638.438Z" style="fill:rgb(234,244,244);fill-rule:nonzero;"/>
                <path d="M422.422,682C422.943,682 423.464,681.943 423.984,681.828C424.505,681.714 425.005,681.552 425.484,681.344L425.484,685.281C424.839,685.573 424.141,685.807 423.391,685.984C422.641,686.161 421.807,686.25 420.891,686.25C419.411,686.25 418.198,685.917 417.25,685.25C416.302,684.583 415.604,683.589 415.156,682.266C414.708,680.943 414.484,679.281 414.484,677.281L414.484,655.344L411.297,655.344L411.297,652.719L414.703,651.438L415.984,643.531L419.297,643.531L419.297,651.313L425.109,651.313L425.109,655.344L419.297,655.344L419.297,676.719C419.297,678.49 419.51,679.813 419.938,680.688C420.365,681.563 421.193,682 422.422,682Z" style="fill:rgb(234,244,244);fill-rule:nonzero;"/>
                <path d="M435.422,651.313L435.422,685.625L430.641,685.625L430.641,651.313L435.422,651.313ZM433.109,638.438C434.089,638.438 434.802,638.75 435.25,639.375C435.698,640 435.922,640.865 435.922,641.969C435.922,643.052 435.682,643.906 435.203,644.531C434.724,645.156 434.026,645.469 433.109,645.469C432.214,645.469 431.505,645.156 430.984,644.531C430.464,643.906 430.203,643.052 430.203,641.969C430.203,640.823 430.453,639.948 430.953,639.344C431.453,638.74 432.172,638.438 433.109,638.438Z" style="fill:rgb(234,244,244);fill-rule:nonzero;"/>
                <path d="M456.172,650.688C458.88,650.688 460.932,651.635 462.328,653.531C463.724,655.427 464.422,658.333 464.422,662.25L464.422,685.625L459.609,685.625L459.609,663.219C459.609,660.448 459.25,658.375 458.531,657C457.813,655.625 456.682,654.938 455.141,654.938C452.891,654.938 451.245,655.938 450.203,657.938C449.161,659.938 448.641,663.146 448.641,667.563L448.641,685.625L443.828,685.625L443.828,651.313L447.672,651.313L448.203,656.281L448.516,656.281C448.995,655.135 449.609,654.146 450.359,653.313C451.109,652.479 451.974,651.833 452.953,651.375C453.932,650.917 455.005,650.688 456.172,650.688Z" style="fill:rgb(234,244,244);fill-rule:nonzero;"/>
                <path d="M479.453,701C476.182,701 473.609,700.167 471.734,698.5C469.859,696.833 468.922,694.5 468.922,691.5C468.922,689.146 469.484,687.219 470.609,685.719C471.734,684.219 473.182,683.219 474.953,682.719C474.078,682.302 473.365,681.677 472.813,680.844C472.26,680.01 471.984,679.021 471.984,677.875C471.984,676.708 472.26,675.646 472.813,674.688C473.365,673.729 474.141,672.813 475.141,671.938C473.807,671.146 472.755,669.875 471.984,668.125C471.214,666.375 470.828,664.365 470.828,662.094C470.828,659.76 471.208,657.745 471.969,656.047C472.729,654.349 473.828,653.031 475.266,652.094C476.703,651.156 478.422,650.688 480.422,650.688C481.047,650.688 481.599,650.719 482.078,650.781C482.557,650.844 482.984,650.927 483.359,651.031C483.734,651.135 484.068,651.26 484.359,651.406L492.859,651.406L492.859,654.5L488.266,655.063C488.849,656 489.276,657.068 489.547,658.266C489.818,659.464 489.953,660.677 489.953,661.906C489.953,665.427 489.12,668.193 487.453,670.203C485.786,672.214 483.432,673.219 480.391,673.219C479.453,673.219 478.703,673.125 478.141,672.938C477.578,673.458 477.083,674.052 476.656,674.719C476.229,675.385 476.016,676.208 476.016,677.188C476.016,677.792 476.156,678.323 476.438,678.781C476.719,679.24 477.13,679.594 477.672,679.844C478.214,680.094 478.88,680.219 479.672,680.219L484.609,680.219C487.172,680.219 489.146,680.958 490.531,682.438C491.917,683.917 492.609,686.167 492.609,689.188C492.609,692.938 491.479,695.844 489.219,697.906C486.958,699.969 483.703,701 479.453,701ZM479.828,697.188C481.641,697.188 483.156,696.911 484.375,696.359C485.594,695.807 486.51,694.969 487.125,693.844C487.74,692.719 488.047,691.323 488.047,689.656C488.047,688.302 487.833,687.26 487.406,686.531C486.979,685.802 486.37,685.302 485.578,685.031C484.786,684.76 483.839,684.625 482.734,684.625L478.641,684.625C477.682,684.625 476.813,684.839 476.031,685.266C475.25,685.693 474.63,686.375 474.172,687.313C473.714,688.25 473.484,689.5 473.484,691.063C473.484,693.083 474.052,694.609 475.188,695.641C476.323,696.672 477.87,697.188 479.828,697.188ZM480.422,669.656C481.922,669.656 483.083,669.01 483.906,667.719C484.729,666.427 485.141,664.531 485.141,662.031C485.141,659.406 484.719,657.448 483.875,656.156C483.031,654.865 481.859,654.219 480.359,654.219C478.901,654.219 477.755,654.911 476.922,656.297C476.089,657.682 475.672,659.625 475.672,662.125C475.672,664.521 476.068,666.375 476.859,667.688C477.651,669 478.839,669.656 480.422,669.656Z" style="fill:rgb(234,244,244);fill-rule:nonzero;"/>
                <path d="M524.484,676.563C524.484,678.625 524.109,680.38 523.359,681.828C522.609,683.276 521.521,684.375 520.094,685.125C518.667,685.875 516.932,686.25 514.891,686.25C513.307,686.25 511.859,686.063 510.547,685.688C509.234,685.313 508.12,684.865 507.203,684.344L507.203,679.344C508.12,680.094 509.255,680.714 510.609,681.203C511.964,681.693 513.339,681.938 514.734,681.938C516.339,681.938 517.573,681.479 518.438,680.563C519.302,679.646 519.734,678.365 519.734,676.719C519.734,675.74 519.557,674.891 519.203,674.172C518.849,673.453 518.281,672.766 517.5,672.109C516.719,671.453 515.693,670.76 514.422,670.031C513.005,669.156 511.75,668.25 510.656,667.313C509.563,666.375 508.714,665.297 508.109,664.078C507.505,662.859 507.203,661.375 507.203,659.625C507.203,656.958 508.073,654.802 509.813,653.156C511.552,651.51 513.849,650.688 516.703,650.688C518.141,650.688 519.5,650.87 520.781,651.234C522.063,651.599 523.276,652.146 524.422,652.875L522.609,656.75C521.734,656.146 520.802,655.667 519.813,655.313C518.823,654.958 517.807,654.781 516.766,654.781C515.245,654.781 514.042,655.208 513.156,656.063C512.271,656.917 511.828,658.063 511.828,659.5C511.828,660.458 512.005,661.281 512.359,661.969C512.714,662.656 513.297,663.323 514.109,663.969C514.922,664.615 515.995,665.344 517.328,666.156C518.745,667.052 519.99,667.964 521.063,668.891C522.135,669.818 522.974,670.885 523.578,672.094C524.182,673.302 524.484,674.792 524.484,676.563Z" style="fill:rgb(234,244,244);fill-rule:nonzero;"/>
                <path d="M543.141,650.688C546.432,650.688 548.927,652.161 550.625,655.109C552.323,658.057 553.172,662.49 553.172,668.406C553.172,672.219 552.792,675.453 552.031,678.109C551.271,680.766 550.161,682.786 548.703,684.172C547.245,685.557 545.474,686.25 543.391,686.25C542.224,686.25 541.141,686.026 540.141,685.578C539.141,685.13 538.255,684.495 537.484,683.672C536.714,682.849 536.068,681.885 535.547,680.781L535.328,680.781C535.37,681.615 535.417,682.417 535.469,683.188C535.521,683.958 535.547,684.688 535.547,685.375L535.547,700.938L530.734,700.938L530.734,651.313L534.641,651.313L535.234,656.344L535.516,656.344C536.099,655.073 536.771,654.021 537.531,653.188C538.292,652.354 539.141,651.729 540.078,651.313C541.016,650.896 542.036,650.688 543.141,650.688ZM542.109,654.844C540.651,654.844 539.438,655.302 538.469,656.219C537.5,657.135 536.771,658.516 536.281,660.359C535.792,662.203 535.547,664.521 535.547,667.313L535.547,668.969C535.547,671.927 535.792,674.375 536.281,676.313C536.771,678.25 537.51,679.688 538.5,680.625C539.49,681.563 540.714,682.031 542.172,682.031C543.505,682.031 544.625,681.552 545.531,680.594C546.438,679.635 547.12,678.156 547.578,676.156C548.036,674.156 548.266,671.594 548.266,668.469C548.266,663.948 547.792,660.547 546.844,658.266C545.896,655.984 544.318,654.844 542.109,654.844Z" style="fill:rgb(234,244,244);fill-rule:nonzero;"/>
                <path d="M569.203,650.688C572.37,650.688 574.63,651.698 575.984,653.719C577.339,655.74 578.016,658.667 578.016,662.5L578.016,685.625L574.359,685.625L573.641,680.75L573.516,680.75C572.974,681.917 572.328,682.911 571.578,683.734C570.828,684.557 569.974,685.182 569.016,685.609C568.057,686.036 566.953,686.25 565.703,686.25C563.932,686.25 562.484,685.781 561.359,684.844C560.234,683.906 559.401,682.672 558.859,681.141C558.318,679.609 558.047,677.958 558.047,676.188C558.047,672.792 559.026,670.156 560.984,668.281C562.943,666.406 565.724,665.385 569.328,665.219L573.234,664.969L573.234,662.625C573.234,659.875 572.859,657.865 572.109,656.594C571.359,655.323 570.151,654.688 568.484,654.688C567.526,654.688 566.521,654.854 565.469,655.188C564.417,655.521 563.276,656.052 562.047,656.781L560.516,653.156C561.807,652.323 563.188,651.703 564.656,651.297C566.125,650.891 567.641,650.688 569.203,650.688ZM573.297,668.5L570.109,668.719C567.693,668.865 565.896,669.547 564.719,670.766C563.542,671.984 562.953,673.75 562.953,676.063C562.953,678.208 563.339,679.792 564.109,680.813C564.88,681.833 565.943,682.344 567.297,682.344C569.193,682.344 570.667,681.427 571.719,679.594C572.771,677.76 573.297,675.229 573.297,672L573.297,668.5Z" style="fill:rgb(234,244,244);fill-rule:nonzero;"/>
                <path d="M596.203,686.25C593.682,686.25 591.583,685.594 589.906,684.281C588.229,682.969 586.974,681.01 586.141,678.406C585.307,675.802 584.891,672.573 584.891,668.719C584.891,664.948 585.313,661.719 586.156,659.031C587,656.344 588.276,654.281 589.984,652.844C591.693,651.406 593.828,650.688 596.391,650.688C597.682,650.688 598.844,650.823 599.875,651.094C600.906,651.365 601.87,651.75 602.766,652.25L601.234,656.219C600.464,655.802 599.698,655.49 598.938,655.281C598.177,655.073 597.432,654.969 596.703,654.969C595.203,654.969 593.943,655.484 592.922,656.516C591.901,657.547 591.125,659.073 590.594,661.094C590.063,663.115 589.797,665.635 589.797,668.656C589.797,671.594 590.052,674.052 590.563,676.031C591.073,678.01 591.844,679.505 592.875,680.516C593.906,681.526 595.193,682.031 596.734,682.031C597.651,682.031 598.583,681.901 599.531,681.641C600.479,681.38 601.432,681 602.391,680.5L602.391,684.563C601.516,685.104 600.5,685.521 599.344,685.813C598.188,686.104 597.141,686.25 596.203,686.25Z" style="fill:rgb(234,244,244);fill-rule:nonzero;"/>
                <path d="M617.703,650.75C620.036,650.75 621.958,651.427 623.469,652.781C624.979,654.135 626.104,655.958 626.844,658.25C627.583,660.542 627.953,663.094 627.953,665.906L627.953,669.313L611.609,669.313C611.651,673.583 612.313,676.792 613.594,678.938C614.875,681.083 616.807,682.156 619.391,682.156C620.62,682.156 621.828,681.969 623.016,681.594C624.203,681.219 625.432,680.615 626.703,679.781L626.703,684.094C625.516,684.823 624.276,685.365 622.984,685.719C621.693,686.073 620.318,686.25 618.859,686.25C616.005,686.25 613.693,685.484 611.922,683.953C610.151,682.422 608.865,680.328 608.063,677.672C607.26,675.016 606.859,672.01 606.859,668.656C606.859,664.823 607.266,661.573 608.078,658.906C608.891,656.24 610.104,654.214 611.719,652.828C613.333,651.443 615.328,650.75 617.703,650.75ZM617.703,654.688C615.891,654.688 614.474,655.568 613.453,657.328C612.432,659.089 611.839,661.802 611.672,665.469L623.453,665.469C623.453,663.531 623.25,661.745 622.844,660.109C622.438,658.474 621.813,657.161 620.969,656.172C620.125,655.182 619.036,654.688 617.703,654.688Z" style="fill:rgb(234,244,244);fill-rule:nonzero;"/>
            </g>
        </g>
    </g>
</svg>
