<?xml version="1.0" encoding="UTF-8" standalone="no"?>
<!DOCTYPE svg PUBLIC "-//W3C//DTD SVG 1.1//EN" "http://www.w3.org/Graphics/SVG/1.1/DTD/svg11.dtd">
<svg width="100%" height="100%" viewBox="0 0 1580 678" version="1.1" xmlns="http://www.w3.org/2000/svg" xmlns:xlink="http://www.w3.org/1999/xlink" xml:space="preserve" xmlns:serif="http://www.serif.com/" style="fill-rule:evenodd;clip-rule:evenodd;stroke-linejoin:round;stroke-miterlimit:2;">
    <g transform="matrix(1,0,0,1,-12640.9,-12904.1)">
        <g id="Artboard4" transform="matrix(1.37836,0,0,0.959915,-4523.81,762.185)">
            <rect x="12453" y="12649" width="1146" height="706" style="fill:none;"/>
            <g transform="matrix(0.7255,0,0,1.04176,12329.5,12001.9)">
                <g transform="matrix(0.625678,0,0,0.625678,-2630.25,-5585.32)">
                    <rect x="4576.5" y="10795.8" width="16.992" height="97.2" style="fill:rgb(36,55,67);fill-rule:nonzero;"/>
                    <path d="M4633.82,10816.1C4633.82,10812.7 4635.83,10810.5 4639.72,10810.5C4642.74,10810.5 4644.47,10811.8 4645.77,10814.7L4674.14,10876.7C4678.17,10887.8 4684.36,10894.7 4697.9,10894.7C4712.87,10894.7 4720.22,10886.2 4720.22,10873.4L4720.22,10795.8L4703.08,10795.8L4703.08,10872.7C4703.08,10876 4700.92,10878.2 4697.32,10878.2C4694.15,10878.2 4692.28,10876.4 4691.13,10874.1L4662.76,10812.1C4658.73,10801 4652.68,10794.1 4639.14,10794.1C4624.02,10794.1 4616.82,10802.6 4616.82,10815.2L4616.82,10893L4633.82,10893L4633.82,10816.1Z" style="fill:rgb(36,55,67);fill-rule:nonzero;"/>
                    <path d="M4760.39,10816.1C4760.39,10812.7 4762.41,10810.5 4766.3,10810.5C4769.32,10810.5 4771.05,10811.8 4772.34,10814.7L4800.71,10876.7C4804.74,10887.8 4810.94,10894.7 4824.47,10894.7C4839.45,10894.7 4846.79,10886.2 4846.79,10873.4L4846.79,10795.8L4829.66,10795.8L4829.66,10872.7C4829.66,10876 4827.5,10878.2 4823.9,10878.2C4820.73,10878.2 4818.86,10876.4 4817.7,10874.1L4789.34,10812.1C4785.3,10801 4779.26,10794.1 4765.72,10794.1C4750.6,10794.1 4743.4,10802.6 4743.4,10815.2L4743.4,10893L4760.39,10893L4760.39,10816.1Z" style="fill:rgb(36,55,67);fill-rule:nonzero;"/>
                    <path d="M4910.44,10795.8C4882.22,10795.8 4866.52,10811.9 4866.52,10844.6C4866.52,10877.2 4882.07,10893 4910.44,10893L4923.69,10893C4952.06,10893 4967.61,10877.2 4967.61,10844.6C4967.61,10811.9 4951.91,10795.8 4923.69,10795.8L4910.44,10795.8ZM4923.69,10812.8C4942.41,10812.8 4950.47,10822.3 4950.47,10844.5C4950.47,10866.8 4942.41,10876 4923.69,10876L4910.44,10876C4891.58,10876 4883.51,10866.8 4883.51,10844.6C4883.51,10822.3 4891.72,10812.8 4910.44,10812.8L4923.69,10812.8Z" style="fill:rgb(36,55,67);fill-rule:nonzero;"/>
                    <path d="M4972.94,10795.8L5005.48,10882.2C5009.08,10891.7 5016.42,10894.7 5025.93,10894.7C5036.01,10894.7 5042.63,10891.3 5046.23,10882.2L5080.5,10795.8L5061.64,10795.8L5030.68,10874C5029.67,10876.3 5028.23,10877.3 5025.93,10877.3C5023.62,10877.3 5022.04,10876.3 5021.18,10874L4991.66,10795.8L4972.94,10795.8Z" style="fill:rgb(36,55,67);fill-rule:nonzero;"/>
                    <path d="M5124.14,10814.8C5125.14,10812.5 5126.73,10811.5 5129.03,10811.5C5131.34,10811.5 5132.92,10812.5 5133.78,10814.8L5163.3,10893L5182.17,10893L5149.34,10806.6C5145.88,10797.5 5139.26,10794.1 5129.18,10794.1C5118.95,10794.1 5112.33,10797.5 5108.73,10806.6L5074.6,10893L5093.32,10893L5124.14,10814.8Z" style="fill:rgb(36,55,67);fill-rule:nonzero;"/>
                    <path d="M5179,10795.8L5179,10812.8L5207.37,10812.8L5207.37,10893L5224.5,10893L5224.5,10812.8L5252.87,10812.8L5252.87,10795.8L5179,10795.8Z" style="fill:rgb(36,55,67);fill-rule:nonzero;"/>
                    <rect x="5268.86" y="10795.8" width="16.992" height="97.2" style="fill:rgb(36,55,67);fill-rule:nonzero;"/>
                    <path d="M5349.64,10795.8C5321.42,10795.8 5305.72,10811.9 5305.72,10844.6C5305.72,10877.2 5321.27,10893 5349.64,10893L5362.89,10893C5391.26,10893 5406.81,10877.2 5406.81,10844.6C5406.81,10811.9 5391.11,10795.8 5362.89,10795.8L5349.64,10795.8ZM5362.89,10812.8C5381.61,10812.8 5389.67,10822.3 5389.67,10844.5C5389.67,10866.8 5381.61,10876 5362.89,10876L5349.64,10876C5330.78,10876 5322.71,10866.8 5322.71,10844.6C5322.71,10822.3 5330.92,10812.8 5349.64,10812.8L5362.89,10812.8Z" style="fill:rgb(36,55,67);fill-rule:nonzero;"/>
                    <path d="M5443.67,10816.1C5443.67,10812.7 5445.69,10810.5 5449.58,10810.5C5452.6,10810.5 5454.33,10811.8 5455.62,10814.7L5483.99,10876.7C5488.02,10887.8 5494.22,10894.7 5507.75,10894.7C5522.73,10894.7 5530.07,10886.2 5530.07,10873.4L5530.07,10795.8L5512.94,10795.8L5512.94,10872.7C5512.94,10876 5510.78,10878.2 5507.18,10878.2C5504.01,10878.2 5502.14,10876.4 5500.98,10874.1L5472.62,10812.1C5468.58,10801 5462.54,10794.1 5449,10794.1C5433.88,10794.1 5426.68,10802.6 5426.68,10815.2L5426.68,10893L5443.67,10893L5443.67,10816.1Z" style="fill:rgb(36,55,67);fill-rule:nonzero;"/>
                    <path d="M5579.18,10795.8C5557.58,10795.8 5548.94,10807.6 5548.94,10823.7C5548.94,10837.3 5554.98,10851.8 5580.9,10851.8L5603.51,10851.8C5615.46,10851.8 5618.78,10857.6 5618.78,10863.9C5618.78,10871 5614.6,10876 5605.38,10876L5550.66,10876L5550.66,10893L5604.81,10893C5626.98,10893 5635.77,10880.9 5635.77,10864.5C5635.77,10850.5 5629.58,10835.8 5603.08,10835.8L5580.33,10835.8C5568.95,10835.8 5565.93,10830.2 5565.93,10824.3C5565.93,10817.6 5569.82,10812.8 5578.6,10812.8L5628.42,10812.8L5628.42,10795.8L5579.18,10795.8Z" style="fill:rgb(36,55,67);fill-rule:nonzero;"/>
                </g>
                <g transform="matrix(0.637742,0,0,0.637742,348.116,620.42)">
                    <path d="M581.712,454.952C541.104,454.952 515.76,479.72 515.76,530.984C515.76,582.248 541.104,607.016 581.712,607.016L613.68,607.016C654,607.016 679.632,582.248 679.632,530.984C679.632,479.72 654,454.952 613.68,454.952L581.712,454.952Z" style="fill:rgb(36,55,67);fill-rule:nonzero;"/>
                </g>
                <g transform="matrix(3.29691,0,0,3.29691,-34449.7,-34401.7)">
                    <path d="M10519.8,10676.8L10570.6,10676.8C10593.5,10676.8 10603.2,10687.6 10603.2,10703.4C10603.2,10714.7 10598.3,10721.4 10589.2,10725C10598.4,10728.8 10603.6,10736 10603.6,10747.2C10603.6,10762.8 10594,10774 10571.1,10774L10527.9,10774C10522.4,10774 10519.8,10771.4 10519.8,10766.1L10519.8,10676.8ZM10536.5,10695.2L10536.5,10717.8L10571.1,10717.8C10581.2,10717.8 10586,10714.1 10586,10706.2C10586,10698.6 10581.6,10693.5 10571.2,10693.5L10538.4,10693.5C10537.2,10693.5 10536.5,10694.1 10536.5,10695.2ZM10536.5,10732L10536.5,10755.6C10536.5,10756.7 10537.2,10757.2 10538.4,10757.2L10571.5,10757.2C10581.7,10757.2 10586.5,10752.4 10586.5,10744.5C10586.5,10736.3 10581.4,10732 10571.5,10732L10536.5,10732Z" style="fill:rgb(36,55,67);"/>
                </g>
                <g transform="matrix(3.29691,0,0,3.29691,-34449.7,-34511.8)">
                    <path d="M10928.5,10693.5L10519.8,10693.5L10519.8,10684.7C10519.8,10679.4 10522.4,10676.8 10527.9,10676.8L10929.8,10676.8C10950.2,10676.8 10960.7,10687.6 10960.7,10708.3L10960.7,10810C10960.7,10830.7 10950.2,10841.4 10929.8,10841.4L10789.6,10841.4L10789.6,10824.1L10928.5,10824.1C10938.1,10824.1 10943.7,10819.2 10943.7,10808L10943.7,10709.5C10943.7,10698.5 10938.1,10693.5 10928.5,10693.5Z" style="fill:rgb(36,55,67);"/>
                </g>
                <g transform="matrix(3.29691,0,0,3.29691,-34449.7,-34401.7)">
                    <path d="M10663.7,10676.8C10635.4,10676.8 10619.7,10692.9 10619.7,10725.6C10619.7,10758.2 10635.3,10774 10663.7,10774L10676.9,10774C10705.3,10774 10720.8,10758.2 10720.8,10725.6C10720.8,10692.9 10705.1,10676.8 10676.9,10676.8L10663.7,10676.8ZM10676.9,10693.8C10695.6,10693.8 10703.7,10703.3 10703.7,10725.5C10703.7,10747.8 10695.6,10757 10676.9,10757L10663.7,10757C10644.8,10757 10636.7,10747.8 10636.7,10725.6C10636.7,10703.3 10644.9,10693.8 10663.7,10693.8L10676.9,10693.8Z" style="fill:rgb(36,55,67);fill-rule:nonzero;"/>
                </g>
                <g transform="matrix(3.29691,0,0,3.29691,-34449.7,-34401.7)">
                    <path d="M10740.6,10676.8L10740.6,10693.8L10793.8,10693.8C10803.2,10693.8 10807.4,10699.7 10807.4,10706.6C10807.4,10713.5 10803.5,10720.2 10793.8,10720.2L10756,10720.2C10745.3,10720.2 10740.7,10724.6 10740.7,10735.6L10740.7,10774L10757.7,10774L10757.7,10738.9C10757.7,10737.1 10758.6,10736.4 10760.1,10736.4L10785.5,10736.4L10807.7,10774L10826.5,10774L10803.9,10735.1C10818.8,10731 10824.5,10718 10824.5,10705.9C10824.5,10690.3 10815.2,10676.8 10793.3,10676.8L10740.6,10676.8Z" style="fill:rgb(36,55,67);fill-rule:nonzero;"/>
                </g>
                <g transform="matrix(3.29691,0,0,3.29691,-34449.7,-34401.7)">
                    <path d="M10881.8,10676.8C10853.6,10676.8 10837.9,10692.8 10837.9,10725.5C10837.9,10758 10853.5,10774 10881.8,10774L10896.8,10774C10918.5,10774 10927,10760.6 10927,10743.6C10927,10726.8 10918.5,10716.1 10901.3,10716.1L10877.9,10716.1L10877.9,10731L10899.5,10731C10907.5,10731 10911.5,10735.6 10911.5,10743.3C10911.5,10751.3 10907.5,10757 10898,10757L10881.8,10757C10863,10757 10854.9,10747.7 10854.9,10725.5C10854.9,10703.2 10863.1,10693.8 10881.8,10693.8L10921.9,10693.8L10921.9,10676.8L10881.8,10676.8Z" style="fill:rgb(36,55,67);fill-rule:nonzero;"/>
                </g>
                <g transform="matrix(2.36671e-16,-3.86513,3.86513,2.36671e-16,-40085.9,42801.5)">
                    <path d="M10775.8,10620C10760.8,10620 10755.2,10626.9 10755.2,10642.2L10755.2,10696L10769.9,10695.7L10769.9,10644.2C10769.9,10637.6 10773,10634.4 10779.7,10634.4L10806.5,10634.4L10806.3,10620L10775.8,10620Z" style="fill:rgb(36,55,67);fill-rule:nonzero;"/>
                </g>
            </g>
        </g>
    </g>
</svg>
