<?xml version="1.0" encoding="UTF-8" standalone="no"?>
<!DOCTYPE svg PUBLIC "-//W3C//DTD SVG 1.1//EN" "http://www.w3.org/Graphics/SVG/1.1/DTD/svg11.dtd">
<svg width="100%" height="100%" viewBox="0 0 1561 716" version="1.1" xmlns="http://www.w3.org/2000/svg" xmlns:xlink="http://www.w3.org/1999/xlink" xml:space="preserve" xmlns:serif="http://www.serif.com/" style="fill-rule:evenodd;clip-rule:evenodd;stroke-linejoin:round;stroke-miterlimit:2;">
    <g transform="matrix(1,0,0,1,-4276,-7072)">
        <g id="Artboard1" transform="matrix(0.812865,0,0,0.372708,4276,7072)">
            <rect x="0" y="0" width="1920" height="1920" style="fill:none;"/>
            <g transform="matrix(1.23022,0,0,2.68306,-104.138,-1615.74)">
                <g transform="matrix(1.94974,0,0,1.94974,-425.573,-93.2507)">
                    <path d="M333.744,412.616C322.8,412.616 317.616,417.8 317.616,428.456L317.616,591.176C317.616,601.832 322.8,607.016 333.744,607.016L420.144,607.016C465.936,607.016 485.232,584.552 485.232,553.448C485.232,530.984 474.864,516.584 456.432,509.096C474.576,501.896 484.368,488.36 484.368,465.896C484.368,434.216 465.072,412.616 419.28,412.616L333.744,412.616ZM351.024,522.92L421.008,522.92C440.88,522.92 450.96,531.56 450.96,547.976C450.96,563.816 441.456,573.32 421.008,573.32L354.768,573.32C352.464,573.32 351.024,572.456 351.024,570.152L351.024,522.92ZM351.024,449.48C351.024,447.176 352.464,446.024 354.768,446.024L420.432,446.024C441.168,446.024 450.096,456.104 450.096,471.368C450.096,487.208 440.304,494.696 420.144,494.696L351.024,494.696L351.024,449.48Z" style="fill:rgb(246,249,253);fill-rule:nonzero;"/>
                </g>
                <g transform="matrix(1.94974,0,0,1.94974,-425.573,-93.2507)">
                    <path d="M581.712,454.952C541.104,454.952 515.76,479.72 515.76,530.984C515.76,582.248 541.104,607.016 581.712,607.016L613.68,607.016C654,607.016 679.632,582.248 679.632,530.984C679.632,479.72 654,454.952 613.68,454.952L581.712,454.952ZM610.8,484.328C637.008,484.328 648.816,498.152 648.816,530.984C648.816,563.816 637.008,577.352 610.8,577.352L584.592,577.352C558.096,577.352 546.576,563.816 546.576,530.984C546.576,498.152 558.096,484.328 584.592,484.328L610.8,484.328Z" style="fill:rgb(246,249,253);fill-rule:nonzero;"/>
                </g>
                <g transform="matrix(0.637742,0,0,0.637742,358.604,603.4)">
                    <path d="M581.712,454.952C541.104,454.952 515.76,479.72 515.76,530.984C515.76,582.248 541.104,607.016 581.712,607.016L613.68,607.016C654,607.016 679.632,582.248 679.632,530.984C679.632,479.72 654,454.952 613.68,454.952L581.712,454.952Z" style="fill:rgb(240,80,37);fill-rule:nonzero;"/>
                </g>
                <g transform="matrix(1.94974,0,0,1.94974,-425.573,-93.2507)">
                    <path d="M757.104,454.952C727.152,454.952 715.92,468.776 715.92,499.304L715.92,607.016L746.448,607.016L746.448,503.912C746.448,490.664 752.496,484.328 766.032,484.328L819.6,484.328L819.6,454.952L757.104,454.952Z" style="fill:rgb(246,249,253);fill-rule:nonzero;"/>
                </g>
                <g transform="matrix(1.94974,0,0,1.94974,-425.573,-93.2507)">
                    <path d="M908.304,454.952C867.696,454.952 842.352,478.568 842.352,527.528C842.352,576.776 867.696,600.68 908.304,600.68L975.408,600.68L975.408,607.592C975.408,629.48 967.92,638.408 945.168,638.408L317.616,638.408L317.616,667.784L948.624,667.784C991.248,667.784 1006.22,650.792 1006.22,607.592L1006.22,520.04C1006.22,476.264 986.64,454.952 950.352,454.952L908.304,454.952ZM873.168,528.68C873.168,497.576 884.976,484.328 911.184,484.328L941.424,484.328C965.904,484.328 975.408,494.984 975.408,519.752L975.408,573.032L911.184,573.032C884.976,573.032 873.168,559.784 873.168,528.68Z" style="fill:rgb(246,249,253);fill-rule:nonzero;"/>
                </g>
                <g transform="matrix(0.66547,0,0,0.66547,761.693,590.785)">
                    <path d="M908.304,454.952C867.696,454.952 842.352,478.568 842.352,527.528C842.352,576.776 867.696,600.68 908.304,600.68L1006.22,600.68L1006.22,520.04C1006.22,476.264 986.64,454.952 950.352,454.952L908.304,454.952Z" style="fill:rgb(240,80,37);fill-rule:nonzero;"/>
                </g>
            </g>
        </g>
    </g>
</svg>
