<?xml version="1.0" encoding="UTF-8" standalone="no"?>
<!DOCTYPE svg PUBLIC "-//W3C//DTD SVG 1.1//EN" "http://www.w3.org/Graphics/SVG/1.1/DTD/svg11.dtd">
<svg width="100%" height="100%" viewBox="0 0 1080 410" version="1.1" xmlns="http://www.w3.org/2000/svg" xmlns:xlink="http://www.w3.org/1999/xlink" xml:space="preserve" xmlns:serif="http://www.serif.com/" style="fill-rule:evenodd;clip-rule:evenodd;stroke-linejoin:round;stroke-miterlimit:2;">
    <g id="Artboard1" transform="matrix(1,0,0,0.379352,0,0)">
        <rect x="0" y="0" width="1080" height="1080" style="fill:none;"/>
        <g transform="matrix(1,0,0,1,0,39.5411)">
            <g transform="matrix(2.0395,0,0,5.37627,-19.2519,-121.754)">
                <path d="M36.456,49L49.272,65.704L66.408,49L36.456,49ZM36.744,167.656L94.488,167.656L104.568,151.24L89.304,150.808L89.304,112.216L87,112.216L87,150.952L77.64,150.808L77.64,66.28L94.776,49L77.64,49L53.592,72.616L53.592,97.24L39.768,112.072L53.592,112.072L53.592,151.24L36.744,167.656ZM75.336,150.952L60.072,150.952L69.864,146.2L69.864,60.376L75.336,54.904L75.336,150.952Z" style="fill:rgb(72,92,106);fill-rule:nonzero;"/>
            </g>
            <g transform="matrix(2.0395,0,0,5.37627,-14.2519,-121.754)">
                <path d="M109.608,167.656L124.872,167.656L139.704,155.848L139.704,167.656L156.264,167.656L164.472,152.536L154.824,152.536L154.824,81.976L139.416,97.528L139.416,152.536L125.16,152.536L125.16,81.976L109.608,97.528L109.608,167.656Z" style="fill:rgb(72,92,106);fill-rule:nonzero;"/>
            </g>
            <g transform="matrix(2.0395,0,0,5.37627,-9.25189,-121.754)">
                <path d="M169.656,167.656L185.352,167.656L185.352,101.416L191.256,95.224L198.168,102.136L198.168,167.656L213.864,167.656L213.864,98.68L218.904,94.36L226.536,102.424L226.536,167.656L241.656,167.656L250.728,152.536L242.088,152.536L242.088,95.512L229.416,81.688L213.864,95.8L201.048,81.544L185.208,98.248L185.208,81.976L169.656,96.808L169.656,167.656Z" style="fill:rgb(72,92,106);fill-rule:nonzero;"/>
            </g>
            <g transform="matrix(2.0395,0,0,5.37627,-4.25189,-121.754)">
                <path d="M271.464,152.104L271.464,81.688L255.912,95.512L255.912,167.656L271.176,167.656L281.544,152.104L271.464,152.104Z" style="fill:rgb(72,92,106);fill-rule:nonzero;"/>
            </g>
            <g transform="matrix(2.0395,0,0,5.37627,0.748115,-121.754)">
                <path d="M286.728,167.656L302.28,167.656L302.28,104.296L312.504,94.792L319.272,101.56L319.272,167.656L334.68,167.656L342.744,152.392L334.248,152.392L334.248,94.216L323.016,81.688L302.28,101.128L302.28,81.832L286.728,97.24L286.728,167.656Z" style="fill:rgb(72,92,106);fill-rule:nonzero;"/>
            </g>
            <g transform="matrix(2.0395,0,0,5.37627,5.74811,-121.754)">
                <path d="M348.072,167.656L363.336,167.656L376.44,153.976L376.44,167.656L390.984,167.656L400.2,153.112L391.272,153.112L391.272,99.688L374.568,81.976L348.216,104.728L363.624,104.728L363.624,93.352L374.712,105.592L348.072,129.784L348.072,167.656ZM376.584,152.968L363.624,152.968L363.624,118.84L376.584,107.176L376.584,152.968Z" style="fill:rgb(72,92,106);fill-rule:nonzero;"/>
            </g>
            <g transform="matrix(2.0395,0,0,5.37627,10.7481,-121.754)">
                <path d="M405.384,167.656L421.368,167.656L429.864,152.536L420.936,152.536L420.936,104.296L430.152,96.376L430.152,118.984L444.408,106.888L444.408,81.544L420.936,101.272L420.936,82.12L405.384,97.528L405.384,167.656Z" style="fill:rgb(72,92,106);fill-rule:nonzero;"/>
            </g>
            <g transform="matrix(2.0395,0,0,5.37627,15.7481,-121.754)">
                <path d="M452.04,167.656L467.304,167.656L481.704,155.848L481.704,183.928L462.12,183.928L453.48,197.176L474.504,197.176L497.256,171.544L497.256,81.976L481.848,97.528L481.848,152.536L467.592,152.536L467.592,81.976L452.04,97.528L452.04,167.656Z" style="fill:rgb(72,92,106);fill-rule:nonzero;"/>
            </g>
        </g>
        <g>
            <g transform="matrix(2.0395,0,0,5.37627,-4.25189,-121.754)">
                <path d="M36.456,49L49.272,65.704L66.408,49L36.456,49ZM36.744,167.656L94.488,167.656L104.568,151.24L89.304,150.808L89.304,112.216L87,112.216L87,150.952L77.64,150.808L77.64,66.28L94.776,49L77.64,49L53.592,72.616L53.592,97.24L39.768,112.072L53.592,112.072L53.592,151.24L36.744,167.656ZM75.336,150.952L60.072,150.952L69.864,146.2L69.864,60.376L75.336,54.904L75.336,150.952Z" style="fill:rgb(234,244,244);fill-rule:nonzero;"/>
            </g>
            <g transform="matrix(2.0395,0,0,5.37627,-4.25189,-121.754)">
                <path d="M109.608,167.656L124.872,167.656L139.704,155.848L139.704,167.656L156.264,167.656L164.472,152.536L154.824,152.536L154.824,81.976L139.416,97.528L139.416,152.536L125.16,152.536L125.16,81.976L109.608,97.528L109.608,167.656Z" style="fill:rgb(234,244,244);fill-rule:nonzero;"/>
            </g>
            <g transform="matrix(2.0395,0,0,5.37627,-4.25189,-121.754)">
                <path d="M169.656,167.656L185.352,167.656L185.352,101.416L191.256,95.224L198.168,102.136L198.168,167.656L213.864,167.656L213.864,98.68L218.904,94.36L226.536,102.424L226.536,167.656L241.656,167.656L250.728,152.536L242.088,152.536L242.088,95.512L229.416,81.688L213.864,95.8L201.048,81.544L185.208,98.248L185.208,81.976L169.656,96.808L169.656,167.656Z" style="fill:rgb(234,244,244);fill-rule:nonzero;"/>
            </g>
            <g transform="matrix(2.0395,0,0,5.37627,-4.25189,-121.754)">
                <path d="M271.464,152.104L271.464,81.688L255.912,95.512L255.912,167.656L271.176,167.656L281.544,152.104L271.464,152.104Z" style="fill:rgb(234,244,244);fill-rule:nonzero;"/>
            </g>
            <g transform="matrix(2.0395,0,0,5.37627,-4.25189,-121.754)">
                <path d="M286.728,167.656L302.28,167.656L302.28,104.296L312.504,94.792L319.272,101.56L319.272,167.656L334.68,167.656L342.744,152.392L334.248,152.392L334.248,94.216L323.016,81.688L302.28,101.128L302.28,81.832L286.728,97.24L286.728,167.656Z" style="fill:rgb(234,244,244);fill-rule:nonzero;"/>
            </g>
            <g transform="matrix(2.0395,0,0,5.37627,-4.25189,-121.754)">
                <path d="M348.072,167.656L363.336,167.656L376.44,153.976L376.44,167.656L390.984,167.656L400.2,153.112L391.272,153.112L391.272,99.688L374.568,81.976L348.216,104.728L363.624,104.728L363.624,93.352L374.712,105.592L348.072,129.784L348.072,167.656ZM376.584,152.968L363.624,152.968L363.624,118.84L376.584,107.176L376.584,152.968Z" style="fill:rgb(234,244,244);fill-rule:nonzero;"/>
            </g>
            <g transform="matrix(2.0395,0,0,5.37627,-4.25189,-121.754)">
                <path d="M405.384,167.656L421.368,167.656L429.864,152.536L420.936,152.536L420.936,104.296L430.152,96.376L430.152,118.984L444.408,106.888L444.408,81.544L420.936,101.272L420.936,82.12L405.384,97.528L405.384,167.656Z" style="fill:rgb(234,244,244);fill-rule:nonzero;"/>
            </g>
            <g transform="matrix(2.0395,0,0,5.37627,-4.25189,-121.754)">
                <path d="M452.04,167.656L467.304,167.656L481.704,155.848L481.704,183.928L462.12,183.928L453.48,197.176L474.504,197.176L497.256,171.544L497.256,81.976L481.848,97.528L481.848,152.536L467.592,152.536L467.592,81.976L452.04,97.528L452.04,167.656Z" style="fill:rgb(234,244,244);fill-rule:nonzero;"/>
            </g>
        </g>
        <g transform="matrix(2.0395,0,0,5.37627,-4.25189,-121.754)">
            <path d="M255.912,80.968L271.464,67.72L271.464,49L255.912,63.112L255.912,80.968Z" style="fill:rgb(240,80,37);fill-rule:nonzero;"/>
        </g>
        <g transform="matrix(1.4352,0,0,3.7833,155.094,-18.2364)">
            <path d="M255.912,80.968L271.464,67.72L271.464,49L255.912,63.112L255.912,80.968Z" style="fill:rgb(255,109,61);fill-rule:nonzero;"/>
        </g>
        <g transform="matrix(0.920798,0,0,2.42729,290.736,69.8822)">
            <path d="M255.912,80.968L271.464,67.72L271.464,49L255.912,63.112L255.912,80.968Z" style="fill:rgb(255,151,99);fill-rule:nonzero;"/>
        </g>
    </g>
</svg>
