<?xml version="1.0" encoding="UTF-8" standalone="no"?>
<!DOCTYPE svg PUBLIC "-//W3C//DTD SVG 1.1//EN" "http://www.w3.org/Graphics/SVG/1.1/DTD/svg11.dtd">
<svg width="100%" height="100%" viewBox="0 0 3600 1249" version="1.1" xmlns="http://www.w3.org/2000/svg" xmlns:xlink="http://www.w3.org/1999/xlink" xml:space="preserve" xmlns:serif="http://www.serif.com/" style="fill-rule:evenodd;clip-rule:evenodd;stroke-linejoin:round;stroke-miterlimit:2;">
    <g id="Artboard1" transform="matrix(1,0,0,0.346944,0,0)">
        <rect x="0" y="0" width="3600" height="3600" style="fill:none;"/>
        <g transform="matrix(2.35344,0,0,6.78335,-816.56,-6344.64)">
            <g>
                <path d="M509.1,1038.9C511.2,1033.8 514.8,1030.2 520.2,1030.2C526.2,1030.2 530.7,1034.7 530.7,1041.9L530.7,1161.3C530.7,1188 545.7,1205.7 575.4,1205.7C602.4,1205.7 615.6,1191.3 623.4,1168.2L672.6,1038.9C674.4,1033.8 678.6,1030.2 683.7,1030.2C689.7,1030.2 693.9,1034.7 693.9,1041.9L693.9,1202.1L729.6,1202.1L729.6,1040.1C729.6,1013.7 714.6,996 684.6,996C657.6,996 644.7,1010.4 636.9,1033.5L587.7,1162.8C585.9,1167.9 581.7,1171.2 576.3,1171.2C570.3,1171.2 566.1,1166.7 566.1,1159.8L566.1,1040.1C566.1,1013.7 551.1,996 521.1,996C494.1,996 481.2,1010.4 473.4,1033.5L410.7,1202.1L448.5,1202.1L509.1,1038.9Z" style="fill:rgb(246,249,253);fill-rule:nonzero;"/>
                <path d="M828.6,1043.7C789,1043.7 773.4,1065.9 773.4,1095.9L773.4,1149.9C773.4,1179.9 789,1202.1 828.6,1202.1L925.5,1202.1L925.5,1171.2L828.6,1171.2C811.2,1171.2 804.3,1161.9 804.3,1149.3L804.3,1137.9L879.6,1137.9C918.6,1137.9 933.3,1121.4 933.3,1092.3C933.3,1061.7 917.4,1043.7 879.9,1043.7L828.6,1043.7ZM804.3,1096.2C804.3,1083.9 811.2,1074.3 828.6,1074.3L879.6,1074.3C895.2,1074.3 902.1,1082.1 902.1,1094.1C902.1,1105.8 895.8,1113 878.7,1113L804.3,1113L804.3,1096.2Z" style="fill:rgb(246,249,253);fill-rule:nonzero;"/>
                <path d="M1014.9,1043.7C983.7,1043.7 972,1058.1 972,1089.9L972,1202.1L1003.8,1202.1L1003.8,1094.7C1003.8,1080.9 1010.1,1074.3 1024.2,1074.3L1080,1074.3L1080,1043.7L1014.9,1043.7Z" style="fill:rgb(246,249,253);fill-rule:nonzero;"/>
                <path d="M1172.4,1043.7C1130.1,1043.7 1103.7,1069.5 1103.7,1122.9C1103.7,1176.3 1130.1,1202.1 1172.4,1202.1L1254,1202.1L1254,1171.2L1175.4,1171.2C1147.8,1171.2 1135.8,1157.1 1135.8,1122.9C1135.8,1088.7 1147.8,1074.3 1175.4,1074.3L1254,1074.3L1254,1043.7L1172.4,1043.7Z" style="fill:rgb(246,249,253);fill-rule:nonzero;"/>
                <path d="M1290.9,1043.7L1290.9,1139.7C1290.9,1176.3 1314.3,1202.1 1359.6,1202.1L1389,1202.1C1434.3,1202.1 1457.7,1176.3 1457.7,1139.7L1457.7,1043.7L1426.5,1043.7L1426.5,1138.5C1426.5,1157.1 1413,1171.2 1387.8,1171.2L1362,1171.2C1336.8,1171.2 1323,1157.1 1323,1138.5L1323,1043.7L1290.9,1043.7Z" style="fill:rgb(246,249,253);fill-rule:nonzero;"/>
                <path d="M1545,1043.7C1513.8,1043.7 1502.1,1058.1 1502.1,1089.9L1502.1,1202.1L1533.9,1202.1L1533.9,1094.7C1533.9,1080.9 1540.2,1074.3 1554.3,1074.3L1610.1,1074.3L1610.1,1043.7L1545,1043.7Z" style="fill:rgb(246,249,253);fill-rule:nonzero;"/>
                <path d="M1779,1043.7L1725.3,1168.2L1721.1,1168.2C1715.1,1168.2 1713.6,1167.3 1711.5,1161.6L1663.8,1043.7L1630.2,1043.7L1683.3,1176.9C1688.7,1190.7 1695,1196.4 1713,1196.4L1683.3,1265.7L1717.5,1265.7L1812.9,1043.7L1779,1043.7Z" style="fill:rgb(117,142,205);fill-rule:nonzero;"/>
            </g>
            <g transform="matrix(0.800391,0,0,0.800391,-217.478,436.839)">
                <path d="M1927.2,999.6C1868.4,999.6 1835.7,1032.9 1835.7,1101C1835.7,1168.8 1868.1,1202.1 1927.2,1202.1L2005.5,1202.1L2005.5,1166.7L1927.2,1166.7C1887.9,1166.7 1871.1,1147.2 1871.1,1101C1871.1,1054.5 1888.2,1035 1927.2,1035L2005.5,1035L2005.5,999.6L1927.2,999.6Z" style="fill:rgb(117,142,205);fill-rule:nonzero;"/>
                <path d="M2101.5,999.6C2056.5,999.6 2038.5,1024.2 2038.5,1057.8C2038.5,1086 2051.1,1116.3 2105.1,1116.3L2152.2,1116.3C2177.1,1116.3 2184,1128.3 2184,1141.5C2184,1156.2 2175.3,1166.7 2156.1,1166.7L2042.1,1166.7L2042.1,1202.1L2154.9,1202.1C2201.1,1202.1 2219.4,1176.9 2219.4,1142.7C2219.4,1113.6 2206.5,1083 2151.3,1083L2103.9,1083C2080.2,1083 2073.9,1071.3 2073.9,1059C2073.9,1044.9 2082,1035 2100.3,1035L2204.1,1035L2204.1,999.6L2101.5,999.6Z" style="fill:rgb(117,142,205);fill-rule:nonzero;"/>
                <path d="M2312.4,999.6C2267.4,999.6 2249.4,1024.2 2249.4,1057.8C2249.4,1086 2262,1116.3 2316,1116.3L2363.1,1116.3C2388,1116.3 2394.9,1128.3 2394.9,1141.5C2394.9,1156.2 2386.2,1166.7 2367,1166.7L2253,1166.7L2253,1202.1L2365.8,1202.1C2412,1202.1 2430.3,1176.9 2430.3,1142.7C2430.3,1113.6 2417.4,1083 2362.2,1083L2314.8,1083C2291.1,1083 2284.8,1071.3 2284.8,1059C2284.8,1044.9 2292.9,1035 2311.2,1035L2415,1035L2415,999.6L2312.4,999.6Z" style="fill:rgb(117,142,205);fill-rule:nonzero;"/>
            </g>
        </g>
    </g>
</svg>
