<?xml version="1.0" encoding="UTF-8" standalone="no"?>
<!DOCTYPE svg PUBLIC "-//W3C//DTD SVG 1.1//EN" "http://www.w3.org/Graphics/SVG/1.1/DTD/svg11.dtd">
<svg width="100%" height="100%" viewBox="0 0 1080 720" version="1.1" xmlns="http://www.w3.org/2000/svg" xmlns:xlink="http://www.w3.org/1999/xlink" xml:space="preserve" xmlns:serif="http://www.serif.com/" style="fill-rule:evenodd;clip-rule:evenodd;stroke-linejoin:round;stroke-miterlimit:2;">
    <g transform="matrix(1,0,0,1,0,-1139)">
        <g id="Artboard1" transform="matrix(1,0,0,0.666667,0,1139)">
            <rect x="0" y="0" width="1080" height="1080" style="fill:none;"/>
            <g>
                <g id="BI_1.svg" transform="matrix(0.493671,0,0,0.740506,540,476.032)">
                    <g transform="matrix(1,0,0,1,-790,-339)">
                        <g id="Artboard4" transform="matrix(1.37836,0,0,0.959915,-17164.7,-12141.9)">
                            <g>
                                <rect x="12453" y="12649" width="1146" height="706" style="fill:none;"/>
                                <g transform="matrix(0.7255,0,0,1.04176,12329.5,12001.9)">
                                    <g transform="matrix(0.625678,0,0,0.625678,-2630.25,-5585.32)">
                                        <rect x="4576.5" y="10795.8" width="16.992" height="97.2" style="fill:rgb(246,249,253);"/>
                                        <path d="M4633.82,10816.1C4633.82,10812.7 4635.83,10810.5 4639.72,10810.5C4642.74,10810.5 4644.47,10811.8 4645.77,10814.7L4674.14,10876.7C4678.17,10887.8 4684.36,10894.7 4697.9,10894.7C4712.87,10894.7 4720.22,10886.2 4720.22,10873.4L4720.22,10795.8L4703.08,10795.8L4703.08,10872.7C4703.08,10876 4700.92,10878.2 4697.32,10878.2C4694.15,10878.2 4692.28,10876.4 4691.13,10874.1L4662.76,10812.1C4658.73,10801 4652.68,10794.1 4639.14,10794.1C4624.02,10794.1 4616.82,10802.6 4616.82,10815.2L4616.82,10893L4633.82,10893L4633.82,10816.1Z" style="fill:rgb(246,249,253);fill-rule:nonzero;"/>
                                        <path d="M4760.39,10816.1C4760.39,10812.7 4762.41,10810.5 4766.3,10810.5C4769.32,10810.5 4771.05,10811.8 4772.34,10814.7L4800.71,10876.7C4804.74,10887.8 4810.94,10894.7 4824.47,10894.7C4839.45,10894.7 4846.79,10886.2 4846.79,10873.4L4846.79,10795.8L4829.66,10795.8L4829.66,10872.7C4829.66,10876 4827.5,10878.2 4823.9,10878.2C4820.73,10878.2 4818.86,10876.4 4817.7,10874.1L4789.34,10812.1C4785.3,10801 4779.26,10794.1 4765.72,10794.1C4750.6,10794.1 4743.4,10802.6 4743.4,10815.2L4743.4,10893L4760.39,10893L4760.39,10816.1Z" style="fill:rgb(246,249,253);fill-rule:nonzero;"/>
                                        <path d="M4910.44,10795.8C4882.22,10795.8 4866.52,10811.9 4866.52,10844.6C4866.52,10877.2 4882.07,10893 4910.44,10893L4923.69,10893C4952.06,10893 4967.61,10877.2 4967.61,10844.6C4967.61,10811.9 4951.91,10795.8 4923.69,10795.8L4910.44,10795.8ZM4923.69,10812.8C4942.41,10812.8 4950.47,10822.3 4950.47,10844.5C4950.47,10866.8 4942.41,10876 4923.69,10876L4910.44,10876C4891.58,10876 4883.51,10866.8 4883.51,10844.6C4883.51,10822.3 4891.72,10812.8 4910.44,10812.8L4923.69,10812.8Z" style="fill:rgb(246,249,253);fill-rule:nonzero;"/>
                                        <path d="M4972.94,10795.8L5005.48,10882.2C5009.08,10891.7 5016.42,10894.7 5025.93,10894.7C5036.01,10894.7 5042.63,10891.3 5046.23,10882.2L5080.5,10795.8L5061.64,10795.8L5030.68,10874C5029.67,10876.3 5028.23,10877.3 5025.93,10877.3C5023.62,10877.3 5022.04,10876.3 5021.18,10874L4991.66,10795.8L4972.94,10795.8Z" style="fill:rgb(246,249,253);fill-rule:nonzero;"/>
                                        <path d="M5124.14,10814.8C5125.14,10812.5 5126.73,10811.5 5129.03,10811.5C5131.34,10811.5 5132.92,10812.5 5133.78,10814.8L5163.3,10893L5182.17,10893L5149.34,10806.6C5145.88,10797.5 5139.26,10794.1 5129.18,10794.1C5118.95,10794.1 5112.33,10797.5 5108.73,10806.6L5074.6,10893L5093.32,10893L5124.14,10814.8Z" style="fill:rgb(246,249,253);fill-rule:nonzero;"/>
                                        <path d="M5179,10795.8L5179,10812.8L5207.37,10812.8L5207.37,10893L5224.5,10893L5224.5,10812.8L5252.87,10812.8L5252.87,10795.8L5179,10795.8Z" style="fill:rgb(246,249,253);fill-rule:nonzero;"/>
                                        <rect x="5268.86" y="10795.8" width="16.992" height="97.2" style="fill:rgb(246,249,253);"/>
                                        <path d="M5349.64,10795.8C5321.42,10795.8 5305.72,10811.9 5305.72,10844.6C5305.72,10877.2 5321.27,10893 5349.64,10893L5362.89,10893C5391.26,10893 5406.81,10877.2 5406.81,10844.6C5406.81,10811.9 5391.11,10795.8 5362.89,10795.8L5349.64,10795.8ZM5362.89,10812.8C5381.61,10812.8 5389.67,10822.3 5389.67,10844.5C5389.67,10866.8 5381.61,10876 5362.89,10876L5349.64,10876C5330.78,10876 5322.71,10866.8 5322.71,10844.6C5322.71,10822.3 5330.92,10812.8 5349.64,10812.8L5362.89,10812.8Z" style="fill:rgb(246,249,253);fill-rule:nonzero;"/>
                                        <path d="M5443.67,10816.1C5443.67,10812.7 5445.69,10810.5 5449.58,10810.5C5452.6,10810.5 5454.33,10811.8 5455.62,10814.7L5483.99,10876.7C5488.02,10887.8 5494.22,10894.7 5507.75,10894.7C5522.73,10894.7 5530.07,10886.2 5530.07,10873.4L5530.07,10795.8L5512.94,10795.8L5512.94,10872.7C5512.94,10876 5510.78,10878.2 5507.18,10878.2C5504.01,10878.2 5502.14,10876.4 5500.98,10874.1L5472.62,10812.1C5468.58,10801 5462.54,10794.1 5449,10794.1C5433.88,10794.1 5426.68,10802.6 5426.68,10815.2L5426.68,10893L5443.67,10893L5443.67,10816.1Z" style="fill:rgb(246,249,253);fill-rule:nonzero;"/>
                                        <path d="M5579.18,10795.8C5557.58,10795.8 5548.94,10807.6 5548.94,10823.7C5548.94,10837.3 5554.98,10851.8 5580.9,10851.8L5603.51,10851.8C5615.46,10851.8 5618.78,10857.6 5618.78,10863.9C5618.78,10871 5614.6,10876 5605.38,10876L5550.66,10876L5550.66,10893L5604.81,10893C5626.98,10893 5635.77,10880.9 5635.77,10864.5C5635.77,10850.5 5629.58,10835.8 5603.08,10835.8L5580.33,10835.8C5568.95,10835.8 5565.93,10830.2 5565.93,10824.3C5565.93,10817.6 5569.82,10812.8 5578.6,10812.8L5628.42,10812.8L5628.42,10795.8L5579.18,10795.8Z" style="fill:rgb(246,249,253);fill-rule:nonzero;"/>
                                    </g>
                                    <g transform="matrix(0.637742,0,0,0.637742,348.116,620.42)">
                                        <path d="M581.712,454.952C541.104,454.952 515.76,479.72 515.76,530.984C515.76,582.248 541.104,607.016 581.712,607.016L613.68,607.016C654,607.016 679.632,582.248 679.632,530.984C679.632,479.72 654,454.952 613.68,454.952L581.712,454.952Z" style="fill:rgb(246,249,253);fill-rule:nonzero;"/>
                                    </g>
                                    <g transform="matrix(3.29691,0,0,3.29691,-34449.7,-34401.7)">
                                        <path d="M10519.8,10676.8L10570.6,10676.8C10593.5,10676.8 10603.2,10687.6 10603.2,10703.4C10603.2,10714.7 10598.3,10721.4 10589.2,10725C10598.4,10728.8 10603.6,10736 10603.6,10747.2C10603.6,10762.8 10594,10774 10571.1,10774L10527.9,10774C10522.4,10774 10519.8,10771.4 10519.8,10766.1L10519.8,10676.8ZM10536.5,10695.2L10536.5,10717.8L10571.1,10717.8C10581.2,10717.8 10586,10714.1 10586,10706.2C10586,10698.6 10581.6,10693.5 10571.2,10693.5L10538.4,10693.5C10537.2,10693.5 10536.5,10694.1 10536.5,10695.2ZM10536.5,10732L10536.5,10755.6C10536.5,10756.7 10537.2,10757.2 10538.4,10757.2L10571.5,10757.2C10581.7,10757.2 10586.5,10752.4 10586.5,10744.5C10586.5,10736.3 10581.4,10732 10571.5,10732L10536.5,10732Z" style="fill:rgb(246,249,253);"/>
                                    </g>
                                    <g transform="matrix(3.29691,0,0,3.29691,-34449.7,-34511.8)">
                                        <path d="M10928.5,10693.5L10519.8,10693.5L10519.8,10684.7C10519.8,10679.4 10522.4,10676.8 10527.9,10676.8L10929.8,10676.8C10950.2,10676.8 10960.7,10687.6 10960.7,10708.3L10960.7,10810C10960.7,10830.7 10950.2,10841.4 10929.8,10841.4L10789.6,10841.4L10789.6,10824.1L10928.5,10824.1C10938.1,10824.1 10943.7,10819.2 10943.7,10808L10943.7,10709.5C10943.7,10698.5 10938.1,10693.5 10928.5,10693.5Z" style="fill:rgb(246,249,253);"/>
                                    </g>
                                    <g transform="matrix(3.29691,0,0,3.29691,-34449.7,-34401.7)">
                                        <path d="M10663.7,10676.8C10635.4,10676.8 10619.7,10692.9 10619.7,10725.6C10619.7,10758.2 10635.3,10774 10663.7,10774L10676.9,10774C10705.3,10774 10720.8,10758.2 10720.8,10725.6C10720.8,10692.9 10705.1,10676.8 10676.9,10676.8L10663.7,10676.8ZM10676.9,10693.8C10695.6,10693.8 10703.7,10703.3 10703.7,10725.5C10703.7,10747.8 10695.6,10757 10676.9,10757L10663.7,10757C10644.8,10757 10636.7,10747.8 10636.7,10725.6C10636.7,10703.3 10644.9,10693.8 10663.7,10693.8L10676.9,10693.8Z" style="fill:rgb(246,249,253);fill-rule:nonzero;"/>
                                    </g>
                                    <g transform="matrix(3.29691,0,0,3.29691,-34449.7,-34401.7)">
                                        <path d="M10740.6,10676.8L10740.6,10693.8L10793.8,10693.8C10803.2,10693.8 10807.4,10699.7 10807.4,10706.6C10807.4,10713.5 10803.5,10720.2 10793.8,10720.2L10756,10720.2C10745.3,10720.2 10740.7,10724.6 10740.7,10735.6L10740.7,10774L10757.7,10774L10757.7,10738.9C10757.7,10737.1 10758.6,10736.4 10760.1,10736.4L10785.5,10736.4L10807.7,10774L10826.5,10774L10803.9,10735.1C10818.8,10731 10824.5,10718 10824.5,10705.9C10824.5,10690.3 10815.2,10676.8 10793.3,10676.8L10740.6,10676.8Z" style="fill:rgb(246,249,253);fill-rule:nonzero;"/>
                                    </g>
                                    <g transform="matrix(3.29691,0,0,3.29691,-34449.7,-34401.7)">
                                        <path d="M10881.8,10676.8C10853.6,10676.8 10837.9,10692.8 10837.9,10725.5C10837.9,10758 10853.5,10774 10881.8,10774L10896.8,10774C10918.5,10774 10927,10760.6 10927,10743.6C10927,10726.8 10918.5,10716.1 10901.3,10716.1L10877.9,10716.1L10877.9,10731L10899.5,10731C10907.5,10731 10911.5,10735.6 10911.5,10743.3C10911.5,10751.3 10907.5,10757 10898,10757L10881.8,10757C10863,10757 10854.9,10747.7 10854.9,10725.5C10854.9,10703.2 10863.1,10693.8 10881.8,10693.8L10921.9,10693.8L10921.9,10676.8L10881.8,10676.8Z" style="fill:rgb(246,249,253);fill-rule:nonzero;"/>
                                    </g>
                                    <g transform="matrix(2.36671e-16,-3.86513,3.86513,2.36671e-16,-40085.9,42801.5)">
                                        <path d="M10775.8,10620C10760.8,10620 10755.2,10626.9 10755.2,10642.2L10755.2,10696L10769.9,10695.7L10769.9,10644.2C10769.9,10637.6 10773,10634.4 10779.7,10634.4L10806.5,10634.4L10806.3,10620L10775.8,10620Z" style="fill:rgb(246,249,253);fill-rule:nonzero;"/>
                                    </g>
                                </g>
                            </g>
                        </g>
                    </g>
                </g>
                <g transform="matrix(1.10118,-0.270418,0.180279,1.65177,-697.749,-1843.25)">
                    <path d="M529.766,1703.62C529.766,1704.37 529.719,1705.52 529.625,1707.06C529.625,1707.16 529.672,1707.23 529.766,1707.27C529.859,1707.37 529.93,1707.41 529.977,1707.41C529.93,1709.38 529.813,1712.38 529.625,1716.41C527.375,1716.51 523.977,1716.65 519.43,1716.84L519.43,1715.99C516.945,1710.18 513.219,1701.48 508.25,1689.91C508.297,1695.81 508.414,1704.67 508.602,1716.48C506.492,1716.62 503.328,1716.81 499.109,1717.05C499.016,1717.05 498.945,1717.02 498.898,1716.98C498.805,1716.93 498.758,1716.88 498.758,1716.84C498.711,1711.12 498.594,1702.59 498.406,1691.24C498.406,1691.1 498.383,1690.98 498.336,1690.89C498.242,1690.84 498.195,1690.82 498.195,1690.82L498.195,1681.96C498.195,1680.56 498.219,1679.83 498.266,1679.78C498.266,1679.03 498.242,1677.88 498.195,1676.34C498.195,1676.24 498.172,1676.15 498.125,1676.06C498.031,1676.01 497.938,1675.98 497.844,1675.98C497.844,1673.97 497.82,1670.97 497.773,1666.98C500.07,1666.8 503.516,1666.54 508.109,1666.21L508.109,1666.98C508.25,1666.94 508.438,1666.87 508.672,1666.77C509.984,1670.01 511.953,1674.88 514.578,1681.4C514.813,1681.68 515.117,1682.15 515.492,1682.81C515.82,1683.65 516.336,1684.96 517.039,1686.74C517.742,1688.38 518.82,1690.89 520.273,1694.27C520.508,1688.08 520.836,1678.82 521.258,1666.49C523.367,1666.49 526.531,1666.47 530.75,1666.42C530.844,1666.42 530.914,1666.44 530.961,1666.49C531.008,1666.54 531.031,1666.61 531.031,1666.7C530.844,1672.38 530.563,1680.88 530.188,1692.23C530.188,1692.37 530.234,1692.46 530.328,1692.51C530.375,1692.6 530.398,1692.65 530.398,1692.65C530.445,1692.65 530.445,1693.31 530.398,1694.62C530.352,1695.98 530.281,1697.41 530.188,1698.91C530.094,1700.12 530.023,1701.2 529.977,1702.14C529.883,1703.08 529.813,1703.57 529.766,1703.62Z" style="fill:rgb(240,80,37);fill-rule:nonzero;"/>
                    <path d="M552.266,1677.11C550.25,1679.78 548.398,1682.17 546.711,1684.28C545.07,1686.44 544.227,1687.54 544.18,1687.59C543.898,1687.82 543.781,1688.01 543.828,1688.15C543.875,1688.29 544.18,1688.66 544.742,1689.27C544.836,1689.37 545.492,1690.33 546.711,1692.16C547.977,1693.94 549.383,1695.98 550.93,1698.27C551.727,1699.44 552.547,1700.64 553.391,1701.86C554.234,1703.08 554.984,1704.2 555.641,1705.23C557.703,1702.56 559.555,1700.15 561.195,1697.99C562.883,1695.88 563.727,1694.81 563.727,1694.76C564.055,1694.52 564.195,1694.34 564.148,1694.19C564.102,1694.06 563.797,1693.68 563.234,1693.07C563.141,1692.98 562.484,1692.02 561.266,1690.19C560,1688.41 558.594,1686.39 557.047,1684.14C556.25,1682.92 555.43,1681.7 554.586,1680.48C553.742,1679.27 552.969,1678.14 552.266,1677.11ZM576.102,1693.91C576.055,1693.91 576.008,1693.94 575.961,1693.98L575.75,1693.98C575.656,1694.03 575.563,1694.08 575.469,1694.12C575.422,1694.12 575.398,1694.17 575.398,1694.27C575.398,1694.36 575.469,1694.5 575.609,1694.69C575.703,1694.88 575.75,1694.97 575.75,1694.97C572.656,1699.09 568.016,1705.28 561.828,1713.53C561.875,1713.58 561.898,1713.62 561.898,1713.67C561.945,1713.72 561.992,1713.77 562.039,1713.81C562.086,1713.86 562.086,1713.91 562.039,1713.95C562.039,1714.05 562.016,1714.09 561.969,1714.09C561.828,1714.23 561.641,1714.4 561.406,1714.59C561.172,1714.77 560.891,1714.98 560.563,1715.22C560,1716.02 559.109,1717.19 557.891,1718.73C557.891,1718.73 557.844,1718.81 557.75,1718.94C557.656,1719.09 557.539,1719.16 557.398,1719.16L556.695,1719.16C556.273,1719.16 555.734,1719.13 555.078,1719.09C554.75,1719.27 554.492,1719.41 554.305,1719.51C554.117,1719.6 554,1719.65 553.953,1719.65C553.906,1719.6 553.859,1719.53 553.813,1719.44C553.719,1719.34 553.625,1719.2 553.531,1719.02C551.844,1718.97 550.133,1718.92 548.398,1718.88C546.617,1718.78 545.727,1718.73 545.727,1718.73C545.68,1718.5 545.633,1718.36 545.586,1718.31L545.586,1718.24C545.586,1718.24 545.938,1717.77 546.641,1716.84C547.344,1715.9 548.258,1714.7 549.383,1713.25C548.68,1712.31 547.484,1710.69 545.797,1708.4C544.156,1706.15 542.398,1703.76 540.523,1701.23C538.32,1698.18 536.305,1695.39 534.477,1692.86C532.602,1690.33 531.664,1689.06 531.664,1689.06C531.664,1689.06 531.594,1689.02 531.453,1688.92C531.359,1688.88 531.336,1688.83 531.383,1688.78C531.383,1688.69 531.477,1688.59 531.664,1688.5C531.711,1688.5 531.758,1688.48 531.805,1688.43L532.016,1688.43C532.109,1688.38 532.18,1688.34 532.227,1688.29C532.32,1688.29 532.367,1688.24 532.367,1688.15C532.367,1688.06 532.297,1687.91 532.156,1687.73C532.063,1687.54 532.016,1687.44 532.016,1687.44C535.109,1683.32 539.75,1677.13 545.938,1668.88C545.891,1668.84 545.844,1668.79 545.797,1668.74C545.797,1668.69 545.773,1668.65 545.727,1668.6C545.68,1668.56 545.656,1668.48 545.656,1668.39C545.703,1668.34 545.75,1668.3 545.797,1668.25C545.938,1668.16 546.125,1668.02 546.359,1667.83C546.594,1667.64 546.875,1667.43 547.203,1667.19C547.766,1666.4 548.633,1665.2 549.805,1663.61C549.805,1663.61 549.875,1663.56 550.016,1663.47C550.109,1663.33 550.227,1663.26 550.367,1663.26L551.07,1663.26C551.492,1663.26 552.031,1663.28 552.688,1663.33C553.016,1663.14 553.273,1663 553.461,1662.91C553.602,1662.81 553.719,1662.77 553.813,1662.77C553.859,1662.81 553.906,1662.88 553.953,1662.98C554.047,1663.07 554.141,1663.21 554.234,1663.4C555.922,1663.44 557.633,1663.49 559.367,1663.54C561.148,1663.59 562.039,1663.61 562.039,1663.61C562.086,1663.89 562.109,1664.06 562.109,1664.1C562.156,1664.15 562.18,1664.17 562.18,1664.17C562.18,1664.17 561.828,1664.64 561.125,1665.58C560.422,1666.52 559.508,1667.71 558.383,1669.16C559.273,1670.34 560.82,1672.44 563.023,1675.49C565.273,1678.54 567.477,1681.52 569.633,1684.42C571.367,1686.86 572.867,1688.94 574.133,1690.68C575.445,1692.46 576.102,1693.35 576.102,1693.35C576.148,1693.35 576.242,1693.4 576.383,1693.49C576.43,1693.54 576.453,1693.56 576.453,1693.56C576.453,1693.7 576.336,1693.82 576.102,1693.91Z" style="fill:rgb(240,80,37);fill-rule:nonzero;"/>
                    <path d="M642.898,1665.44C642.945,1665.44 642.969,1665.46 642.969,1665.51C643.016,1665.56 643.016,1665.58 642.969,1665.58C641.938,1667.59 640.414,1670.57 638.398,1674.51C638.352,1674.6 638.281,1674.67 638.188,1674.72C638.141,1674.77 638.07,1674.79 637.977,1674.79L634.109,1674.79C633.875,1674.84 633.547,1674.91 633.125,1675C632.563,1675 631.695,1674.95 630.523,1674.86L602.539,1674.86C602.492,1674.86 602.281,1674.88 601.906,1674.93C601.578,1674.98 601.414,1675.05 601.414,1675.14C601.367,1675.42 601.32,1675.8 601.273,1676.27C601.227,1676.73 601.18,1677.06 601.133,1677.25C601.133,1677.53 601.086,1677.69 600.992,1677.74C600.852,1677.84 600.781,1677.88 600.781,1677.88C600.594,1686.56 600.336,1699.56 600.008,1716.91C597.711,1716.95 594.313,1717.05 589.813,1717.19C589.906,1711.23 590.07,1702.33 590.305,1690.47C590.305,1690.33 590.258,1690.23 590.164,1690.19C590.07,1690.09 590.023,1690.05 590.023,1690.05C590.023,1690.05 590.047,1689.58 590.094,1688.64C590.094,1687.66 590.117,1686.56 590.164,1685.34C590.211,1683.79 590.258,1682.31 590.305,1680.91C590.352,1679.5 590.422,1678.8 590.516,1678.8L590.516,1675.14C590.516,1675.05 590.281,1674.98 589.813,1674.93C589.344,1674.84 589.063,1674.79 588.969,1674.79L573.43,1674.79C573.57,1672.73 573.758,1669.61 573.992,1665.44L574.766,1665.44C574.766,1665.44 575.398,1665.41 576.664,1665.37C577.93,1665.32 578.633,1665.34 578.773,1665.44C578.867,1665.53 579.031,1665.56 579.266,1665.51C579.5,1665.46 579.617,1665.44 579.617,1665.44C591.617,1665.48 609.641,1665.56 633.688,1665.65L633.898,1665.65C633.945,1665.65 634.016,1665.62 634.109,1665.58C634.203,1665.58 634.391,1665.53 634.672,1665.44L641.141,1665.44C641.141,1665.39 641.164,1665.32 641.211,1665.23C641.258,1665.18 641.281,1665.16 641.281,1665.16C641.656,1665.2 642.195,1665.3 642.898,1665.44Z" style="fill:rgb(240,80,37);fill-rule:nonzero;"/>
                </g>
                <g transform="matrix(1.07873,0,0,1.6181,72.4444,-1974.68)">
                    <path d="M213.778,1695.49L213.778,1702.83L236.53,1702.83C240.706,1702.83 242.362,1705.14 242.362,1708.09L242.362,1710.97L224.29,1710.97C214.93,1710.97 211.474,1715 211.474,1721.91C211.474,1729.11 215.218,1733.5 224.218,1733.5L242.002,1733.5C248.41,1733.5 249.85,1731.34 249.85,1725.87L249.85,1708.02C249.85,1700.82 246.106,1695.49 236.602,1695.49L213.778,1695.49ZM240.274,1726.09L224.29,1726.09C220.474,1726.09 218.962,1724.29 218.962,1721.48C218.962,1718.67 220.402,1717.02 224.434,1717.02L242.362,1717.02L242.362,1724.14C242.362,1725.51 241.786,1726.09 240.274,1726.09Z" style="fill:rgb(246,249,253);fill-rule:nonzero;"/>
                    <path d="M265.978,1695.49C262.162,1695.49 260.65,1696.93 260.65,1701.39L260.65,1733.5L268.282,1733.5L268.282,1703.91C268.282,1703.19 268.57,1702.83 269.218,1702.83L281.674,1702.83C289.666,1702.83 293.122,1706.14 293.122,1712.12L293.122,1733.5L300.826,1733.5L300.826,1712.12C300.826,1701.61 294.562,1695.49 281.674,1695.49L265.978,1695.49Z" style="fill:rgb(246,249,253);fill-rule:nonzero;"/>
                    <path d="M332.29,1695.49L332.29,1702.83L355.042,1702.83C359.218,1702.83 360.874,1705.14 360.874,1708.09L360.874,1710.97L342.802,1710.97C333.442,1710.97 329.986,1715 329.986,1721.91C329.986,1729.11 333.73,1733.5 342.73,1733.5L360.514,1733.5C366.922,1733.5 368.362,1731.34 368.362,1725.87L368.362,1708.02C368.362,1700.82 364.618,1695.49 355.114,1695.49L332.29,1695.49ZM358.786,1726.09L342.802,1726.09C338.986,1726.09 337.474,1724.29 337.474,1721.48C337.474,1718.67 338.914,1717.02 342.946,1717.02L360.874,1717.02L360.874,1724.14C360.874,1725.51 360.298,1726.09 358.786,1726.09Z" style="fill:rgb(246,249,253);fill-rule:nonzero;"/>
                    <path d="M379.162,1695.49L379.162,1733.5L386.794,1733.5L386.794,1695.49L379.162,1695.49ZM379.162,1681.16L379.162,1690.02L386.866,1690.02L386.866,1681.16L379.162,1681.16Z" style="fill:rgb(246,249,253);fill-rule:nonzero;"/>
                    <path d="M431.65,1695.49C421.498,1695.49 415.162,1701.68 415.162,1714.5C415.162,1727.31 421.498,1733.5 431.65,1733.5L451.234,1733.5L451.234,1726.09L432.37,1726.09C425.746,1726.09 422.866,1722.7 422.866,1714.5C422.866,1706.29 425.746,1702.83 432.37,1702.83L451.234,1702.83L451.234,1695.49L431.65,1695.49Z" style="fill:rgb(246,249,253);fill-rule:nonzero;"/>
                    <path d="M474.994,1695.49C464.842,1695.49 458.506,1701.68 458.506,1714.5C458.506,1727.31 464.842,1733.5 474.994,1733.5L482.986,1733.5C493.066,1733.5 499.474,1727.31 499.474,1714.5C499.474,1701.68 493.066,1695.49 482.986,1695.49L474.994,1695.49ZM482.266,1702.83C488.818,1702.83 491.77,1706.29 491.77,1714.5C491.77,1722.7 488.818,1726.09 482.266,1726.09L475.714,1726.09C469.09,1726.09 466.21,1722.7 466.21,1714.5C466.21,1706.29 469.09,1702.83 475.714,1702.83L482.266,1702.83Z" style="fill:rgb(246,249,253);fill-rule:nonzero;"/>
                    <path d="M513.946,1695.49C510.13,1695.49 508.618,1696.93 508.618,1701.39L508.618,1733.5L516.25,1733.5L516.25,1703.91C516.25,1703.19 516.538,1702.83 517.186,1702.83L536.482,1702.83L536.482,1733.5L544.186,1733.5L544.186,1702.83L553.114,1702.83C561.106,1702.83 564.562,1706.14 564.562,1712.12L564.562,1733.5L572.266,1733.5L572.266,1712.12C572.266,1701.61 565.93,1695.49 553.042,1695.49L513.946,1695.49Z" style="fill:rgb(246,249,253);fill-rule:nonzero;"/>
                    <path d="M596.746,1695.49C587.602,1695.49 582.778,1700.82 582.778,1711.76L582.778,1748.77L590.41,1748.77L590.41,1733.5L607.258,1733.5C617.338,1733.5 623.674,1727.31 623.674,1714.5C623.674,1701.68 617.338,1695.49 607.258,1695.49L596.746,1695.49ZM590.41,1712.12C590.41,1705.57 592.786,1702.83 598.978,1702.83L606.466,1702.83C613.09,1702.83 615.97,1706.29 615.97,1714.5C615.97,1722.7 613.09,1726.09 606.466,1726.09L590.41,1726.09L590.41,1712.12Z" style="fill:rgb(246,249,253);fill-rule:nonzero;"/>
                    <path d="M634.33,1695.49L634.33,1702.83L657.082,1702.83C661.258,1702.83 662.914,1705.14 662.914,1708.09L662.914,1710.97L644.842,1710.97C635.482,1710.97 632.026,1715 632.026,1721.91C632.026,1729.11 635.77,1733.5 644.77,1733.5L662.554,1733.5C668.962,1733.5 670.402,1731.34 670.402,1725.87L670.402,1708.02C670.402,1700.82 666.658,1695.49 657.154,1695.49L634.33,1695.49ZM660.826,1726.09L644.842,1726.09C641.026,1726.09 639.514,1724.29 639.514,1721.48C639.514,1718.67 640.954,1717.02 644.986,1717.02L662.914,1717.02L662.914,1724.14C662.914,1725.51 662.338,1726.09 660.826,1726.09Z" style="fill:rgb(246,249,253);fill-rule:nonzero;"/>
                    <path d="M686.53,1695.49C682.714,1695.49 681.202,1696.93 681.202,1701.39L681.202,1733.5L688.834,1733.5L688.834,1703.91C688.834,1703.19 689.122,1702.83 689.77,1702.83L702.226,1702.83C710.218,1702.83 713.674,1706.14 713.674,1712.12L713.674,1733.5L721.378,1733.5L721.378,1712.12C721.378,1701.61 715.114,1695.49 702.226,1695.49L686.53,1695.49Z" style="fill:rgb(246,249,253);fill-rule:nonzero;"/>
                    <path d="M762.202,1695.49L749.314,1725.37L748.306,1725.37C746.866,1725.37 746.506,1725.15 746.002,1723.78L734.554,1695.49L726.49,1695.49L739.234,1727.46C740.53,1730.77 742.042,1732.14 746.362,1732.14L739.234,1748.77L747.442,1748.77L770.338,1695.49L762.202,1695.49Z" style="fill:rgb(246,249,253);fill-rule:nonzero;"/>
                </g>
            </g>
        </g>
    </g>
</svg>
