<?xml version="1.0" encoding="UTF-8" standalone="no"?>
<!DOCTYPE svg PUBLIC "-//W3C//DTD SVG 1.1//EN" "http://www.w3.org/Graphics/SVG/1.1/DTD/svg11.dtd">
<svg width="100%" height="100%" viewBox="0 0 1080 373" version="1.1" xmlns="http://www.w3.org/2000/svg" xmlns:xlink="http://www.w3.org/1999/xlink" xml:space="preserve" xmlns:serif="http://www.serif.com/" style="fill-rule:evenodd;clip-rule:evenodd;stroke-linejoin:round;stroke-miterlimit:2;">
    <g id="Artboard1" transform="matrix(1,0,0,0.34537,0,0)">
        <rect x="0" y="0" width="1080" height="1080" style="fill:none;"/>
        <g transform="matrix(1.93995,0,0,5.61702,-507.574,-2403.08)">
            <g transform="matrix(1,0,0,1,181.088,252.496)">
                <path d="M99.856,215.36L107.344,215.36L107.344,306.08C107.344,309.248 108.448,311.936 110.656,314.144C112.864,316.352 115.552,317.456 118.72,317.456L118.72,324.944C116.128,324.944 113.68,324.464 111.376,323.504C109.072,322.544 107.08,321.2 105.4,319.472C103.72,317.744 102.376,315.728 101.368,313.424C100.36,311.12 99.856,308.672 99.856,306.08L99.856,215.36Z" style="fill:rgb(246,249,253);fill-rule:nonzero;"/>
            </g>
            <g transform="matrix(1,0,0,1,181.088,252.496)">
                <path d="M155.296,324.8C151.36,324.8 147.688,324.056 144.28,322.568C140.872,321.08 137.896,319.064 135.352,316.52C132.808,313.976 130.792,311 129.304,307.592C127.816,304.184 127.072,300.512 127.072,296.576L127.072,251.216L134.56,251.216L134.56,296.576C134.56,299.456 135.088,302.168 136.144,304.712C137.2,307.256 138.664,309.464 140.536,311.336C142.408,313.208 144.616,314.672 147.16,315.728C149.704,316.784 152.416,317.312 155.296,317.312C158.176,317.312 160.864,316.784 163.36,315.728C165.856,314.672 168.04,313.208 169.912,311.336C171.784,309.464 173.248,307.256 174.304,304.712C175.36,302.168 175.888,299.456 175.888,296.576L175.888,251.216L183.52,251.216L183.52,296.576C183.52,300.512 182.776,304.184 181.288,307.592C179.8,311 177.784,313.976 175.24,316.52C172.696,319.064 169.696,321.08 166.24,322.568C162.784,324.056 159.136,324.8 155.296,324.8Z" style="fill:rgb(246,249,253);fill-rule:nonzero;"/>
            </g>
            <g transform="matrix(1,0,0,1,181.088,252.496)">
                <path d="M224.272,249.632C229.456,249.632 234.208,250.928 238.528,253.52C242.848,256.112 246.256,259.568 248.752,263.888C251.248,259.568 254.632,256.112 258.904,253.52C263.176,250.928 267.952,249.632 273.232,249.632C277.072,249.632 280.72,250.376 284.176,251.864C287.632,253.352 290.632,255.368 293.176,257.912C295.72,260.456 297.736,263.456 299.224,266.912C300.712,270.368 301.456,274.016 301.456,277.856L301.456,323.36L293.824,323.36L293.824,277.856C293.824,274.976 293.296,272.288 292.24,269.792C291.184,267.296 289.72,265.112 287.848,263.24C285.976,261.368 283.792,259.904 281.296,258.848C278.8,257.792 276.112,257.264 273.232,257.264C270.352,257.264 267.64,257.792 265.096,258.848C262.552,259.904 260.344,261.368 258.472,263.24C256.6,265.112 255.136,267.296 254.08,269.792C253.024,272.288 252.496,274.976 252.496,277.856L252.496,323.36L245.008,323.36L245.008,277.856C245.008,274.976 244.456,272.288 243.352,269.792C242.248,267.296 240.76,265.112 238.888,263.24C237.016,261.368 234.832,259.904 232.336,258.848C229.84,257.792 227.152,257.264 224.272,257.264C221.392,257.264 218.68,257.792 216.136,258.848C213.592,259.904 211.384,261.368 209.512,263.24C207.64,265.112 206.176,267.296 205.12,269.792C204.064,272.288 203.536,274.976 203.536,277.856L203.536,323.36L196.048,323.36L196.048,277.856C196.048,274.016 196.792,270.368 198.28,266.912C199.768,263.456 201.784,260.456 204.328,257.912C206.872,255.368 209.848,253.352 213.256,251.864C216.664,250.376 220.336,249.632 224.272,249.632Z" style="fill:rgb(246,249,253);fill-rule:nonzero;"/>
            </g>
            <g transform="matrix(1,0,0,1,181.088,252.496)">
                <path d="M316.144,251.36L323.632,251.36L323.632,323.36L316.144,323.36L316.144,251.36ZM316.144,215.36L323.632,215.36L323.632,227.6L316.144,227.6L316.144,215.36Z" style="fill:rgb(246,249,253);fill-rule:nonzero;"/>
            </g>
            <g transform="matrix(1,0,0,1,181.088,252.496)">
                <path d="M375.184,249.632C380.368,249.632 385.24,250.616 389.8,252.584C394.36,254.552 398.344,257.24 401.752,260.648C405.16,264.056 407.848,268.064 409.816,272.672C411.784,277.28 412.768,282.176 412.768,287.36L412.768,323.36L405.28,323.36L405.28,287.36C405.28,283.232 404.488,279.32 402.904,275.624C401.32,271.928 399.184,268.736 396.496,266.048C393.808,263.36 390.616,261.224 386.92,259.64C383.224,258.056 379.312,257.264 375.184,257.264C371.056,257.264 367.168,258.056 363.52,259.64C359.872,261.224 356.68,263.36 353.944,266.048C351.208,268.736 349.048,271.928 347.464,275.624C345.88,279.32 345.088,283.232 345.088,287.36L345.088,323.36L337.6,323.36L337.6,287.36C337.6,282.176 338.584,277.28 340.552,272.672C342.52,268.064 345.208,264.056 348.616,260.648C352.024,257.24 356.008,254.552 360.568,252.584C365.128,250.616 370,249.632 375.184,249.632Z" style="fill:rgb(246,249,253);fill-rule:nonzero;"/>
            </g>
            <g transform="matrix(1,0,0,1,181.088,252.496)">
                <path d="M461.728,249.488C466.912,249.488 471.808,250.472 476.416,252.44C481.024,254.408 485.032,257.096 488.44,260.504C491.848,263.912 494.536,267.92 496.504,272.528C498.472,277.136 499.456,282.032 499.456,287.216L499.456,323.216L491.824,323.216L491.824,309.824C488.464,314.432 484.168,318.08 478.936,320.768C473.704,323.456 467.968,324.8 461.728,324.8C456.544,324.8 451.672,323.816 447.112,321.848C442.552,319.88 438.568,317.192 435.16,313.784C431.752,310.376 429.064,306.392 427.096,301.832C425.128,297.272 424.144,292.4 424.144,287.216C424.144,282.032 425.128,277.136 427.096,272.528C429.064,267.92 431.752,263.912 435.16,260.504C438.568,257.096 442.552,254.408 447.112,252.44C451.672,250.472 456.544,249.488 461.728,249.488ZM461.728,257.12C457.6,257.12 453.712,257.912 450.064,259.496C446.416,261.08 443.224,263.216 440.488,265.904C437.752,268.592 435.592,271.784 434.008,275.48C432.424,279.176 431.632,283.088 431.632,287.216C431.632,291.344 432.424,295.232 434.008,298.88C435.592,302.528 437.752,305.72 440.488,308.456C443.224,311.192 446.416,313.352 450.064,314.936C453.712,316.52 457.6,317.312 461.728,317.312C465.856,317.312 469.768,316.52 473.464,314.936C477.16,313.352 480.352,311.192 483.04,308.456C485.728,305.72 487.864,302.528 489.448,298.88C491.032,295.232 491.824,291.344 491.824,287.216C491.824,283.088 491.032,279.176 489.448,275.48C487.864,271.784 485.728,268.592 483.04,265.904C480.352,263.216 477.16,261.08 473.464,259.496C469.768,257.912 465.856,257.12 461.728,257.12Z" style="fill:rgb(246,249,253);fill-rule:nonzero;"/>
            </g>
            <g transform="matrix(1,0,0,1,181.088,252.496)">
                <path d="M519.184,323.36L511.696,323.36L511.696,287.36C511.696,282.176 512.68,277.28 514.648,272.672C516.616,268.064 519.304,264.056 522.712,260.648C526.12,257.24 530.104,254.552 534.664,252.584C539.224,250.616 544.096,249.632 549.28,249.632L549.28,257.264C545.152,257.264 541.264,258.056 537.616,259.64C533.968,261.224 530.776,263.36 528.04,266.048C525.304,268.736 523.144,271.928 521.56,275.624C519.976,279.32 519.184,283.232 519.184,287.36L519.184,323.36Z" style="fill:rgb(246,249,253);fill-rule:nonzero;"/>
            </g>
            <g transform="matrix(1,0,0,1,181.088,252.496)">
                <path d="M589.744,324.8C585.808,324.8 582.136,324.056 578.728,322.568C575.32,321.08 572.344,319.064 569.8,316.52C567.256,313.976 565.24,311 563.752,307.592C562.264,304.184 561.52,300.512 561.52,296.576L561.52,251.216L569.152,251.216L569.152,296.576C569.152,299.456 569.68,302.168 570.736,304.712C571.792,307.256 573.256,309.464 575.128,311.336C577,313.208 579.184,314.672 581.68,315.728C584.176,316.784 586.864,317.312 589.744,317.312C592.624,317.312 595.312,316.784 597.808,315.728C600.304,314.672 602.488,313.208 604.36,311.336C606.232,309.464 607.72,307.256 608.824,304.712C609.928,302.168 610.48,299.456 610.48,296.576L610.48,251.216L617.968,251.216L617.968,331.424C617.968,335.36 617.224,339.032 615.736,342.44C614.248,345.848 612.232,348.824 609.688,351.368C607.144,353.912 604.168,355.928 600.76,357.416C597.352,358.904 593.68,359.648 589.744,359.648L589.744,352.16C592.624,352.16 595.312,351.608 597.808,350.504C600.304,349.4 602.488,347.912 604.36,346.04C606.232,344.168 607.72,341.984 608.824,339.488C609.928,336.992 610.48,334.304 610.48,331.424L610.48,315.728C607.888,318.512 604.816,320.72 601.264,322.352C597.712,323.984 593.872,324.8 589.744,324.8Z" style="fill:rgb(246,249,253);fill-rule:nonzero;"/>
            </g>
            <g transform="matrix(0.404746,0,0,0.404746,267.685,348.605)">
                <path d="M137.728,249.92C142.912,249.92 147.784,250.904 152.344,252.872C156.904,254.84 160.888,257.528 164.296,260.936C167.704,264.344 170.392,268.352 172.36,272.96C174.328,277.568 175.312,282.464 175.312,287.648C175.312,292.832 174.328,297.704 172.36,302.264C170.392,306.824 167.704,310.808 164.296,314.216C160.888,317.624 156.904,320.312 152.344,322.28C147.784,324.248 142.912,325.232 137.728,325.232C131.488,325.232 125.752,323.888 120.52,321.2C115.288,318.512 110.992,314.864 107.632,310.256L107.632,359.648L100,359.648L100,287.648C100,282.464 100.984,277.568 102.952,272.96C104.92,268.352 107.608,264.344 111.016,260.936C114.424,257.528 118.432,254.84 123.04,252.872C127.648,250.904 132.544,249.92 137.728,249.92ZM137.728,257.552C133.504,257.552 129.568,258.344 125.92,259.928C122.272,261.512 119.104,263.648 116.416,266.336C113.728,269.024 111.592,272.216 110.008,275.912C108.424,279.608 107.632,283.52 107.632,287.648C107.632,291.776 108.424,295.664 110.008,299.312C111.592,302.96 113.728,306.152 116.416,308.888C119.104,311.624 122.272,313.784 125.92,315.368C129.568,316.952 133.504,317.744 137.728,317.744C141.856,317.744 145.744,316.952 149.392,315.368C153.04,313.784 156.232,311.624 158.968,308.888C161.704,306.152 163.864,302.96 165.448,299.312C167.032,295.664 167.824,291.776 167.824,287.648C167.824,283.52 167.032,279.608 165.448,275.912C163.864,272.216 161.704,269.024 158.968,266.336C156.232,263.648 153.04,261.512 149.392,259.928C145.744,258.344 141.856,257.552 137.728,257.552Z" style="fill:rgb(246,249,253);fill-rule:nonzero;"/>
                <path d="M195.904,323.36L188.416,323.36L188.416,287.36C188.416,282.176 189.4,277.28 191.368,272.672C193.336,268.064 196.024,264.056 199.432,260.648C202.84,257.24 206.824,254.552 211.384,252.584C215.944,250.616 220.816,249.632 226,249.632L226,257.264C221.872,257.264 217.984,258.056 214.336,259.64C210.688,261.224 207.496,263.36 204.76,266.048C202.024,268.736 199.864,271.928 198.28,275.624C196.696,279.32 195.904,283.232 195.904,287.36L195.904,323.36Z" style="fill:rgb(246,249,253);fill-rule:nonzero;"/>
                <path d="M267.184,249.632C272.368,249.632 277.24,250.616 281.8,252.584C286.36,254.552 290.344,257.24 293.752,260.648C297.16,264.056 299.848,268.064 301.816,272.672C303.784,277.28 304.768,282.176 304.768,287.36C304.768,292.544 303.784,297.416 301.816,301.976C299.848,306.536 297.16,310.52 293.752,313.928C290.344,317.336 286.36,320.024 281.8,321.992C277.24,323.96 272.368,324.944 267.184,324.944C262,324.944 257.128,323.96 252.568,321.992C248.008,320.024 244.024,317.336 240.616,313.928C237.208,310.52 234.52,306.536 232.552,301.976C230.584,297.416 229.6,292.544 229.6,287.36C229.6,282.176 230.584,277.28 232.552,272.672C234.52,268.064 237.208,264.056 240.616,260.648C244.024,257.24 248.008,254.552 252.568,252.584C257.128,250.616 262,249.632 267.184,249.632ZM267.184,257.264C262.96,257.264 259.024,258.056 255.376,259.64C251.728,261.224 248.56,263.36 245.872,266.048C243.184,268.736 241.048,271.928 239.464,275.624C237.88,279.32 237.088,283.232 237.088,287.36C237.088,291.488 237.88,295.376 239.464,299.024C241.048,302.672 243.184,305.864 245.872,308.6C248.56,311.336 251.728,313.496 255.376,315.08C259.024,316.664 262.96,317.456 267.184,317.456C271.312,317.456 275.2,316.664 278.848,315.08C282.496,313.496 285.688,311.336 288.424,308.6C291.16,305.864 293.32,302.672 294.904,299.024C296.488,295.376 297.28,291.488 297.28,287.36C297.28,283.232 296.488,279.32 294.904,275.624C293.32,271.928 291.16,268.736 288.424,266.048C285.688,263.36 282.496,261.224 278.848,259.64C275.2,258.056 271.312,257.264 267.184,257.264Z" style="fill:rgb(246,249,253);fill-rule:nonzero;"/>
                <path d="M326.08,355.04C326.08,357.632 325.576,360.08 324.568,362.384C323.56,364.688 322.216,366.68 320.536,368.36C318.856,370.04 316.864,371.384 314.56,372.392C312.256,373.4 309.808,373.904 307.216,373.904L307.216,366.416C310.288,366.416 312.928,365.312 315.136,363.104C317.344,360.896 318.448,358.208 318.448,355.04L318.448,251.36L326.08,251.36L326.08,355.04ZM326.08,227.6L318.448,227.6L318.448,215.36L326.08,215.36L326.08,227.6Z" style="fill:rgb(246,249,253);fill-rule:nonzero;"/>
                <path d="M407.584,283.904C407.104,280.16 406,276.704 404.272,273.536C402.544,270.368 400.36,267.584 397.72,265.184C395.08,262.784 392.056,260.912 388.648,259.568C385.24,258.224 381.616,257.552 377.776,257.552C373.936,257.552 370.288,258.224 366.832,259.568C363.376,260.912 360.328,262.784 357.688,265.184C355.048,267.584 352.864,270.368 351.136,273.536C349.408,276.704 348.304,280.16 347.824,283.904L407.584,283.904ZM377.776,325.232C372.592,325.232 367.696,324.248 363.088,322.28C358.48,320.312 354.472,317.624 351.064,314.216C347.656,310.808 344.968,306.824 343,302.264C341.032,297.704 340.048,292.832 340.048,287.648C340.048,282.464 341.032,277.568 343,272.96C344.968,268.352 347.656,264.344 351.064,260.936C354.472,257.528 358.48,254.84 363.088,252.872C367.696,250.904 372.592,249.92 377.776,249.92C382.96,249.92 387.832,250.904 392.392,252.872C396.952,254.84 400.936,257.528 404.344,260.936C407.752,264.344 410.44,268.352 412.408,272.96C414.376,277.568 415.36,282.464 415.36,287.648L415.36,289.52C415.36,290.096 415.312,290.72 415.216,291.392L347.824,291.392C348.304,295.136 349.408,298.592 351.136,301.76C352.864,304.928 355.048,307.712 357.688,310.112C360.328,312.512 363.376,314.384 366.832,315.728C370.288,317.072 373.936,317.744 377.776,317.744C380.56,317.744 383.2,317.216 385.696,316.16C388.192,315.104 390.4,313.616 392.32,311.696L397.648,317.024C395.152,319.52 392.2,321.512 388.792,323C385.384,324.488 381.712,325.232 377.776,325.232Z" style="fill:rgb(246,249,253);fill-rule:nonzero;"/>
                <path d="M462.592,324.512C457.408,324.512 452.536,323.528 447.976,321.56C443.416,319.592 439.432,316.904 436.024,313.496C432.616,310.088 429.928,306.104 427.96,301.544C425.992,296.984 425.008,292.112 425.008,286.928C425.008,281.744 425.992,276.848 427.96,272.24C429.928,267.632 432.616,263.624 436.024,260.216C439.432,256.808 443.416,254.12 447.976,252.152C452.536,250.184 457.408,249.2 462.592,249.2C466.528,249.2 470.2,249.944 473.608,251.432C477.016,252.92 480.016,254.96 482.608,257.552L477.28,262.88C475.36,260.96 473.152,259.472 470.656,258.416C468.16,257.36 465.472,256.832 462.592,256.832C458.464,256.832 454.576,257.624 450.928,259.208C447.28,260.792 444.088,262.928 441.352,265.616C438.616,268.304 436.456,271.496 434.872,275.192C433.288,278.888 432.496,282.8 432.496,286.928C432.496,291.056 433.288,294.944 434.872,298.592C436.456,302.24 438.616,305.432 441.352,308.168C444.088,310.904 447.28,313.064 450.928,314.648C454.576,316.232 458.464,317.024 462.592,317.024C465.472,317.024 468.16,316.496 470.656,315.44C473.152,314.384 475.36,312.896 477.28,310.976L482.608,316.304C480.016,318.8 477.016,320.792 473.608,322.28C470.2,323.768 466.528,324.512 462.592,324.512Z" style="fill:rgb(246,249,253);fill-rule:nonzero;"/>
                <path d="M493.264,232.784L500.752,232.784L500.752,251.648L527.968,251.648L527.968,259.136L500.752,259.136L500.752,305.648C500.752,308.72 501.856,311.36 504.064,313.568C506.272,315.776 508.96,316.88 512.128,316.88C515.2,316.88 517.84,315.776 520.048,313.568C522.256,311.36 523.36,308.72 523.36,305.648L530.848,305.648C530.848,308.24 530.368,310.688 529.408,312.992C528.448,315.296 527.104,317.288 525.376,318.968C523.648,320.648 521.656,321.992 519.4,323C517.144,324.008 514.72,324.512 512.128,324.512C509.536,324.512 507.088,324.008 504.784,323C502.48,321.992 500.488,320.648 498.808,318.968C497.128,317.288 495.784,315.296 494.776,312.992C493.768,310.688 493.264,308.24 493.264,305.648L493.264,232.784Z" style="fill:rgb(246,249,253);fill-rule:nonzero;"/>
            </g>
        </g>
    </g>
</svg>
