<?xml version="1.0" encoding="UTF-8" standalone="no"?>
<!DOCTYPE svg PUBLIC "-//W3C//DTD SVG 1.1//EN" "http://www.w3.org/Graphics/SVG/1.1/DTD/svg11.dtd">
<svg width="100%" height="100%" viewBox="0 0 400 400" version="1.1" xmlns="http://www.w3.org/2000/svg" xmlns:xlink="http://www.w3.org/1999/xlink" xml:space="preserve" xmlns:serif="http://www.serif.com/" style="fill-rule:evenodd;clip-rule:evenodd;stroke-linejoin:round;stroke-miterlimit:2;">
    <g transform="matrix(1,0,0,1,-2250,-4.85)">
        <g id="Artboard3" transform="matrix(0.664452,0,0,0.881057,744.352,22.4711)">
            <rect x="2266" y="-20" width="602" height="454" style="fill:none;"/>
            <clipPath id="_clip1">
                <rect x="2266" y="-20" width="602" height="454"/>
            </clipPath>
            <g clip-path="url(#_clip1)">
                <g transform="matrix(6.72779e-17,-0.881553,9.9422,1.52841e-15,4.6474,1701.67)">
                    <rect x="1438" y="257.725" width="515" height="30.275" style="fill:rgb(36,54,67);"/>
                </g>
                <g transform="matrix(6.51256e-17,-0.881553,9.9422,1.17164e-15,-296.353,1701.67)">
                    <rect x="1438" y="257.725" width="515" height="30.275" style="fill:rgb(224,255,79);"/>
                </g>
                <g transform="matrix(1.87735,0,0,1.41581,356.671,-119.682)">
                    <path d="M1257.53,246.945C1257.53,250.508 1256.84,253.719 1255.46,256.578C1254.07,259.438 1252.07,261.863 1249.44,263.855C1246.82,265.848 1243.6,267.383 1239.78,268.461C1235.96,269.539 1231.59,270.078 1226.66,270.078C1222.26,270.078 1218.29,269.762 1214.75,269.129C1211.21,268.496 1208.1,267.453 1205.43,266C1202.76,264.547 1200.52,262.613 1198.71,260.199C1196.91,257.785 1195.59,254.797 1194.74,251.234L1205.92,249.055C1206.48,251.633 1207.39,253.684 1208.63,255.207C1209.87,256.73 1211.37,257.891 1213.13,258.688C1214.89,259.484 1216.91,260.012 1219.21,260.27C1221.51,260.527 1223.99,260.656 1226.66,260.656C1229.38,260.656 1231.9,260.457 1234.22,260.059C1236.54,259.66 1238.55,258.98 1240.23,258.02C1241.92,257.059 1243.25,255.816 1244.21,254.293C1245.17,252.77 1245.65,250.883 1245.65,248.633C1245.65,246.289 1245.05,244.402 1243.86,242.973C1242.66,241.543 1241.03,240.336 1238.97,239.352C1236.91,238.367 1234.46,237.523 1231.62,236.82C1228.79,236.117 1225.7,235.32 1222.38,234.43C1219.38,233.633 1216.4,232.766 1213.44,231.828C1210.49,230.891 1207.86,229.66 1205.54,228.137C1203.21,226.613 1201.34,224.68 1199.91,222.336C1198.48,219.992 1197.77,217.016 1197.77,213.406C1197.77,206.516 1200.25,201.125 1205.22,197.234C1210.19,193.344 1217.38,191.398 1226.81,191.398C1230.51,191.398 1233.98,191.738 1237.21,192.418C1240.44,193.098 1243.33,194.176 1245.86,195.652C1248.39,197.129 1250.51,199.027 1252.22,201.348C1253.93,203.668 1255.12,206.445 1255.77,209.68L1244.38,211.086C1244.06,208.977 1243.35,207.266 1242.27,205.953C1241.19,204.641 1239.87,203.598 1238.3,202.824C1236.73,202.051 1234.96,201.523 1232.99,201.242C1231.02,200.961 1228.96,200.82 1226.81,200.82C1215.32,200.82 1209.58,204.359 1209.58,211.438C1209.58,213.594 1210.08,215.34 1211.09,216.676C1212.1,218.012 1213.52,219.125 1215.34,220.016C1217.17,220.906 1219.35,221.668 1221.88,222.301C1224.41,222.934 1227.2,223.648 1230.25,224.445C1233.3,225.195 1236.43,226.063 1239.64,227.047C1242.85,228.031 1245.78,229.344 1248.43,230.984C1251.07,232.625 1253.25,234.723 1254.96,237.277C1256.68,239.832 1257.53,243.055 1257.53,246.945Z" style="fill:rgb(224,255,79);fill-rule:nonzero;"/>
                </g>
                <g transform="matrix(1.56656,0,0,1.18143,-1198.53,-115.898)">
                    <path d="M2310.8,320.457L2310.8,315.324L2325.77,313.426L2325.77,233.621L2322.19,233.621C2316.05,233.621 2311.17,233.762 2307.56,234.043C2303.95,234.324 2301.28,234.652 2299.55,235.027L2297.65,252.535L2291.25,252.535L2291.25,226.168L2382.87,226.168L2382.87,252.535L2376.4,252.535L2374.5,235.027C2372.77,234.652 2369.87,234.348 2365.82,234.113C2361.76,233.879 2356.97,233.762 2351.44,233.762L2347.99,233.762L2347.99,313.426L2362.97,315.324L2362.97,320.457L2310.8,320.457Z" style="fill:rgb(36,54,67);fill-rule:nonzero;"/>
                </g>
            </g>
        </g>
    </g>
</svg>
