<?xml version="1.0" encoding="UTF-8" standalone="no"?>
<!DOCTYPE svg PUBLIC "-//W3C//DTD SVG 1.1//EN" "http://www.w3.org/Graphics/SVG/1.1/DTD/svg11.dtd">
<svg width="100%" height="100%" viewBox="0 0 1080 410" version="1.1" xmlns="http://www.w3.org/2000/svg" xmlns:xlink="http://www.w3.org/1999/xlink" xml:space="preserve" xmlns:serif="http://www.serif.com/" style="fill-rule:evenodd;clip-rule:evenodd;stroke-linejoin:round;stroke-miterlimit:2;">
    <g transform="matrix(1,0,0,1,-1125,0)">
        <g id="typesheet" transform="matrix(1,0,0,1,1125,0)">
            <rect x="0" y="0" width="1080" height="409.7" style="fill:none;"/>
            <g transform="matrix(1.93641e-17,-0.460191,20.3873,1.80656e-15,-4816.53,985.103)">
                <rect x="1438" y="257.725" width="515" height="30.275" style="fill:rgb(36,54,67);"/>
            </g>
            <g transform="matrix(1.93321e-17,-0.460191,13.6342,1.20681e-15,-3488.88,985.103)">
                <rect x="1438" y="257.725" width="515" height="30.275" style="fill:rgb(224,255,79);"/>
            </g>
            <g transform="matrix(1.24741,0,0,1.24741,-1398.93,-96.3508)">
                <path d="M1206.48,267.863C1201.98,267.863 1198.62,266.527 1196.39,263.855C1194.17,261.184 1193.06,257.434 1193.06,252.605L1193.06,206.27L1184.41,206.27L1184.41,203.105L1193.19,200.363L1200.3,185.387L1204.73,185.387L1204.73,200.363L1219.84,200.363L1219.84,206.27L1204.73,206.27L1204.73,251.34C1204.73,254.387 1205.42,256.684 1206.8,258.23C1208.18,259.777 1210,260.551 1212.25,260.551C1213.98,260.551 1215.71,260.434 1217.42,260.199C1219.13,259.965 1220.71,259.707 1222.16,259.426L1222.16,263.996C1221.46,264.465 1220.54,264.934 1219.39,265.402C1218.24,265.871 1216.97,266.281 1215.59,266.633C1214.21,266.984 1212.74,267.277 1211.19,267.512C1209.65,267.746 1208.08,267.863 1206.48,267.863Z" style="fill:rgb(36,55,67);fill-rule:nonzero;"/>
                <path d="M1287.56,205.004L1261.75,270.605C1260.25,274.402 1258.73,277.941 1257.18,281.223C1255.63,284.504 1253.91,287.352 1252.01,289.766C1250.11,292.18 1247.94,294.078 1245.51,295.461C1243.07,296.844 1240.23,297.535 1237,297.535C1235.78,297.535 1234.71,297.512 1233.8,297.465C1232.89,297.418 1232.03,297.336 1231.23,297.219C1230.44,297.102 1229.64,296.973 1228.84,296.832C1228.05,296.691 1227.16,296.504 1226.17,296.27L1226.17,281.996L1229.48,281.996L1231.8,288.746C1233.25,289.824 1235.27,290.363 1237.84,290.363C1239.86,290.363 1241.69,289.918 1243.33,289.027C1244.97,288.137 1246.48,286.883 1247.86,285.266C1249.25,283.648 1250.5,281.738 1251.62,279.535C1252.75,277.332 1253.83,274.895 1254.86,272.223L1256.69,267.16L1231.52,205.285L1224.77,203.527L1224.77,200.363L1255.42,200.363L1255.42,203.527L1245.02,205.426L1262.88,251.621L1280.17,205.285L1269.84,203.527L1269.84,200.363L1294.44,200.363L1294.44,203.527L1287.56,205.004Z" style="fill:rgb(36,55,67);fill-rule:nonzero;"/>
                <path d="M1305.69,205.285L1298.17,203.527L1298.17,200.363L1316.73,200.363L1316.88,204.23C1317.86,203.387 1319.02,202.625 1320.36,201.945C1321.69,201.266 1323.13,200.68 1324.68,200.188C1326.23,199.695 1327.87,199.309 1329.6,199.027C1331.34,198.746 1333.09,198.605 1334.88,198.605C1339,198.605 1342.7,199.332 1345.98,200.785C1349.27,202.238 1352.06,204.406 1354.35,207.289C1356.65,210.172 1358.39,213.734 1359.59,217.977C1360.79,222.219 1361.38,227.105 1361.38,232.637C1361.38,238.027 1360.77,242.891 1359.56,247.227C1358.34,251.563 1356.51,255.266 1354.07,258.336C1351.63,261.406 1348.57,263.762 1344.89,265.402C1341.21,267.043 1336.91,267.863 1331.99,267.863C1329.6,267.863 1327.08,267.734 1324.43,267.477C1321.79,267.219 1319.27,266.832 1316.88,266.316C1316.92,266.879 1316.98,267.523 1317.05,268.25C1317.12,268.977 1317.17,269.727 1317.19,270.5C1317.21,271.273 1317.24,271.988 1317.26,272.645C1317.29,273.301 1317.3,273.84 1317.3,274.262L1317.3,292.121L1328.83,293.809L1328.83,297.113L1297.33,297.113L1297.33,293.809L1305.69,292.121L1305.69,205.285ZM1348.73,232.637C1348.73,227.855 1348.33,223.777 1347.53,220.402C1346.73,217.027 1345.57,214.273 1344.05,212.141C1342.53,210.008 1340.66,208.449 1338.46,207.465C1336.26,206.48 1333.77,205.988 1331.01,205.988C1328.76,205.988 1326.36,206.188 1323.8,206.586C1321.25,206.984 1319.08,207.559 1317.3,208.309L1317.3,261.113C1319.27,261.488 1321.44,261.781 1323.84,261.992C1326.23,262.203 1328.62,262.309 1331.01,262.309C1337.19,262.309 1341.69,259.742 1344.51,254.609C1347.32,249.477 1348.73,242.152 1348.73,232.637Z" style="fill:rgb(36,55,67);fill-rule:nonzero;"/>
                <path d="M1385.29,233.199L1385.29,234.465C1385.29,237.887 1385.54,241.168 1386.03,244.309C1386.52,247.449 1387.5,250.227 1388.98,252.641C1390.46,255.055 1392.53,256.977 1395.2,258.406C1397.88,259.836 1401.39,260.551 1405.75,260.551C1407.16,260.551 1408.63,260.492 1410.18,260.375C1411.73,260.258 1413.27,260.105 1414.82,259.918C1416.37,259.73 1417.87,259.52 1419.32,259.285C1420.77,259.051 1422.11,258.793 1423.33,258.512L1423.33,262.449C1422.25,263.152 1420.95,263.82 1419.43,264.453C1417.9,265.086 1416.23,265.66 1414.4,266.176C1412.57,266.691 1410.62,267.102 1408.56,267.406C1406.5,267.711 1404.41,267.863 1402.31,267.863C1396.82,267.863 1392.19,267.113 1388.42,265.613C1384.64,264.113 1381.59,261.887 1379.24,258.934C1376.9,255.98 1375.21,252.324 1374.18,247.965C1373.15,243.605 1372.63,238.59 1372.63,232.918C1372.63,221.387 1375.05,212.785 1379.88,207.113C1384.7,201.441 1391.59,198.605 1400.55,198.605C1404.06,198.605 1407.36,199.074 1410.43,200.012C1413.5,200.949 1416.18,202.52 1418.48,204.723C1420.77,206.926 1422.59,209.879 1423.93,213.582C1425.26,217.285 1425.93,221.902 1425.93,227.434L1425.93,233.199L1385.29,233.199ZM1400.55,204.23C1397.92,204.23 1395.66,204.781 1393.76,205.883C1391.86,206.984 1390.29,208.543 1389.05,210.559C1387.81,212.574 1386.89,215.023 1386.31,217.906C1385.72,220.789 1385.43,224.012 1385.43,227.574L1413.69,227.574C1413.69,224.012 1413.5,220.789 1413.1,217.906C1412.7,215.023 1412,212.574 1410.99,210.559C1409.98,208.543 1408.63,206.984 1406.94,205.883C1405.26,204.781 1403.12,204.23 1400.55,204.23Z" style="fill:rgb(36,55,67);fill-rule:nonzero;"/>
            </g>
            <g transform="matrix(1.24741,0,0,1.24741,-994.572,-70.0821)">
                <path d="M1257.53,246.945C1257.53,250.508 1256.84,253.719 1255.46,256.578C1254.07,259.438 1252.07,261.863 1249.44,263.855C1246.82,265.848 1243.6,267.383 1239.78,268.461C1235.96,269.539 1231.59,270.078 1226.66,270.078C1222.26,270.078 1218.29,269.762 1214.75,269.129C1211.21,268.496 1208.1,267.453 1205.43,266C1202.76,264.547 1200.52,262.613 1198.71,260.199C1196.91,257.785 1195.59,254.797 1194.74,251.234L1205.92,249.055C1206.48,251.633 1207.39,253.684 1208.63,255.207C1209.87,256.73 1211.37,257.891 1213.13,258.688C1214.89,259.484 1216.91,260.012 1219.21,260.27C1221.51,260.527 1223.99,260.656 1226.66,260.656C1229.38,260.656 1231.9,260.457 1234.22,260.059C1236.54,259.66 1238.55,258.98 1240.23,258.02C1241.92,257.059 1243.25,255.816 1244.21,254.293C1245.17,252.77 1245.65,250.883 1245.65,248.633C1245.65,246.289 1245.05,244.402 1243.86,242.973C1242.66,241.543 1241.03,240.336 1238.97,239.352C1236.91,238.367 1234.46,237.523 1231.62,236.82C1228.79,236.117 1225.7,235.32 1222.38,234.43C1219.38,233.633 1216.4,232.766 1213.44,231.828C1210.49,230.891 1207.86,229.66 1205.54,228.137C1203.21,226.613 1201.34,224.68 1199.91,222.336C1198.48,219.992 1197.77,217.016 1197.77,213.406C1197.77,206.516 1200.25,201.125 1205.22,197.234C1210.19,193.344 1217.38,191.398 1226.81,191.398C1230.51,191.398 1233.98,191.738 1237.21,192.418C1240.44,193.098 1243.33,194.176 1245.86,195.652C1248.39,197.129 1250.51,199.027 1252.22,201.348C1253.93,203.668 1255.12,206.445 1255.77,209.68L1244.38,211.086C1244.06,208.977 1243.35,207.266 1242.27,205.953C1241.19,204.641 1239.87,203.598 1238.3,202.824C1236.73,202.051 1234.96,201.523 1232.99,201.242C1231.02,200.961 1228.96,200.82 1226.81,200.82C1215.32,200.82 1209.58,204.359 1209.58,211.438C1209.58,213.594 1210.08,215.34 1211.09,216.676C1212.1,218.012 1213.52,219.125 1215.34,220.016C1217.17,220.906 1219.35,221.668 1221.88,222.301C1224.41,222.934 1227.2,223.648 1230.25,224.445C1233.3,225.195 1236.43,226.063 1239.64,227.047C1242.85,228.031 1245.78,229.344 1248.43,230.984C1251.07,232.625 1253.25,234.723 1254.96,237.277C1256.68,239.832 1257.53,243.055 1257.53,246.945Z" style="fill:rgb(224,255,79);fill-rule:nonzero;"/>
                <path d="M1282.42,164.328L1295.15,164.328L1295.15,191.75C1295.15,194.094 1295.08,196.449 1294.94,198.816C1294.8,201.184 1294.66,203.445 1294.52,205.602L1294.73,205.602C1295.85,203.398 1297.16,201.406 1298.66,199.625C1300.16,197.844 1301.88,196.332 1303.8,195.09C1305.72,193.848 1307.91,192.887 1310.37,192.207C1312.83,191.527 1315.56,191.188 1318.56,191.188C1322.45,191.188 1325.92,191.703 1328.97,192.734C1332.02,193.766 1334.59,195.359 1336.7,197.516C1338.81,199.672 1340.42,202.438 1341.52,205.813C1342.62,209.188 1343.17,213.242 1343.17,217.977L1343.17,268.672L1330.44,268.672L1330.44,219.805C1330.44,216.055 1330.06,212.973 1329.29,210.559C1328.51,208.145 1327.43,206.223 1326.05,204.793C1324.67,203.363 1323.04,202.367 1321.16,201.805C1319.29,201.242 1317.23,200.961 1314.98,200.961C1312.21,200.961 1309.62,201.488 1307.21,202.543C1304.79,203.598 1302.68,205.121 1300.88,207.113C1299.07,209.105 1297.66,211.566 1296.62,214.496C1295.59,217.426 1295.08,220.789 1295.08,224.586L1295.08,268.672L1282.42,268.672L1282.42,164.328Z" style="fill:rgb(224,255,79);fill-rule:nonzero;"/>
                <path d="M1378.47,233.305C1378.47,237.289 1378.91,240.957 1379.81,244.309C1380.69,247.66 1382.03,250.543 1383.81,252.957C1385.59,255.371 1387.81,257.246 1390.46,258.582C1393.11,259.918 1396.16,260.586 1399.63,260.586C1402.21,260.586 1404.59,260.293 1406.77,259.707C1408.95,259.121 1410.91,258.313 1412.64,257.281C1414.38,256.25 1415.83,255.02 1417,253.59C1418.17,252.16 1419.04,250.602 1419.6,248.914L1430.71,252.078C1429.96,254.188 1428.84,256.309 1427.34,258.441C1425.84,260.574 1423.84,262.496 1421.36,264.207C1418.88,265.918 1415.85,267.324 1412.29,268.426C1408.73,269.527 1404.51,270.078 1399.63,270.078C1394.24,270.078 1389.41,269.234 1385.15,267.547C1380.88,265.859 1377.27,263.352 1374.32,260.023C1371.37,256.695 1369.11,252.535 1367.54,247.543C1365.96,242.551 1365.18,236.75 1365.18,230.141C1365.18,222.828 1366.11,216.688 1367.96,211.719C1369.81,206.75 1372.31,202.742 1375.44,199.695C1378.59,196.648 1382.21,194.469 1386.31,193.156C1390.41,191.844 1394.71,191.188 1399.21,191.188C1405.35,191.188 1410.54,192.172 1414.79,194.141C1419.03,196.109 1422.48,198.863 1425.16,202.402C1427.83,205.941 1429.76,210.195 1430.96,215.164C1432.15,220.133 1432.75,225.617 1432.75,231.617L1432.75,233.305L1378.47,233.305ZM1399.35,200.539C1397.19,200.539 1394.93,200.879 1392.57,201.559C1390.2,202.238 1388.01,203.445 1385.99,205.18C1383.98,206.914 1382.28,209.27 1380.89,212.246C1379.51,215.223 1378.75,219.008 1378.61,223.602L1419.67,223.602C1419.3,219.195 1418.5,215.516 1417.28,212.563C1416.06,209.609 1414.55,207.242 1412.75,205.461C1410.94,203.68 1408.89,202.414 1406.59,201.664C1404.3,200.914 1401.88,200.539 1399.35,200.539Z" style="fill:rgb(224,255,79);fill-rule:nonzero;"/>
                <path d="M1464.88,233.305C1464.88,237.289 1465.33,240.957 1466.22,244.309C1467.11,247.66 1468.44,250.543 1470.23,252.957C1472.01,255.371 1474.22,257.246 1476.87,258.582C1479.52,259.918 1482.58,260.586 1486.05,260.586C1488.62,260.586 1491,260.293 1493.18,259.707C1495.36,259.121 1497.32,258.313 1499.06,257.281C1500.79,256.25 1502.24,255.02 1503.41,253.59C1504.59,252.16 1505.45,250.602 1506.02,248.914L1517.12,252.078C1516.38,254.188 1515.25,256.309 1513.75,258.441C1512.25,260.574 1510.26,262.496 1507.77,264.207C1505.29,265.918 1502.27,267.324 1498.7,268.426C1495.14,269.527 1490.92,270.078 1486.05,270.078C1480.66,270.078 1475.83,269.234 1471.56,267.547C1467.3,265.859 1463.69,263.352 1460.73,260.023C1457.78,256.695 1455.52,252.535 1453.95,247.543C1452.38,242.551 1451.59,236.75 1451.59,230.141C1451.59,222.828 1452.52,216.688 1454.37,211.719C1456.22,206.75 1458.72,202.742 1461.86,199.695C1465,196.648 1468.62,194.469 1472.72,193.156C1476.82,191.844 1481.12,191.188 1485.62,191.188C1491.77,191.188 1496.96,192.172 1501.2,194.141C1505.44,196.109 1508.9,198.863 1511.57,202.402C1514.24,205.941 1516.18,210.195 1517.37,215.164C1518.57,220.133 1519.16,225.617 1519.16,231.617L1519.16,233.305L1464.88,233.305ZM1485.77,200.539C1483.61,200.539 1481.35,200.879 1478.98,201.559C1476.61,202.238 1474.42,203.445 1472.41,205.18C1470.39,206.914 1468.69,209.27 1467.31,212.246C1465.93,215.223 1465.16,219.008 1465.02,223.602L1506.09,223.602C1505.71,219.195 1504.91,215.516 1503.69,212.563C1502.48,209.609 1500.96,207.242 1499.16,205.461C1497.36,203.68 1495.31,202.414 1493.01,201.664C1490.71,200.914 1488.3,200.539 1485.77,200.539Z" style="fill:rgb(224,255,79);fill-rule:nonzero;"/>
                <path d="M1542.02,202.578L1542.02,192.594L1553.97,192.594L1558.05,172.766L1566.48,172.766L1566.48,192.594L1596.86,192.594L1596.86,202.578L1566.48,202.578L1566.48,248.422C1566.48,252.125 1567.48,254.867 1569.47,256.648C1571.47,258.43 1574.73,259.32 1579.28,259.32C1581.16,259.32 1583.09,259.238 1585.08,259.074C1587.07,258.91 1589,258.711 1590.85,258.477C1592.7,258.242 1594.43,257.984 1596.05,257.703C1597.67,257.422 1599.04,257.164 1600.16,256.93L1600.16,266.563C1599.13,266.844 1597.8,267.172 1596.16,267.547C1594.52,267.922 1592.68,268.273 1590.64,268.602C1588.6,268.93 1586.38,269.211 1583.99,269.445C1581.6,269.68 1579.14,269.797 1576.61,269.797C1569.02,269.797 1563.32,268.191 1559.52,264.98C1555.73,261.77 1553.83,256.695 1553.83,249.758L1553.83,202.578L1542.02,202.578Z" style="fill:rgb(224,255,79);fill-rule:nonzero;"/>
            </g>
        </g>
    </g>
</svg>
