<?xml version="1.0" encoding="UTF-8" standalone="no"?>
<!DOCTYPE svg PUBLIC "-//W3C//DTD SVG 1.1//EN" "http://www.w3.org/Graphics/SVG/1.1/DTD/svg11.dtd">
<svg width="100%" height="100%" viewBox="0 0 1080 281" version="1.1" xmlns="http://www.w3.org/2000/svg" xmlns:xlink="http://www.w3.org/1999/xlink" xml:space="preserve" xmlns:serif="http://www.serif.com/" style="fill-rule:evenodd;clip-rule:evenodd;stroke-linejoin:round;stroke-miterlimit:2;">
    <g id="Artboard1" transform="matrix(1,0,0,0.390278,0,0)">
        <rect x="0" y="0" width="1080" height="720" style="fill:none;"/>
        <g transform="matrix(4.07372,0,0,10.438,-348.478,-2068.92)">
            <path d="M227.2,210.45L229.8,210.45L229.8,244.4L250.45,244.4L250.45,247L227.2,247L227.2,210.45Z" style="fill:rgb(246,249,253);fill-rule:nonzero;"/>
            <path d="M265.2,221.4C267,221.4 268.692,221.742 270.275,222.425C271.858,223.108 273.242,224.042 274.425,225.225C275.608,226.408 276.542,227.8 277.225,229.4C277.908,231 278.25,232.7 278.25,234.5C278.25,236.3 277.908,237.992 277.225,239.575C276.542,241.158 275.608,242.542 274.425,243.725C273.242,244.908 271.858,245.842 270.275,246.525C268.692,247.208 267,247.55 265.2,247.55C263.4,247.55 261.708,247.208 260.125,246.525C258.542,245.842 257.158,244.908 255.975,243.725C254.792,242.542 253.858,241.158 253.175,239.575C252.492,237.992 252.15,236.3 252.15,234.5C252.15,232.7 252.492,231 253.175,229.4C253.858,227.8 254.792,226.408 255.975,225.225C257.158,224.042 258.542,223.108 260.125,222.425C261.708,221.742 263.4,221.4 265.2,221.4ZM265.2,224.05C263.733,224.05 262.367,224.325 261.1,224.875C259.833,225.425 258.733,226.167 257.8,227.1C256.867,228.033 256.125,229.142 255.575,230.425C255.025,231.708 254.75,233.067 254.75,234.5C254.75,235.933 255.025,237.283 255.575,238.55C256.125,239.817 256.867,240.925 257.8,241.875C258.733,242.825 259.833,243.575 261.1,244.125C262.367,244.675 263.733,244.95 265.2,244.95C266.633,244.95 267.983,244.675 269.25,244.125C270.517,243.575 271.625,242.825 272.575,241.875C273.525,240.925 274.275,239.817 274.825,238.55C275.375,237.283 275.65,235.933 275.65,234.5C275.65,233.067 275.375,231.708 274.825,230.425C274.275,229.142 273.525,228.033 272.575,227.1C271.625,226.167 270.517,225.425 269.25,224.875C267.983,224.325 266.633,224.05 265.2,224.05Z" style="fill:rgb(246,249,253);fill-rule:nonzero;"/>
            <path d="M294.5,221.35C296.3,221.35 298,221.692 299.6,222.375C301.2,223.058 302.592,223.992 303.775,225.175C304.958,226.358 305.892,227.75 306.575,229.35C307.258,230.95 307.6,232.65 307.6,234.45L307.6,246.95L304.95,246.95L304.95,242.3C303.783,243.9 302.292,245.167 300.475,246.1C298.658,247.033 296.667,247.5 294.5,247.5C292.7,247.5 291.008,247.158 289.425,246.475C287.842,245.792 286.458,244.858 285.275,243.675C284.092,242.492 283.158,241.108 282.475,239.525C281.792,237.942 281.45,236.25 281.45,234.45C281.45,232.65 281.792,230.95 282.475,229.35C283.158,227.75 284.092,226.358 285.275,225.175C286.458,223.992 287.842,223.058 289.425,222.375C291.008,221.692 292.7,221.35 294.5,221.35ZM294.5,224C293.067,224 291.717,224.275 290.45,224.825C289.183,225.375 288.075,226.117 287.125,227.05C286.175,227.983 285.425,229.092 284.875,230.375C284.325,231.658 284.05,233.017 284.05,234.45C284.05,235.883 284.325,237.233 284.875,238.5C285.425,239.767 286.175,240.875 287.125,241.825C288.075,242.775 289.183,243.525 290.45,244.075C291.717,244.625 293.067,244.9 294.5,244.9C295.933,244.9 297.292,244.625 298.575,244.075C299.858,243.525 300.967,242.775 301.9,241.825C302.833,240.875 303.575,239.767 304.125,238.5C304.675,237.233 304.95,235.883 304.95,234.45C304.95,233.017 304.675,231.658 304.125,230.375C303.575,229.092 302.833,227.983 301.9,227.05C300.967,226.117 299.858,225.375 298.575,224.825C297.292,224.275 295.933,224 294.5,224Z" style="fill:rgb(246,249,253);fill-rule:nonzero;"/>
            <path d="M325.1,221.35C327.267,221.35 329.25,221.825 331.05,222.775C332.85,223.725 334.35,225 335.55,226.6L335.55,209.45L338.15,209.45L338.15,234.45C338.15,236.25 337.808,237.942 337.125,239.525C336.442,241.108 335.508,242.492 334.325,243.675C333.142,244.858 331.758,245.792 330.175,246.475C328.592,247.158 326.9,247.5 325.1,247.5C323.3,247.5 321.608,247.158 320.025,246.475C318.442,245.792 317.058,244.858 315.875,243.675C314.692,242.492 313.758,241.108 313.075,239.525C312.392,237.942 312.05,236.25 312.05,234.45C312.05,232.65 312.392,230.95 313.075,229.35C313.758,227.75 314.692,226.358 315.875,225.175C317.058,223.992 318.442,223.058 320.025,222.375C321.608,221.692 323.3,221.35 325.1,221.35ZM325.1,224C323.667,224 322.317,224.275 321.05,224.825C319.783,225.375 318.675,226.117 317.725,227.05C316.775,227.983 316.025,229.092 315.475,230.375C314.925,231.658 314.65,233.017 314.65,234.45C314.65,235.883 314.925,237.233 315.475,238.5C316.025,239.767 316.775,240.875 317.725,241.825C318.675,242.775 319.783,243.525 321.05,244.075C322.317,244.625 323.667,244.9 325.1,244.9C326.533,244.9 327.883,244.625 329.15,244.075C330.417,243.525 331.525,242.775 332.475,241.825C333.425,240.875 334.175,239.767 334.725,238.5C335.275,237.233 335.55,235.883 335.55,234.45C335.55,233.017 335.275,231.658 334.725,230.375C334.175,229.092 333.425,227.983 332.475,227.05C331.525,226.117 330.417,225.375 329.15,224.825C327.883,224.275 326.533,224 325.1,224Z" style="fill:rgb(246,249,253);fill-rule:nonzero;"/>
        </g>
        <g transform="matrix(1,0,0,2.56228,0,-548.327)">
            <g transform="matrix(4.07372,0,0,4.07372,-348.478,-593.454)">
                <g>
                    <path d="M98.05,210.6L102.4,210.6C106.26,218.237 108.781,227.278 107.99,237.67C107.898,238.87 108.194,239.755 108.251,239.928C108.61,241.002 109.159,241.654 109.268,241.783C109.376,241.911 109.937,242.576 110.946,243.017C111.113,243.09 111.96,243.461 113.18,243.461C113.375,243.46 114.403,243.46 115.576,243.016C116.757,242.568 117.539,241.907 117.689,241.78C118.635,240.98 119.141,240.091 119.237,239.923C119.848,238.851 119.919,237.852 119.933,237.664C120.746,226.24 117.344,216.898 114.15,210.6L118.5,210.6C121.637,216.777 125.149,226.182 124.354,237.661C124.271,238.863 124.548,239.747 124.603,239.921C124.94,240.995 125.514,241.65 125.625,241.777C125.736,241.904 126.32,242.571 127.328,243.012C127.495,243.085 128.343,243.456 129.562,243.456C129.757,243.456 130.786,243.455 131.958,243.011C133.14,242.563 133.899,241.902 134.045,241.774C134.966,240.973 135.469,240.083 135.563,239.916C136.17,238.843 136.234,237.843 136.246,237.655C136.988,226.119 133.237,216.559 130.2,210.6L134.55,210.6C137.566,216.51 141.388,226.121 140.668,237.653C140.584,239.001 140.171,240.382 139.435,241.624C138.791,242.71 137.841,243.842 136.613,244.81C135.559,245.641 134.242,246.406 132.795,246.951C131.383,247.483 129.912,247.737 128.57,247.737C127.952,247.737 126.03,247.704 124.217,246.707C122.961,246.015 121.967,245.05 121.276,243.951C120.255,244.951 118.837,245.959 117.101,246.708C115.489,247.403 113.785,247.739 112.21,247.739C111.692,247.739 110.031,247.716 108.398,246.955C107.25,246.42 106.298,245.664 105.585,244.817C104.514,243.546 104.07,242.135 103.924,241.637C103.413,239.893 103.527,238.196 103.568,237.672C104.251,228.919 102.717,219.844 98.05,210.6Z" style="fill:rgb(224,255,79);fill-rule:nonzero;"/>
                    <path d="M157.426,221.679C159.09,221.677 160.98,221.997 162.85,222.718C164.733,223.443 166.426,224.462 167.755,225.555C169.329,226.852 170.525,228.345 171.315,229.745C172.267,231.433 172.704,233.213 172.73,234.839C172.799,239.026 172.243,243.218 171.087,247.24C169.613,247.24 168.139,247.24 166.666,247.24C167.057,245.866 167.308,244.704 167.357,244.482C166.063,245.42 164.461,246.275 162.728,246.872C161.093,247.436 159.32,247.733 157.631,247.733C156.951,247.733 154.831,247.701 152.779,246.726C151.394,246.068 150.177,245.124 149.222,243.993C147.869,242.39 147.226,240.569 147.007,239.911C146.269,237.693 146.24,235.559 146.239,234.856C146.237,232.693 146.606,230.955 146.989,229.764C147.199,229.11 147.832,227.242 149.154,225.571C150.144,224.319 151.359,223.366 152.639,222.726C154.654,221.717 156.74,221.679 157.426,221.679ZM158.503,226.044C157.136,226.045 156.018,226.356 155.204,226.73C154.224,227.18 153.37,227.839 152.71,228.626C152.543,228.824 151.714,229.811 151.122,231.445C151.028,231.705 150.546,233.035 150.553,234.853C150.559,236.674 151.052,237.986 151.149,238.244C151.756,239.859 152.604,240.809 152.775,240.999C153.414,241.715 154.271,242.377 155.312,242.855C156.142,243.236 157.273,243.546 158.645,243.546C159.898,243.545 161.161,243.297 162.283,242.853C164.053,242.152 165.172,241.184 165.391,240.994C166.324,240.188 167.057,239.217 167.543,238.236C168.067,237.18 168.331,236.003 168.315,234.842C168.299,233.716 168.018,232.53 167.452,231.433C166.945,230.449 166.193,229.456 165.241,228.616C163.878,227.412 162.389,226.83 162.117,226.724C160.988,226.283 159.734,226.043 158.503,226.044Z" style="fill:rgb(224,255,79);fill-rule:nonzero;"/>
                    <path d="M180.373,247.287C178.916,247.288 177.459,247.288 176.002,247.288C177.165,243.296 177.731,239.105 177.654,234.886C177.615,232.764 177.967,231.015 178.373,229.765C178.593,229.087 179.242,227.211 180.64,225.57C181.603,224.44 182.866,223.451 184.366,222.751C186.539,221.738 188.795,221.705 189.506,221.705C190.201,223.91 190.608,225.716 190.687,226.068C190.191,226.069 188.624,226.092 187.052,226.754C185.942,227.222 185.009,227.896 184.299,228.651C183.689,229.299 183.023,230.263 182.573,231.472C182.247,232.348 181.991,233.549 182.019,234.883C182.107,239.134 181.536,243.324 180.373,247.287Z" style="fill:rgb(224,255,79);fill-rule:nonzero;"/>
                    <path d="M203.813,221.796C205.471,221.794 207.363,222.111 209.245,222.833C211.123,223.554 212.841,224.558 214.212,225.644C215.813,226.911 217.067,228.404 217.914,229.835C218.958,231.6 219.415,233.399 219.477,234.96C219.546,236.689 219.148,238.438 218.301,240.004C217.597,241.306 216.459,242.781 214.823,244.099C213.537,245.135 211.842,246.14 209.898,246.864C208.072,247.544 206.163,247.874 204.427,247.874C203.802,247.874 201.79,247.85 199.841,247.014C198.578,246.471 197.401,245.647 196.432,244.573C195.056,250.716 192.345,255.56 190.3,258.65L186,258.65C190.253,252.119 193.212,244.271 192.984,234.976C192.966,234.277 192.939,232.129 193.586,229.854C193.774,229.192 194.342,227.303 195.61,225.659C196.522,224.478 197.698,223.512 199.034,222.841C201.044,221.833 203.136,221.796 203.813,221.796ZM205.033,226.158C203.627,226.159 202.521,226.487 201.757,226.844C200.805,227.287 199.961,227.94 199.299,228.74C199.136,228.937 198.318,229.926 197.8,231.562C197.717,231.824 197.299,233.147 197.348,234.974C197.398,236.798 197.887,238.111 197.984,238.37C198.074,238.611 198.588,239.99 199.634,241.13C199.805,241.316 200.712,242.304 202.196,242.989C203.021,243.369 204.148,243.681 205.524,243.681C206.704,243.68 207.954,243.446 209.115,242.986C210.893,242.283 212.029,241.314 212.251,241.125C213.217,240.301 213.942,239.323 214.404,238.362C214.909,237.313 215.156,236.136 215.112,234.962C215.071,233.86 214.768,232.67 214.158,231.55C213.633,230.586 212.847,229.586 211.832,228.73C211.604,228.538 210.405,227.527 208.619,226.838C207.419,226.375 206.171,226.157 205.033,226.158Z" style="fill:rgb(224,255,79);fill-rule:nonzero;"/>
                </g>
            </g>
        </g>
    </g>
</svg>
