<?xml version="1.0" encoding="UTF-8" standalone="no"?>
<!DOCTYPE svg PUBLIC "-//W3C//DTD SVG 1.1//EN" "http://www.w3.org/Graphics/SVG/1.1/DTD/svg11.dtd">
<svg width="100%" height="100%" viewBox="0 0 1080 1080" version="1.1" xmlns="http://www.w3.org/2000/svg" xmlns:xlink="http://www.w3.org/1999/xlink" xml:space="preserve" xmlns:serif="http://www.serif.com/" style="fill-rule:evenodd;clip-rule:evenodd;stroke-linejoin:round;stroke-miterlimit:2;">
    <rect id="Artboard1" x="0" y="0" width="1080" height="1080" style="fill:none;"/>
    <g id="Artboard11" serif:id="Artboard1">
        <g>
            <g id="zero" transform="matrix(3.20907,0,0,3.20906,-1550.27,-1506.79)">
                <path d="M617.672,537.736C674.12,537.736 705.512,572.584 705.512,637.96C705.512,703.048 674.408,737.896 617.672,737.896C560.936,737.896 529.832,703.048 529.832,637.96C529.832,572.584 561.224,537.736 617.672,537.736ZM635.123,573.606C629.908,572.347 624.099,571.72 617.672,571.72C579.656,571.72 563.24,593.32 563.24,637.672C563.24,656.586 566.187,671.364 572.475,682.115L635.123,573.606ZM600.207,702.05C605.427,703.294 611.24,703.912 617.672,703.912C655.688,703.912 671.816,682.312 671.816,637.672C671.816,619.03 668.916,604.408 662.752,593.719L600.207,702.05Z" style="fill:rgb(234,244,244);"/>
            </g>
            <g transform="matrix(20.9936,0,0,14.4408,-10653.5,-13196.2)">
                <rect x="546.568" y="930.248" width="5.195" height="43.2" style="fill:rgb(234,244,244);"/>
            </g>
        </g>
    </g>
</svg>
