<?xml version="1.0" encoding="UTF-8" standalone="no"?>
<!DOCTYPE svg PUBLIC "-//W3C//DTD SVG 1.1//EN" "http://www.w3.org/Graphics/SVG/1.1/DTD/svg11.dtd">
<svg width="100%" height="100%" viewBox="0 0 3000 1974" version="1.1" xmlns="http://www.w3.org/2000/svg" xmlns:xlink="http://www.w3.org/1999/xlink" xml:space="preserve" xmlns:serif="http://www.serif.com/" style="fill-rule:evenodd;clip-rule:evenodd;stroke-linejoin:round;stroke-miterlimit:2;">
    <g transform="matrix(1,0,0,1,-22837,-7048)">
        <g id="blueTonedDark_icon" transform="matrix(1,0,0,0.658,22837,7048)">
            <rect x="0" y="0" width="3000" height="3000" style="fill:none;"/>
            <g transform="matrix(3.32631,0,0,5.05518,-581.577,-1807.78)">
                <g transform="matrix(1.71014,0,0,1.71014,-320.187,-488.502)">
                    <path d="M772.904,798.808L421.256,798.808C364.52,798.808 333.416,736.24 333.416,671.152C333.416,605.776 364.808,540.616 421.256,540.616L496.424,540.616L496.424,574.6L421.256,574.6C383.816,574.6 367.4,626.512 367.4,671.152C367.4,715.504 383.528,764.824 421.256,764.824L772.904,764.824L772.904,798.808Z" style="fill:rgb(124,150,255);"/>
                </g>
                <g id="zero" transform="matrix(1.71014,0,0,1.71014,-320.187,-488.502)">
                    <path d="M617.672,537.736C674.12,537.736 705.512,572.584 705.512,637.96C705.512,703.048 674.408,737.896 617.672,737.896C560.936,737.896 529.832,703.048 529.832,637.96C529.832,572.584 561.224,537.736 617.672,537.736ZM635.123,573.606C629.908,572.347 624.099,571.72 617.672,571.72C579.656,571.72 563.24,593.32 563.24,637.672C563.24,656.586 566.187,671.364 572.475,682.115L635.123,573.606ZM600.207,702.05C605.427,703.294 611.24,703.912 617.672,703.912C655.688,703.912 671.816,682.312 671.816,637.672C671.816,619.03 668.916,604.408 662.752,593.719L600.207,702.05Z" style="fill:rgb(234,244,244);"/>
                </g>
                <g transform="matrix(11.1877,0,0,7.69561,-5171.39,-6717.88)">
                    <rect x="546.568" y="930.248" width="5.195" height="43.2" style="fill:rgb(234,244,244);fill-rule:nonzero;"/>
                </g>
            </g>
        </g>
    </g>
</svg>
