<?xml version="1.0" encoding="UTF-8" standalone="no"?>
<!DOCTYPE svg PUBLIC "-//W3C//DTD SVG 1.1//EN" "http://www.w3.org/Graphics/SVG/1.1/DTD/svg11.dtd">
<svg width="100%" height="100%" viewBox="0 0 3000 1138" version="1.1" xmlns="http://www.w3.org/2000/svg" xmlns:xlink="http://www.w3.org/1999/xlink" xml:space="preserve" xmlns:serif="http://www.serif.com/" style="fill-rule:evenodd;clip-rule:evenodd;stroke-linejoin:round;stroke-miterlimit:2;">
    <g transform="matrix(1,0,0,1,-9733,-9777)">
        <g id="blueTonedDark_Full_t" transform="matrix(1,0,0,0.379333,9733,9777)">
            <rect x="0" y="0" width="3000" height="3000" style="fill:none;"/>
            <g transform="matrix(1,0,0,2.6362,-9.09495e-13,-4683.65)">
                <g transform="matrix(1.71014,0,0,1.71014,-320.187,1107.16)">
                    <path d="M421.256,540.616C364.808,540.616 333.416,572.584 333.416,637.96C333.416,703.048 364.52,735.016 421.256,735.016L496.424,735.016L496.424,701.032L421.256,701.032C383.528,701.032 367.4,682.312 367.4,637.96C367.4,593.32 383.816,574.6 421.256,574.6L496.424,574.6L496.424,540.616L421.256,540.616Z" style="fill:rgb(124,150,255);fill-rule:nonzero;"/>
                </g>
                <g id="zero" transform="matrix(1.71014,0,0,1.71014,-320.187,1107.16)">
                    <path d="M617.672,537.736C674.12,537.736 705.512,572.584 705.512,637.96C705.512,703.048 674.408,737.896 617.672,737.896C560.936,737.896 529.832,703.048 529.832,637.96C529.832,572.584 561.224,537.736 617.672,537.736ZM635.123,573.606C629.908,572.347 624.099,571.72 617.672,571.72C579.656,571.72 563.24,593.32 563.24,637.672C563.24,656.586 566.187,671.364 572.475,682.115L635.123,573.606ZM600.207,702.05C605.427,703.294 611.24,703.912 617.672,703.912C655.688,703.912 671.816,682.312 671.816,637.672C671.816,619.03 668.916,604.408 662.752,593.719L600.207,702.05Z" style="fill:rgb(124,150,255);"/>
                </g>
                <g transform="matrix(1.71014,0,0,1.71014,-320.187,1107.16)">
                    <path d="M751.88,540.616L751.88,574.6L858.44,574.6C877.16,574.6 885.512,586.408 885.512,600.232C885.512,614.056 877.736,627.304 858.44,627.304L782.696,627.304C761.384,627.304 752.168,636.232 752.168,658.12L752.168,735.016L786.152,735.016L786.152,664.744C786.152,661.288 787.88,659.848 791.048,659.848L841.736,659.848L886.088,735.016L923.816,735.016L878.6,657.256C908.264,648.904 919.784,622.984 919.784,598.792C919.784,567.688 901.064,540.616 857.288,540.616L751.88,540.616Z" style="fill:rgb(124,150,255);fill-rule:nonzero;"/>
                </g>
                <g transform="matrix(1.71014,0,0,1.71014,-320.187,1107.16)">
                    <path d="M939.08,540.616L939.08,574.6L995.816,574.6L995.816,735.016L1030.09,735.016L1030.09,574.6L1086.82,574.6L1086.82,540.616L939.08,540.616Z" style="fill:rgb(124,150,255);fill-rule:nonzero;"/>
                </g>
                <g transform="matrix(1.71014,0,0,1.71014,-320.187,1107.16)">
                    <path d="M1176.68,540.616C1130.89,540.616 1111.59,562.504 1111.59,593.608C1111.59,614.92 1120.81,629.896 1138.95,637.384C1121.1,644.872 1111.02,659.848 1111.02,682.024C1111.02,712.264 1129.74,735.016 1175.82,735.016L1274.31,735.016L1274.31,701.032L1175.82,701.032C1155.94,701.032 1146.44,691.816 1146.44,676.552C1146.44,660.712 1156.52,652.936 1176.1,652.936L1272.58,652.936L1272.58,622.12L1176.97,622.12C1157.38,622.12 1147.3,614.92 1147.3,599.08C1147.3,584.104 1156.23,574.6 1176.68,574.6L1274.02,574.6L1274.02,540.616L1176.68,540.616Z" style="fill:rgb(124,150,255);fill-rule:nonzero;"/>
                </g>
                <g transform="matrix(1.71014,0,0,1.71014,-320.187,1107.16)">
                    <path d="M1308.3,540.616L1387.21,633.64L1300.23,735.016L1342.28,735.016L1408.52,657.832L1536.82,798.808L1578.3,798.808L1430.7,636.232L1513.93,540.616L1471.88,540.616L1409.38,612.328L1349.77,540.616L1308.3,540.616Z" style="fill:rgb(124,150,255);fill-rule:nonzero;"/>
                </g>
                <g transform="matrix(1.07434e-15,-1.71014,12.8601,-3.20668e-16,-6702.37,5112.49)">
                    <rect x="1543.3" y="540.616" width="33.984" height="194.4" style="fill:rgb(124,150,255);fill-rule:nonzero;"/>
                </g>
                <g transform="matrix(11.1877,0,0,7.69561,-3422.98,-5127.13)">
                    <rect x="546.568" y="930.248" width="5.195" height="43.2" style="fill:rgb(234,244,244);fill-rule:nonzero;"/>
                </g>
                <g id="zero1" serif:id="zero" transform="matrix(1.66092,0,0,1.66092,1440.79,1138.55)">
                    <path d="M617.672,537.736C674.12,537.736 705.512,572.584 705.512,637.96C705.512,703.048 674.408,737.896 617.672,737.896C560.936,737.896 529.832,703.048 529.832,637.96C529.832,572.584 561.224,537.736 617.672,537.736ZM635.123,573.606C629.908,572.347 624.099,571.72 617.672,571.72C579.656,571.72 563.24,593.32 563.24,637.672C563.24,656.586 566.187,671.364 572.475,682.115L635.123,573.606ZM600.207,702.05C605.427,703.294 611.24,703.912 617.672,703.912C655.688,703.912 671.816,682.312 671.816,637.672C671.816,619.03 668.916,604.408 662.752,593.719L600.207,702.05Z" style="fill:rgb(234,244,244);"/>
                </g>
                <g transform="matrix(1.01113,0,0,1.01113,-30.6032,782.369)">
                    <g transform="matrix(4.51095,0,0,3.10291,-1195.8,-1161.42)">
                        <path d="M357.445,930.248L357.445,937.8L373.733,937.8C376.595,937.8 377.871,940.424 377.871,943.496C377.871,946.568 376.683,949.512 373.733,949.512L362.155,949.512C358.897,949.512 357.489,951.496 357.489,956.36L357.489,973.448L362.683,973.448L362.683,957.832C362.683,957.064 362.948,956.744 363.432,956.744L371.18,956.744L377.959,973.448L383.727,973.448L376.815,956.168C381.349,954.312 383.11,948.552 383.11,943.176C383.11,936.264 380.249,930.248 373.557,930.248L357.445,930.248Z" style="fill:rgb(234,244,244);fill-rule:nonzero;"/>
                    </g>
                    <g transform="matrix(4.51095,0,0,3.10291,-1195.8,-1161.42)">
                        <path d="M400.631,930.248C392.003,930.248 387.204,937.352 387.204,951.88C387.204,966.344 391.959,973.448 400.631,973.448L405.21,973.448C411.857,973.448 414.455,967.496 414.455,959.944C414.455,952.456 411.857,947.72 406.575,947.72L399.443,947.72L399.443,954.312L406.046,954.312C408.468,954.312 409.7,956.36 409.7,959.816C409.7,963.336 408.468,965.896 405.562,965.896L400.631,965.896C394.864,965.896 392.399,961.736 392.399,951.88C392.399,941.96 394.908,937.8 400.631,937.8L412.87,937.8L412.87,930.248L400.631,930.248Z" style="fill:rgb(234,244,244);fill-rule:nonzero;"/>
                    </g>
                    <g transform="matrix(4.51095,0,0,3.10291,-1195.8,-1161.42)">
                        <path d="M431.58,938.696C431.888,937.672 432.372,937.224 433.076,937.224C433.781,937.224 434.265,937.672 434.529,938.696L443.554,973.448L449.321,973.448L439.284,935.048C438.227,931.016 436.202,929.48 433.12,929.48C429.995,929.48 427.97,931.016 426.869,935.048L416.436,973.448L422.159,973.448L431.58,938.696Z" style="fill:rgb(234,244,244);fill-rule:nonzero;"/>
                    </g>
                    <g transform="matrix(4.51095,0,0,3.10291,-1195.8,-1161.42)">
                        <path d="M458.874,939.272C458.874,937.736 459.49,936.776 460.679,936.776C461.603,936.776 462.132,937.352 462.528,938.632L471.2,966.216C472.433,971.144 474.326,974.216 478.464,974.216C483.043,974.216 485.288,970.44 485.288,964.744L485.288,930.248L480.049,930.248L480.049,964.424C480.049,965.896 479.389,966.856 478.288,966.856C477.32,966.856 476.747,966.088 476.395,965.064L467.723,937.48C466.49,932.552 464.641,929.48 460.503,929.48C455.88,929.48 453.679,933.256 453.679,938.888L453.679,973.448L458.874,973.448L458.874,939.272Z" style="fill:rgb(234,244,244);fill-rule:nonzero;"/>
                    </g>
                    <g transform="matrix(4.51095,0,0,3.10291,-1195.8,-1161.42)">
                        <rect x="492.42" y="930.248" width="5.195" height="43.2" style="fill:rgb(234,244,244);fill-rule:nonzero;"/>
                    </g>
                    <g transform="matrix(4.51095,0,0,3.10291,-1195.8,-1161.42)">
                        <path d="M517.117,930.248C508.488,930.248 503.69,937.352 503.69,951.88C503.69,966.344 508.444,973.448 517.117,973.448L528.607,973.448L528.607,965.896L517.117,965.896C511.35,965.896 508.884,961.736 508.884,951.88C508.884,941.96 511.394,937.8 517.117,937.8L528.607,937.8L528.607,930.248L517.117,930.248Z" style="fill:rgb(234,244,244);fill-rule:nonzero;"/>
                    </g>
                    <g transform="matrix(4.51095,0,0,3.10291,-1195.8,-1161.42)">
                        <rect x="546.568" y="930.248" width="5.195" height="43.2" style="fill:rgb(234,244,244);fill-rule:nonzero;"/>
                    </g>
                    <g transform="matrix(4.51095,0,0,3.10291,-1195.8,-1161.42)">
                        <path d="M564.089,939.272C564.089,937.736 564.706,936.776 565.894,936.776C566.819,936.776 567.347,937.352 567.743,938.632L576.416,966.216C577.648,971.144 579.541,974.216 583.68,974.216C588.258,974.216 590.503,970.44 590.503,964.744L590.503,930.248L585.264,930.248L585.264,964.424C585.264,965.896 584.604,966.856 583.503,966.856C582.535,966.856 581.963,966.088 581.61,965.064L572.938,937.48C571.705,932.552 569.856,929.48 565.718,929.48C561.096,929.48 558.895,933.256 558.895,938.888L558.895,973.448L564.089,973.448L564.089,939.272Z" style="fill:rgb(234,244,244);fill-rule:nonzero;"/>
                    </g>
                    <g transform="matrix(4.51095,0,0,3.10291,-1195.8,-1161.42)">
                        <path d="M595.302,930.248L595.302,937.8L603.974,937.8L603.974,973.448L609.213,973.448L609.213,937.8L617.886,937.8L617.886,930.248L595.302,930.248Z" style="fill:rgb(234,244,244);fill-rule:nonzero;"/>
                    </g>
                    <g transform="matrix(4.51095,0,0,3.10291,-1195.8,-1161.42)">
                        <path d="M631.621,930.248C624.621,930.248 621.671,935.112 621.671,942.024C621.671,946.76 623.08,950.088 625.854,951.752C623.124,953.416 621.583,956.744 621.583,961.672C621.583,968.392 624.445,973.448 631.489,973.448L646.545,973.448L646.545,965.896L631.489,965.896C628.451,965.896 626.998,963.848 626.998,960.456C626.998,956.936 628.539,955.208 631.533,955.208L646.28,955.208L646.28,948.36L631.665,948.36C628.671,948.36 627.13,946.76 627.13,943.24C627.13,939.912 628.495,937.8 631.621,937.8L646.501,937.8L646.501,930.248L631.621,930.248Z" style="fill:rgb(234,244,244);fill-rule:nonzero;"/>
                    </g>
                    <g transform="matrix(4.51095,0,0,3.10291,-1195.8,-1161.42)">
                        <path d="M652.972,930.248L652.972,958.536C652.972,967.176 656.054,973.448 663.934,973.448L675.776,973.448L675.776,965.896L664.242,965.896C659.575,965.896 658.167,962.632 658.167,958.472L658.167,930.248L652.972,930.248Z" style="fill:rgb(234,244,244);fill-rule:nonzero;"/>
                    </g>
                    <g transform="matrix(4.51095,0,0,3.10291,-1195.8,-1161.42)">
                        <path d="M679.562,930.248L679.562,958.536C679.562,967.176 682.644,973.448 690.524,973.448L702.366,973.448L702.366,965.896L690.832,965.896C686.165,965.896 684.757,962.632 684.757,958.472L684.757,930.248L679.562,930.248Z" style="fill:rgb(234,244,244);fill-rule:nonzero;"/>
                    </g>
                    <g transform="matrix(4.51095,0,0,3.10291,-1195.8,-1161.42)">
                        <rect x="707.252" y="930.248" width="5.195" height="43.2" style="fill:rgb(234,244,244);fill-rule:nonzero;"/>
                    </g>
                    <g transform="matrix(4.51095,0,0,3.10291,-1195.8,-1161.42)">
                        <path d="M731.949,930.248C723.321,930.248 718.522,937.352 718.522,951.88C718.522,966.344 723.277,973.448 731.949,973.448L736.528,973.448C743.175,973.448 745.773,967.496 745.773,959.944C745.773,952.456 743.175,947.72 737.893,947.72L730.761,947.72L730.761,954.312L737.364,954.312C739.786,954.312 741.018,956.36 741.018,959.816C741.018,963.336 739.786,965.896 736.88,965.896L731.949,965.896C726.182,965.896 723.717,961.736 723.717,951.88C723.717,941.96 726.226,937.8 731.949,937.8L744.188,937.8L744.188,930.248L731.949,930.248Z" style="fill:rgb(234,244,244);fill-rule:nonzero;"/>
                    </g>
                    <g transform="matrix(4.51095,0,0,3.10291,-1195.8,-1161.42)">
                        <path d="M760.564,930.248C753.565,930.248 750.615,935.112 750.615,942.024C750.615,946.76 752.024,950.088 754.797,951.752C752.068,953.416 750.527,956.744 750.527,961.672C750.527,968.392 753.389,973.448 760.432,973.448L775.488,973.448L775.488,965.896L760.432,965.896C757.395,965.896 755.942,963.848 755.942,960.456C755.942,956.936 757.483,955.208 760.476,955.208L775.224,955.208L775.224,948.36L760.608,948.36C757.615,948.36 756.074,946.76 756.074,943.24C756.074,939.912 757.439,937.8 760.564,937.8L775.444,937.8L775.444,930.248L760.564,930.248Z" style="fill:rgb(234,244,244);fill-rule:nonzero;"/>
                    </g>
                    <g transform="matrix(4.51095,0,0,3.10291,-1195.8,-1161.42)">
                        <path d="M787.375,939.272C787.375,937.736 787.991,936.776 789.179,936.776C790.104,936.776 790.632,937.352 791.028,938.632L799.701,966.216C800.934,971.144 802.827,974.216 806.965,974.216C811.543,974.216 813.788,970.44 813.788,964.744L813.788,930.248L808.55,930.248L808.55,964.424C808.55,965.896 807.889,966.856 806.789,966.856C805.82,966.856 805.248,966.088 804.896,965.064L796.223,937.48C794.991,932.552 793.142,929.48 789.003,929.48C784.381,929.48 782.18,933.256 782.18,938.888L782.18,973.448L787.375,973.448L787.375,939.272Z" style="fill:rgb(234,244,244);fill-rule:nonzero;"/>
                    </g>
                    <g transform="matrix(4.51095,0,0,3.10291,-1195.8,-1161.42)">
                        <path d="M833.247,930.248C824.618,930.248 819.82,937.352 819.82,951.88C819.82,966.344 824.574,973.448 833.247,973.448L844.737,973.448L844.737,965.896L833.247,965.896C827.48,965.896 825.014,961.736 825.014,951.88C825.014,941.96 827.524,937.8 833.247,937.8L844.737,937.8L844.737,930.248L833.247,930.248Z" style="fill:rgb(234,244,244);fill-rule:nonzero;"/>
                    </g>
                    <g transform="matrix(4.51095,0,0,3.10291,-1195.8,-1161.42)">
                        <path d="M859.793,930.248C852.793,930.248 849.843,935.112 849.843,942.024C849.843,946.76 851.252,950.088 854.026,951.752C851.296,953.416 849.755,956.744 849.755,961.672C849.755,968.392 852.617,973.448 859.66,973.448L874.716,973.448L874.716,965.896L859.66,965.896C856.623,965.896 855.17,963.848 855.17,960.456C855.17,956.936 856.711,955.208 859.705,955.208L874.452,955.208L874.452,948.36L859.837,948.36C856.843,948.36 855.302,946.76 855.302,943.24C855.302,939.912 856.667,937.8 859.793,937.8L874.672,937.8L874.672,930.248L859.793,930.248Z" style="fill:rgb(234,244,244);fill-rule:nonzero;"/>
                    </g>
                    <g id="zero2" serif:id="zero" transform="matrix(0.669692,0,0,0.669692,-77.3095,1364.94)">
                        <path d="M617.672,537.736C674.12,537.736 705.512,572.584 705.512,637.96C705.512,703.048 674.408,737.896 617.672,737.896C560.936,737.896 529.832,703.048 529.832,637.96C529.832,572.584 561.224,537.736 617.672,537.736ZM635.123,573.606C629.908,572.347 624.099,571.72 617.672,571.72C579.656,571.72 563.24,593.32 563.24,637.672C563.24,656.586 566.187,671.364 572.475,682.115L635.123,573.606ZM600.207,702.05C605.427,703.294 611.24,703.912 617.672,703.912C655.688,703.912 671.816,682.312 671.816,637.672C671.816,619.03 668.916,604.408 662.752,593.719L600.207,702.05Z" style="fill:rgb(234,244,244);"/>
                    </g>
                </g>
            </g>
        </g>
    </g>
</svg>
