<?xml version="1.0" encoding="UTF-8" standalone="no"?>
<!DOCTYPE svg PUBLIC "-//W3C//DTD SVG 1.1//EN" "http://www.w3.org/Graphics/SVG/1.1/DTD/svg11.dtd">
<svg width="100%" height="100%" viewBox="0 0 3000 948" version="1.1" xmlns="http://www.w3.org/2000/svg" xmlns:xlink="http://www.w3.org/1999/xlink" xml:space="preserve" xmlns:serif="http://www.serif.com/" style="fill-rule:evenodd;clip-rule:evenodd;stroke-linejoin:round;stroke-miterlimit:2;">
    <g transform="matrix(1,0,0,1,-16247,-9777)">
        <g id="blueTonedDark_smol" transform="matrix(1,0,0,0.316,16247,9777)">
            <rect x="0" y="0" width="3000" height="3000" style="fill:none;"/>
            <g transform="matrix(1,0,0,3.16456,-9.09495e-13,-5622.68)">
                <g transform="matrix(1.71014,0,0,1.71014,-320.187,1107.16)">
                    <path d="M421.256,540.616C364.808,540.616 333.416,572.584 333.416,637.96C333.416,703.048 364.52,735.016 421.256,735.016L496.424,735.016L496.424,701.032L421.256,701.032C383.528,701.032 367.4,682.312 367.4,637.96C367.4,593.32 383.816,574.6 421.256,574.6L496.424,574.6L496.424,540.616L421.256,540.616Z" style="fill:rgb(124,150,255);fill-rule:nonzero;"/>
                </g>
                <g id="zero" transform="matrix(1.71014,0,0,1.71014,-320.187,1107.16)">
                    <path d="M617.672,537.736C674.12,537.736 705.512,572.584 705.512,637.96C705.512,703.048 674.408,737.896 617.672,737.896C560.936,737.896 529.832,703.048 529.832,637.96C529.832,572.584 561.224,537.736 617.672,537.736ZM635.123,573.606C629.908,572.347 624.099,571.72 617.672,571.72C579.656,571.72 563.24,593.32 563.24,637.672C563.24,656.586 566.187,671.364 572.475,682.115L635.123,573.606ZM600.207,702.05C605.427,703.294 611.24,703.912 617.672,703.912C655.688,703.912 671.816,682.312 671.816,637.672C671.816,619.03 668.916,604.408 662.752,593.719L600.207,702.05Z" style="fill:rgb(124,150,255);"/>
                </g>
                <g transform="matrix(1.71014,0,0,1.71014,-320.187,1107.16)">
                    <path d="M751.88,540.616L751.88,574.6L858.44,574.6C877.16,574.6 885.512,586.408 885.512,600.232C885.512,614.056 877.736,627.304 858.44,627.304L782.696,627.304C761.384,627.304 752.168,636.232 752.168,658.12L752.168,735.016L786.152,735.016L786.152,664.744C786.152,661.288 787.88,659.848 791.048,659.848L841.736,659.848L886.088,735.016L923.816,735.016L878.6,657.256C908.264,648.904 919.784,622.984 919.784,598.792C919.784,567.688 901.064,540.616 857.288,540.616L751.88,540.616Z" style="fill:rgb(124,150,255);fill-rule:nonzero;"/>
                </g>
                <g transform="matrix(1.71014,0,0,1.71014,-320.187,1107.16)">
                    <path d="M939.08,540.616L939.08,574.6L995.816,574.6L995.816,735.016L1030.09,735.016L1030.09,574.6L1086.82,574.6L1086.82,540.616L939.08,540.616Z" style="fill:rgb(124,150,255);fill-rule:nonzero;"/>
                </g>
                <g transform="matrix(1.71014,0,0,1.71014,-320.187,1107.16)">
                    <path d="M1176.68,540.616C1130.89,540.616 1111.59,562.504 1111.59,593.608C1111.59,614.92 1120.81,629.896 1138.95,637.384C1121.1,644.872 1111.02,659.848 1111.02,682.024C1111.02,712.264 1129.74,735.016 1175.82,735.016L1274.31,735.016L1274.31,701.032L1175.82,701.032C1155.94,701.032 1146.44,691.816 1146.44,676.552C1146.44,660.712 1156.52,652.936 1176.1,652.936L1272.58,652.936L1272.58,622.12L1176.97,622.12C1157.38,622.12 1147.3,614.92 1147.3,599.08C1147.3,584.104 1156.23,574.6 1176.68,574.6L1274.02,574.6L1274.02,540.616L1176.68,540.616Z" style="fill:rgb(124,150,255);fill-rule:nonzero;"/>
                </g>
                <g transform="matrix(1.71014,0,0,1.71014,-320.187,1107.16)">
                    <path d="M1308.3,540.616L1387.21,633.64L1300.23,735.016L1342.28,735.016L1408.52,657.832L1536.82,798.808L1578.3,798.808L1430.7,636.232L1513.93,540.616L1471.88,540.616L1409.38,612.328L1349.77,540.616L1308.3,540.616Z" style="fill:rgb(124,150,255);fill-rule:nonzero;"/>
                </g>
                <g transform="matrix(1.07434e-15,-1.71014,12.8601,-3.20668e-16,-6702.37,5112.49)">
                    <rect x="1543.3" y="540.616" width="33.984" height="194.4" style="fill:rgb(124,150,255);fill-rule:nonzero;"/>
                </g>
                <g transform="matrix(11.1877,0,0,7.69561,-3422.98,-5127.13)">
                    <rect x="546.568" y="930.248" width="5.195" height="43.2" style="fill:rgb(234,244,244);fill-rule:nonzero;"/>
                </g>
                <g id="zero1" serif:id="zero" transform="matrix(1.66092,0,0,1.66092,1440.79,1138.55)">
                    <path d="M617.672,537.736C674.12,537.736 705.512,572.584 705.512,637.96C705.512,703.048 674.408,737.896 617.672,737.896C560.936,737.896 529.832,703.048 529.832,637.96C529.832,572.584 561.224,537.736 617.672,537.736ZM635.123,573.606C629.908,572.347 624.099,571.72 617.672,571.72C579.656,571.72 563.24,593.32 563.24,637.672C563.24,656.586 566.187,671.364 572.475,682.115L635.123,573.606ZM600.207,702.05C605.427,703.294 611.24,703.912 617.672,703.912C655.688,703.912 671.816,682.312 671.816,637.672C671.816,619.03 668.916,604.408 662.752,593.719L600.207,702.05Z" style="fill:rgb(234,244,244);"/>
                </g>
            </g>
        </g>
    </g>
</svg>
