<?xml version="1.0" encoding="UTF-8" standalone="no"?>
<!DOCTYPE svg PUBLIC "-//W3C//DTD SVG 1.1//EN" "http://www.w3.org/Graphics/SVG/1.1/DTD/svg11.dtd">
<svg width="100%" height="100%" viewBox="0 0 1080 720" version="1.1" xmlns="http://www.w3.org/2000/svg" xmlns:xlink="http://www.w3.org/1999/xlink" xml:space="preserve" xmlns:serif="http://www.serif.com/" style="fill-rule:evenodd;clip-rule:evenodd;stroke-linejoin:round;stroke-miterlimit:2;">
    <rect id="Artboard1" x="0" y="0" width="1080" height="720" style="fill:none;"/>
    <clipPath id="_clip1">
        <rect id="Artboard11" serif:id="Artboard1" x="0" y="0" width="1080" height="720"/>
    </clipPath>
    <g clip-path="url(#_clip1)">
        <g transform="matrix(1.48419,0,0,1.48419,-40.5356,-408.531)">
            <path d="M61,397C200.635,397 314,510.365 314,650C314,789.635 200.635,903 61,903C-78.635,903 -192,789.635 -192,650C-192,510.365 -78.635,397 61,397ZM61,426.309C-62.458,426.309 -162.691,526.542 -162.691,650C-162.691,773.458 -62.458,873.691 61,873.691C184.458,873.691 284.691,773.458 284.691,650C284.691,526.542 184.458,426.309 61,426.309Z" style="fill:rgb(245,247,248);"/>
        </g>
        <g transform="matrix(2.45232,-0.786049,0.786049,2.45232,-1626.68,132.448)">
            <path d="M669.724,249.23C792.574,263.036 880,298.265 880,339.5C880,392.76 734.148,436 554.5,436C374.852,436 229,392.76 229,339.5C229,292.24 343.844,252.868 495.239,244.598L511.179,249.708C362.985,255.337 248.875,289.414 248.875,330.556C248.875,375.627 385.821,412.219 554.5,412.219C723.179,412.219 860.125,375.627 860.125,330.556C860.125,297.028 784.344,268.192 676.092,255.621C674.04,253.43 671.917,251.298 669.724,249.23Z" style="fill:rgb(240,81,38);"/>
        </g>
        <g transform="matrix(2.07045,0,0,2.07045,-139.868,-63.9573)">
            <path d="M351.984,65.336C352.488,64.112 353.352,63.248 354.648,63.248C356.088,63.248 357.168,64.328 357.168,66.056L357.168,94.712C357.168,101.12 360.768,105.368 367.896,105.368C374.376,105.368 377.544,101.912 379.416,96.368L391.224,65.336C391.656,64.112 392.664,63.248 393.888,63.248C395.328,63.248 396.336,64.328 396.336,66.056L396.336,104.504L404.904,104.504L404.904,65.624C404.904,59.288 401.304,55.04 394.104,55.04C387.624,55.04 384.528,58.496 382.656,64.04L370.848,95.072C370.416,96.296 369.408,97.088 368.112,97.088C366.672,97.088 365.664,96.008 365.664,94.352L365.664,65.624C365.664,59.288 362.064,55.04 354.864,55.04C348.384,55.04 345.288,58.496 343.416,64.04L328.368,104.504L337.44,104.504L351.984,65.336Z" style="fill:rgb(245,247,248);fill-rule:nonzero;"/>
            <path d="M436.872,65.408C437.376,64.256 438.168,63.752 439.32,63.752C440.472,63.752 441.264,64.256 441.696,65.408L456.456,104.504L465.888,104.504L449.472,61.304C447.744,56.768 444.432,55.04 439.392,55.04C434.28,55.04 430.968,56.768 429.168,61.304L412.104,104.504L421.464,104.504L436.872,65.408Z" style="fill:rgb(245,247,248);fill-rule:nonzero;"/>
            <path d="M477.12,55.904C474.384,55.904 473.088,57.2 473.088,59.864L473.088,100.544C473.088,103.208 474.384,104.504 477.12,104.504L494.256,104.504C508.512,104.504 516.144,96.584 516.144,80.24C516.144,63.824 508.44,55.904 494.256,55.904L477.12,55.904ZM481.584,65.264C481.584,64.616 481.872,64.4 482.52,64.4L494.256,64.4C503.688,64.4 507.648,69.08 507.648,80.168C507.648,91.328 503.688,96.008 494.256,96.008L482.52,96.008C481.872,96.008 481.584,95.792 481.584,95.144L481.584,65.264Z" style="fill:rgb(245,247,248);fill-rule:nonzero;"/>
            <path d="M540.624,55.904C529.176,55.904 524.352,61.376 524.352,69.152C524.352,74.48 526.656,78.224 531.192,80.096C526.728,81.968 524.208,85.712 524.208,91.256C524.208,98.816 528.888,104.504 540.408,104.504L565.032,104.504L565.032,96.008L540.408,96.008C535.44,96.008 533.064,93.704 533.064,89.888C533.064,85.928 535.584,83.984 540.48,83.984L564.6,83.984L564.6,76.28L540.696,76.28C535.8,76.28 533.28,74.48 533.28,70.52C533.28,66.776 535.512,64.4 540.624,64.4L564.96,64.4L564.96,55.904L540.624,55.904Z" style="fill:rgb(245,247,248);fill-rule:nonzero;"/>
        </g>
        <g transform="matrix(2.11069,0,0,2.11069,127.808,207.403)">
            <path d="M336.936,55.904C334.2,55.904 332.904,57.2 332.904,59.864L332.904,100.544C332.904,103.208 334.2,104.504 336.936,104.504L358.536,104.504C369.984,104.504 374.808,98.888 374.808,91.112C374.808,85.496 372.216,81.896 367.608,80.024C372.144,78.224 374.592,74.84 374.592,69.224C374.592,61.304 369.768,55.904 358.32,55.904L336.936,55.904ZM341.256,83.48L358.752,83.48C363.72,83.48 366.24,85.64 366.24,89.744C366.24,93.704 363.864,96.08 358.752,96.08L342.192,96.08C341.616,96.08 341.256,95.864 341.256,95.288L341.256,83.48ZM341.256,65.12C341.256,64.544 341.616,64.256 342.192,64.256L358.608,64.256C363.792,64.256 366.024,66.776 366.024,70.592C366.024,74.552 363.576,76.424 358.536,76.424L341.256,76.424L341.256,65.12Z" style="fill:rgb(245,247,248);fill-rule:nonzero;"/>
            <path d="M379.704,55.904L399.288,83.552L399.288,104.504L407.856,104.504L407.856,83.552L427.44,55.904L417.36,55.904L403.608,76.712L390,55.904L379.704,55.904Z" style="fill:rgb(245,247,248);fill-rule:nonzero;"/>
        </g>
        <g transform="matrix(1.40727,0,0,1.40727,71.5143,521.719)">
            <path d="M332.904,55.904L332.904,104.504L341.4,104.504L341.4,84.2L366.24,84.2L366.24,104.504L374.808,104.504L374.808,55.904L366.24,55.904L366.24,75.704L341.4,75.704L341.4,55.904L332.904,55.904Z" style="fill:rgb(133,203,51);fill-rule:nonzero;"/>
            <path d="M386.184,55.904L386.184,89.024C386.184,99.248 391.512,104.504 401.88,104.504L412.104,104.504C422.472,104.504 427.872,99.248 427.872,89.024L427.872,55.904L419.52,55.904L419.52,88.376C419.52,93.2 417,96.008 411.528,96.008L402.888,96.008C397.272,96.008 394.824,93.2 394.824,88.376L394.824,55.904L386.184,55.904Z" style="fill:rgb(133,203,51);fill-rule:nonzero;"/>
            <path d="M455.52,65.336C456.024,64.112 456.888,63.248 458.184,63.248C459.624,63.248 460.704,64.328 460.704,66.056L460.704,94.712C460.704,101.12 464.304,105.368 471.432,105.368C477.912,105.368 481.08,101.912 482.952,96.368L494.76,65.336C495.192,64.112 496.2,63.248 497.424,63.248C498.864,63.248 499.872,64.328 499.872,66.056L499.872,104.504L508.44,104.504L508.44,65.624C508.44,59.288 504.84,55.04 497.64,55.04C491.16,55.04 488.064,58.496 486.192,64.04L474.384,95.072C473.952,96.296 472.944,97.088 471.648,97.088C470.208,97.088 469.2,96.008 469.2,94.352L469.2,65.624C469.2,59.288 465.6,55.04 458.4,55.04C451.92,55.04 448.824,58.496 446.952,64.04L431.904,104.504L440.976,104.504L455.52,65.336Z" style="fill:rgb(133,203,51);fill-rule:nonzero;"/>
            <path d="M540.408,65.408C540.912,64.256 541.704,63.752 542.856,63.752C544.008,63.752 544.8,64.256 545.232,65.408L559.992,104.504L569.424,104.504L553.008,61.304C551.28,56.768 547.968,55.04 542.928,55.04C537.816,55.04 534.504,56.768 532.704,61.304L515.64,104.504L525,104.504L540.408,65.408Z" style="fill:rgb(133,203,51);fill-rule:nonzero;"/>
            <path d="M585.048,66.056C585.048,64.328 586.056,63.248 588,63.248C589.512,63.248 590.376,63.896 591.024,65.336L605.208,96.368C607.224,101.912 610.32,105.368 617.088,105.368C624.576,105.368 628.248,101.12 628.248,94.712L628.248,55.904L619.68,55.904L619.68,94.352C619.68,96.008 618.6,97.088 616.8,97.088C615.216,97.088 614.28,96.224 613.704,95.072L599.52,64.04C597.504,58.496 594.48,55.04 587.712,55.04C580.152,55.04 576.552,59.288 576.552,65.624L576.552,104.504L585.048,104.504L585.048,66.056Z" style="fill:rgb(133,203,51);fill-rule:nonzero;"/>
            <path d="M652.8,55.904C642,55.904 637.68,61.808 637.68,69.872C637.68,76.64 640.704,83.912 653.664,83.912L664.968,83.912C670.944,83.912 672.6,86.792 672.6,89.96C672.6,93.488 670.512,96.008 665.904,96.008L638.544,96.008L638.544,104.504L665.616,104.504C676.704,104.504 681.096,98.456 681.096,90.248C681.096,83.264 678,75.92 664.752,75.92L653.376,75.92C647.688,75.92 646.176,73.112 646.176,70.16C646.176,66.776 648.12,64.4 652.512,64.4L677.424,64.4L677.424,55.904L652.8,55.904Z" style="fill:rgb(133,203,51);fill-rule:nonzero;"/>
        </g>
    </g>
</svg>
